<svg id="图层_1" data-name="图层 1" xmlns="http://www.w3.org/2000/svg" viewBox="0 0 211.74 42.29"><defs><style>.cls-1{fill:#004b3d;}.cls-2{fill:#83b92f;}</style></defs><path class="cls-1" d="M238.56,318.46c-3.95,0-7-2.11-6.55-5.81h3.31c-.15,1.72,1.08,3.12,3.38,3.12s3.86-1,3.86-2.89c0-4-9.32-2.89-9.46-9.06-.09-3.79,3-6.13,7.24-6.13s6.72,2.19,6.54,5.52h-3.5c.14-1.52-1-2.8-3.19-2.8s-3.71,1.08-3.71,2.86c0,3.88,9.53,3.18,9.53,9.35C246,316,243,318.46,238.56,318.46Z" transform="translate(-182.95 -283.62)"/><path class="cls-1" d="M252.51,296.64h3.33L254.53,304a7.62,7.62,0,0,1,5.37-2.13c3.6,0,6,2.36,5.2,6.86l-1.69,9.49h-3.3l1.6-9c.5-2.95-.81-4.47-3.24-4.47s-4.35,1.52-4.85,4.47v-.06l-1.6,9.05h-3.33Z" transform="translate(-182.95 -283.62)"/><path class="cls-1" d="M274.68,318.52a6.47,6.47,0,0,1-6.87-6.78,9.65,9.65,0,0,1,9.76-9.84c4.12,0,7,2.74,7,6.8A9.72,9.72,0,0,1,274.68,318.52Zm.41-2.81c3.44,0,6-3.24,6-6.8a3.86,3.86,0,0,0-4-4.21c-3.5,0-5.84,3.27-5.84,6.89C271.26,314.31,272.92,315.71,275.09,315.71Z" transform="translate(-182.95 -283.62)"/><path class="cls-1" d="M298.1,301.9c4.23,0,7,3.27,6.1,8.23s-4.79,8.39-9,8.39a6,6,0,0,1-5.17-2.6l-1.76,10h-3.33l4.18-23.75h3.33l-.41,2.37A8.49,8.49,0,0,1,298.1,301.9Zm-1.23,2.89a6.23,6.23,0,0,0-5.84,5.4c-.62,3.48,1.43,5.43,3.91,5.43a6.28,6.28,0,0,0,5.87-5.49C301.43,306.66,299.38,304.79,296.87,304.79Z" transform="translate(-182.95 -283.62)"/><path class="cls-1" d="M308.9,302.16h3.33l-2.84,16.09h-3.33Zm0,0h3.33l-2.84,16.09h-3.33Zm.32-4.27a2.62,2.62,0,0,1,2.51-2.13,1.71,1.71,0,0,1,1.72,2.13A2.61,2.61,0,0,1,311,300,1.72,1.72,0,0,1,309.22,297.89Z" transform="translate(-182.95 -283.62)"/><path class="cls-1" d="M316.55,304.88h-1.9l.47-2.72H317l.2-1.14c.67-3.71,2.83-5.32,7-5.32l-.47,2.78c-2,0-2.89.7-3.21,2.54l-.21,1.14h3l-.46,2.72h-3l-2.37,13.37h-3.36Z" transform="translate(-182.95 -283.62)"/><path class="cls-1" d="M324.4,302.16h3.71l2.37,12.27,6.86-12.27h3.45l-14,23.66h-3.45L328,318Z" transform="translate(-182.95 -283.62)"/><path class="cls-1" d="M347.82,318.46c-3.94,0-7-2.11-6.54-5.81h3.3c-.14,1.72,1.08,3.12,3.39,3.12s3.85-1,3.85-2.89c0-4-9.31-2.89-9.46-9.06-.09-3.79,3-6.13,7.24-6.13s6.72,2.19,6.55,5.52h-3.51c.15-1.52-1-2.8-3.18-2.8s-3.71,1.08-3.71,2.86c0,3.88,9.52,3.18,9.52,9.35C355.27,316,352.29,318.46,347.82,318.46Z" transform="translate(-182.95 -283.62)"/><path class="cls-1" d="M372.29,300.52h-7.88l-1.08,6.17h7l-.44,2.57h-7l-1.14,6.39h7.89l-.47,2.6H358l3.6-20.32h11.21Z" transform="translate(-182.95 -283.62)"/><path class="cls-1" d="M382.6,318.46c-5.2,0-8.65-3.54-8.65-8.56A11.8,11.8,0,0,1,386,297.69c5.26,0,8.67,3.54,8.67,8.53C394.69,313.29,389.58,318.46,382.6,318.46Zm.47-3c4.91,0,8.18-4.15,8.18-9,0-3.53-2.11-5.72-5.7-5.72-4.91,0-8.15,4.09-8.15,9C377.4,313.23,379.5,315.45,383.07,315.45Z" transform="translate(-182.95 -283.62)"/><polygon class="cls-2" points="45.96 13.99 43.47 14.19 43.27 10.79 29.85 27.59 22.4 16.68 12.76 27.1 7.34 18.46 10.31 16.37 13.28 21.08 22.96 10.77 29.92 21.71 40.65 8.61 37.24 8.88 37.05 6.4 45.3 5.74 45.96 13.99"/><path class="cls-2" d="M212.56,313.22a15.19,15.19,0,1,1,0-21.49,14.84,14.84,0,0,1,4,7.29l2.77-3.38a18.52,18.52,0,0,0-4.15-6.5,18.86,18.86,0,1,0,0,26.67,18.43,18.43,0,0,0,5.35-10.69l.28-1.89L214.59,311C214.45,311.16,213.12,312.67,212.56,313.22Z" transform="translate(-182.95 -283.62)"/></svg>