<svg width="440" height="428" viewBox="0 0 440 428" fill="none" xmlns="http://www.w3.org/2000/svg">
<g clip-path="url(#clip0_8182_1550)">
<path d="M233.422 324.855C226.879 325.859 222.092 330.051 222.731 334.218C223.37 338.386 229.192 340.949 235.737 339.944C238.357 339.579 240.852 338.59 243.012 337.062L270.683 332.459L268.836 321.513L241.228 325.423C238.709 324.613 236.032 324.418 233.422 324.855H233.422Z" fill="#FFB6B6"/>
<path d="M352.661 290.736L341.932 313.52L287.994 331.691L243.236 334.081L242.115 323.323L290.622 313.173L340.396 289.634L352.661 290.736Z" fill="#E6E6E6"/>
<path d="M230.285 243.069L228.814 243.102L231.626 370.975L233.097 370.943L230.285 243.069Z" fill="#3F3D56"/>
<path d="M230.316 299.688C230.183 299.234 227.133 288.45 233.736 277.849L234.985 278.628C228.741 288.652 231.697 299.169 231.728 299.275L230.316 299.688V299.688Z" fill="#3F3D56"/>
<path d="M234.255 278.668C234.255 278.668 232.248 264.937 250.74 261.169C254.593 260.384 258.215 259.847 261.535 259.489C265.454 259.067 266.983 264.436 263.442 266.17C258.315 268.682 253.492 271.846 250.978 275.593C244.045 285.927 234.255 278.668 234.255 278.668V278.668Z" fill="#83B92F"/>
<path d="M232.22 339.395L230.808 338.981C230.839 338.876 233.795 328.358 227.551 318.335L228.799 317.556C235.402 328.156 232.353 338.941 232.22 339.395V339.395Z" fill="#3F3D56"/>
<path d="M228.283 318.374C228.283 318.374 230.29 304.644 211.797 300.875C207.945 300.09 204.323 299.554 201.003 299.196C197.084 298.774 195.555 304.143 199.096 305.877C204.223 308.388 209.046 311.552 211.56 315.299C218.493 325.633 228.283 318.374 228.283 318.374H228.283Z" fill="#83B92F"/>
<path d="M254.019 225.315C257.742 224.332 261.223 222.621 261.107 220.928C260.97 218.917 255.802 217.569 251.344 217.364C254.707 214.731 257.796 211.092 256.852 209.446C255.983 207.933 251.942 208.519 248.213 209.852C250.42 206.695 251.971 203.138 250.79 201.92C249.318 200.404 244.095 203.021 240.531 205.914C241.225 201.407 240.874 195.718 238.854 195.203C237.164 194.772 234.769 198.082 233.127 201.687C232.401 197.904 230.932 194.312 229.236 194.312C226.821 194.312 224.862 201.6 224.862 206.349C224.862 206.617 224.869 206.87 224.882 207.111C224.639 206.83 224.361 206.536 224.044 206.228C220.641 202.92 214.052 199.248 212.369 200.982C211.187 202.2 212.739 205.757 214.945 208.914C211.217 207.581 207.176 206.995 206.307 208.508C205.14 210.541 210.129 215.617 214.184 218.078C213.941 218.049 213.684 218.024 213.412 218.006C208.678 217.682 201.279 219.141 201.114 221.553C200.999 223.246 204.479 224.958 208.202 225.94C204.496 227.334 201.034 229.5 201.348 231.217C201.729 233.3 207.547 234.029 212.121 233.603C208.704 236.884 204.998 242.762 206.545 244.484C207.678 245.747 211.33 244.44 214.627 242.452C213.045 246.084 212.185 250.079 213.635 251.049C215.55 252.331 220.804 247.868 223.573 244.028C223.291 248.726 224.414 255.18 226.643 255.435C228.328 255.628 230.195 252.226 231.345 248.549C232.568 252.318 234.572 255.878 236.3 255.642C238.547 255.335 239.526 248.719 239.107 244.017C241.964 247.7 246.773 251.638 248.587 250.424C250.036 249.453 249.177 245.458 247.594 241.827C250.892 243.815 254.543 245.121 255.677 243.859C257.223 242.136 253.518 236.258 250.1 232.977C254.674 233.404 260.492 232.675 260.873 230.591C261.188 228.875 257.725 226.709 254.019 225.315V225.315ZM233.977 238.604C233.02 238.735 232.145 238.921 231.48 239.398C230.773 238.695 229.741 238.482 228.593 238.35C227.308 238.203 226.14 238.189 225.249 238.932C224.923 238.025 224.122 237.381 223.188 236.756C222.386 236.219 221.607 235.778 220.793 235.693C220.73 234.698 220.099 233.853 219.327 232.993C218.835 232.444 218.342 231.954 217.796 231.626C218.584 230.665 218.493 229.451 218.249 228.118C218.075 227.167 217.849 226.301 217.343 225.658C218.012 224.919 218.178 223.877 218.257 222.724C218.343 221.464 218.307 220.322 217.581 219.472C219.458 219.711 220.364 218.541 221.206 217.074C221.687 216.236 222.074 215.428 222.103 214.61C223.091 214.479 223.89 213.792 224.695 212.962C225.383 212.254 225.968 211.552 226.187 210.745C226.975 211.407 228.05 211.508 229.236 211.508C230.391 211.508 231.441 211.412 232.223 210.795C232.83 211.344 233.678 211.629 234.614 211.867C235.507 212.095 236.351 212.247 237.117 212.094C237.397 212.734 237.895 213.315 238.463 213.9C239.268 214.73 240.068 215.417 241.055 215.548C241.085 216.366 241.471 217.174 241.952 218.012C242.519 218.998 243.113 219.851 244.013 220.231C243.908 220.804 243.919 221.435 243.964 222.099C244.043 223.252 244.209 224.294 244.878 225.032C244.372 225.676 244.146 226.542 243.972 227.493C243.728 228.825 243.637 230.04 244.426 231.001C243.879 231.328 243.387 231.819 242.894 232.367C242.122 233.227 241.491 234.073 241.428 235.067C240.614 235.152 239.836 235.593 239.033 236.131C237.937 236.865 237.024 237.625 236.848 238.806C236.025 238.407 235.041 238.459 233.977 238.604V238.604Z" fill="#83B92F"/>
<path d="M231.423 240.897C240.051 240.897 247.044 233.898 247.044 225.264C247.044 216.631 240.051 209.632 231.423 209.632C222.796 209.632 215.803 216.631 215.803 225.264C215.803 233.898 222.796 240.897 231.423 240.897Z" fill="#3F3D56"/>
<path d="M43.0332 414.825C43.0332 415.31 43.423 415.7 43.9085 415.7H428.04C428.525 415.7 428.915 415.31 428.915 414.825C428.915 414.339 428.525 413.949 428.04 413.949H43.9085C43.423 413.949 43.0332 414.339 43.0332 414.825V414.825Z" fill="#3F3D56"/>
<path d="M253.179 377.249L243.546 401.633L231.08 393.127L238.446 367.609L253.179 377.249Z" fill="#FFB6B6"/>
<path d="M212.948 368.176L187.449 392.56L197.649 403.334L223.714 382.92L212.948 368.176Z" fill="#FFB6B6"/>
<path d="M357.439 288.788L357.156 286.803L350.639 274.044L329.107 279.715L333.074 297.294L357.439 288.788Z" fill="#FFB6B6"/>
<path d="M348.375 373.847L349.037 382.364C349.037 382.364 351.774 418.078 329.676 420.913C307.577 423.748 297.944 426.584 284.912 404.468L264.513 368.176L252.598 382.364L236.748 369.878C236.748 369.878 248.081 325.647 257.147 323.946C258.28 323.733 259.413 323.627 260.529 323.603C268.034 323.447 275.11 327.121 279.6 333.141L305.311 367.609L314.66 363.356L348.375 373.847H348.375Z" fill="#2F2E41"/>
<path d="M225.981 400.499L231.081 390.859L245.813 401.066C245.813 401.066 249.213 413.541 244.113 415.242C239.014 416.944 224.848 414.675 224.848 414.675C224.848 414.675 198.783 420.346 198.216 415.242C197.649 410.139 210.115 409.005 210.115 409.005L225.981 400.499V400.499Z" fill="#2F2E41"/>
<path d="M281.512 393.694L242.131 368.862L222.015 386.889L208.416 371.012C208.416 371.012 233.348 334.153 240.714 332.452C248.08 330.75 259.98 329.616 259.98 329.616L296.244 363.073L281.512 393.694V393.694Z" fill="#2F2E41"/>
<path d="M186.885 390.292L199.917 404.468L198.198 405.939C198.198 405.939 194.817 420.676 186.885 415.691C178.952 410.706 178.385 409.572 178.385 409.572C178.385 409.572 155.72 414.675 153.453 405.602C151.187 396.529 157.42 398.231 157.42 398.231L163.079 401.633L186.885 390.292L186.885 390.292Z" fill="#2F2E41"/>
<path d="M335.908 285.953C345.922 285.953 354.04 277.829 354.04 267.807C354.04 257.785 345.922 249.661 335.908 249.661C325.893 249.661 317.775 257.785 317.775 267.807C317.775 277.829 325.893 285.953 335.908 285.953Z" fill="#FFB6B6"/>
<path d="M331.656 293.608L357.722 285.669C357.722 285.669 367.921 309.486 366.221 320.26C364.521 331.034 349.034 382.364 349.034 382.364L314.657 363.356C314.657 363.356 314.091 352.015 312.391 346.912C310.691 341.808 305.308 326.214 317.207 313.171C329.107 300.129 331.656 293.608 331.656 293.608V293.608Z" fill="#E6E6E6"/>
<path d="M77.1089 114.804L75.6387 114.837L82.2579 415.873L83.7282 415.841L77.1089 114.804Z" fill="#3F3D56"/>
<path d="M79.1369 247.792C79.0615 247.535 71.7692 221.767 87.0795 197.189L88.3278 197.968C73.3623 221.993 80.4746 247.126 80.5482 247.378L79.1369 247.792V247.792Z" fill="#3F3D56"/>
<path d="M87.4492 198.587C87.4492 198.587 82.7235 166.263 126.258 157.392C135.328 155.544 143.854 154.28 151.67 153.439C160.896 152.445 164.495 165.084 156.16 169.167C144.09 175.079 132.736 182.527 126.818 191.348C110.496 215.676 87.4492 198.587 87.4492 198.587V198.587Z" fill="#83B92F"/>
<path d="M81.7046 341.268L80.2933 340.854C80.3665 340.603 87.4652 315.446 72.5137 291.443L73.762 290.664C89.0723 315.243 81.78 341.01 81.7046 341.268Z" fill="#3F3D56"/>
<path d="M73.3913 292.063C73.3913 292.063 78.117 259.739 34.5826 250.868C25.513 249.02 16.9865 247.756 9.17053 246.915C-0.0554102 245.921 -3.6542 258.56 4.68028 262.642C16.7505 268.555 28.1047 276.003 34.0227 284.824C50.3446 309.152 73.3913 292.063 73.3913 292.063V292.063Z" fill="#83B92F"/>
<path d="M133.984 72.9856C142.747 70.6733 150.942 66.6444 150.67 62.6587C150.347 57.924 138.181 54.7515 127.686 54.2688C135.602 48.0708 142.876 39.5029 140.651 35.628C138.606 32.0656 129.093 33.4455 120.316 36.5831C125.51 29.1514 129.162 20.7771 126.381 17.9113C122.917 14.3414 110.621 20.5031 102.23 27.314C103.864 16.7032 103.038 3.30967 98.2822 2.0979C94.3038 1.08415 88.6653 8.87532 84.7994 17.3625C83.0909 8.45586 79.6321 0 75.6402 0C69.9535 0 65.3435 17.1584 65.3435 28.3372C65.3435 28.9691 65.3603 29.5639 65.3891 30.1322C64.8183 29.47 64.1642 28.7782 63.4182 28.0531C55.4049 20.2651 39.8934 11.6206 35.9316 15.7032C33.1505 18.569 36.8023 26.9433 41.9965 34.375C33.2193 31.2374 23.7061 29.8575 21.6611 33.4199C18.9133 38.2066 30.6587 50.1558 40.2059 55.9505C39.6319 55.8813 39.029 55.8231 38.3873 55.7793C27.2429 55.0183 9.8234 58.453 9.43626 64.1308C9.1645 68.1164 17.3589 72.1454 26.1218 74.4576C17.3975 77.7396 9.24656 82.839 9.98639 86.8801C10.8843 91.7848 24.5798 93.5018 35.3482 92.4968C27.3034 100.221 18.5802 114.059 22.2207 118.114C24.8884 121.086 33.4855 118.01 41.2479 113.33C37.5225 121.88 35.4992 131.284 38.9115 133.568C43.421 136.587 55.7885 126.08 62.3091 117.04C61.6447 128.1 64.2892 143.295 69.5362 143.894C73.5024 144.347 77.8975 136.339 80.6048 127.684C83.4835 136.555 88.2022 144.936 92.2699 144.381C97.5592 143.658 99.8651 128.083 98.8785 117.015C105.605 125.684 116.924 134.955 121.195 132.096C124.607 129.812 122.584 120.408 118.858 111.858C126.621 116.538 135.218 119.614 137.885 116.642C141.526 112.587 132.803 98.7491 124.758 91.0247C135.526 92.0297 149.222 90.3128 150.12 85.4081C150.86 81.3669 142.709 76.2675 133.984 72.9855L133.984 72.9856ZM86.8007 104.271C84.5482 104.578 82.4886 105.018 80.9223 106.139C79.2583 104.486 76.828 103.983 74.1258 103.674C71.1001 103.328 68.3505 103.295 66.2538 105.042C65.4866 102.908 63.6 101.392 61.4025 99.9208C59.5129 98.6558 57.6804 97.6175 55.7647 97.4172C55.6151 95.0756 54.13 93.0856 52.3124 91.0607C51.1535 89.7697 49.994 88.6154 48.7073 87.8434C50.5637 85.5814 50.3496 82.7226 49.7753 79.5851C49.3656 77.3473 48.8333 75.3082 47.6422 73.7935C49.2165 72.0546 49.6084 69.602 49.7935 66.8865C49.9957 63.9215 49.9117 61.2332 48.2015 59.2314C52.6211 59.7939 54.7539 57.0385 56.7363 53.5852C57.8687 51.6125 58.7791 49.7121 58.8484 47.7859C61.1726 47.477 63.0554 45.8588 64.9502 43.9062C66.5689 42.2382 67.9457 40.5867 68.4629 38.6858C70.3176 40.2456 72.8483 40.4817 75.6402 40.4817C78.36 40.4817 80.8317 40.2574 82.6723 38.8039C84.1014 40.0962 86.0979 40.7665 88.3009 41.3279C90.404 41.8638 92.3891 42.2222 94.194 41.8615C94.8529 43.3678 96.0243 44.7356 97.3622 46.1143C99.257 48.0669 101.14 49.6851 103.464 49.994C103.533 51.9202 104.444 53.8206 105.576 55.7933C106.909 58.1154 108.309 60.1232 110.427 61.019C110.18 62.3678 110.206 63.8525 110.312 65.4145C110.498 68.13 110.889 70.5826 112.464 72.3215C111.273 73.8362 110.74 75.8752 110.331 78.1131C109.756 81.2505 109.542 84.1094 111.399 86.3713C110.112 87.1434 108.953 88.2976 107.794 89.5887C105.976 91.6135 104.491 93.6036 104.341 95.9452C102.426 96.1454 100.593 97.1838 98.7036 98.4487C96.1228 100.176 93.973 101.967 93.5601 104.747C91.6234 103.807 89.3051 103.929 86.8007 104.271V104.271Z" fill="#83B92F"/>
<path d="M80.7874 109.669C101.097 109.669 117.561 93.192 117.561 72.8671C117.561 52.5421 101.097 36.0656 80.7874 36.0656C60.4778 36.0656 44.0137 52.5421 44.0137 72.8671C44.0137 93.192 60.4778 109.669 80.7874 109.669Z" fill="#3F3D56"/>
<path d="M420.555 343.176L419.084 343.208L420.666 415.137L422.136 415.105L420.555 343.176Z" fill="#3F3D56"/>
<path d="M419.942 375.122C419.865 374.861 418.112 368.66 421.902 362.576L423.15 363.355C419.719 368.863 421.337 374.651 421.353 374.708L419.942 375.122V375.122Z" fill="#3F3D56"/>
<path d="M422.466 363.207C422.466 363.207 421.336 355.483 431.739 353.364C433.906 352.922 435.943 352.62 437.81 352.419C440.015 352.182 440.875 355.202 438.883 356.177C435.999 357.59 433.286 359.37 431.872 361.477C427.972 367.29 422.466 363.207 422.466 363.207V363.207Z" fill="#83B92F"/>
<path d="M421.63 397.456L420.219 397.043C420.235 396.985 421.853 391.198 418.422 385.691L419.67 384.911C423.46 390.995 421.707 397.195 421.63 397.456V397.456Z" fill="#3F3D56"/>
<path d="M419.106 385.542C419.106 385.542 420.235 377.819 409.833 375.699C407.666 375.257 405.629 374.955 403.762 374.754C401.557 374.517 400.697 377.537 402.689 378.512C405.573 379.925 408.286 381.705 409.7 383.812C413.6 389.625 419.106 385.542 419.106 385.542V385.542Z" fill="#83B92F"/>
<path d="M433.583 333.196C435.677 332.644 437.635 331.681 437.57 330.729C437.493 329.597 434.586 328.839 432.078 328.724C433.97 327.243 435.708 325.196 435.176 324.27C434.687 323.419 432.414 323.748 430.317 324.498C431.558 322.722 432.431 320.721 431.766 320.037C430.939 319.184 428.001 320.656 425.996 322.283C426.386 319.748 426.189 316.548 425.053 316.258C424.102 316.016 422.755 317.878 421.831 319.906C421.423 317.777 420.596 315.757 419.642 315.757C418.284 315.757 417.182 319.857 417.182 322.528C417.182 322.679 417.186 322.821 417.193 322.957C417.057 322.798 416.9 322.633 416.722 322.46C414.807 320.599 411.101 318.534 410.155 319.509C409.49 320.194 410.363 322.195 411.604 323.97C409.506 323.221 407.233 322.891 406.745 323.742C406.088 324.886 408.895 327.741 411.176 329.126C411.039 329.109 410.895 329.095 410.741 329.085C408.079 328.903 403.916 329.724 403.824 331.08C403.759 332.033 405.717 332.995 407.811 333.548C405.726 334.332 403.779 335.55 403.955 336.516C404.17 337.688 407.442 338.098 410.015 337.858C408.093 339.704 406.009 343.01 406.878 343.979C407.516 344.689 409.57 343.954 411.425 342.836C410.535 344.879 410.051 347.126 410.867 347.672C411.944 348.393 414.899 345.882 416.457 343.722C416.298 346.365 416.93 349.995 418.184 350.139C419.132 350.247 420.182 348.334 420.829 346.265C421.517 348.385 422.644 350.388 423.616 350.255C424.88 350.082 425.431 346.361 425.195 343.716C426.802 345.788 429.507 348.003 430.527 347.32C431.342 346.774 430.859 344.527 429.969 342.484C431.824 343.602 433.878 344.337 434.515 343.627C435.385 342.658 433.301 339.352 431.379 337.506C433.951 337.746 437.224 337.336 437.438 336.164C437.615 335.199 435.668 333.98 433.583 333.196V333.196ZM422.309 340.671C421.771 340.745 421.279 340.85 420.905 341.118C420.507 340.723 419.926 340.602 419.281 340.529C418.558 340.446 417.901 340.438 417.4 340.856C417.216 340.346 416.766 339.983 416.241 339.632C415.789 339.33 415.351 339.081 414.893 339.034C414.858 338.474 414.503 337.999 414.069 337.515C413.792 337.206 413.515 336.931 413.207 336.746C413.651 336.206 413.6 335.523 413.462 334.773C413.364 334.238 413.237 333.751 412.953 333.389C413.329 332.974 413.422 332.388 413.467 331.739C413.515 331.03 413.495 330.388 413.086 329.91C414.142 330.044 414.652 329.386 415.126 328.56C415.396 328.089 415.614 327.635 415.63 327.175C416.186 327.101 416.636 326.714 417.088 326.248C417.475 325.849 417.804 325.455 417.928 325C418.371 325.373 418.975 325.43 419.642 325.43C420.292 325.43 420.883 325.376 421.323 325.029C421.664 325.337 422.141 325.498 422.668 325.632C423.17 325.76 423.644 325.845 424.076 325.759C424.233 326.119 424.513 326.446 424.833 326.775C425.285 327.242 425.735 327.629 426.291 327.702C426.307 328.163 426.525 328.617 426.795 329.088C427.114 329.643 427.448 330.123 427.954 330.337C427.895 330.659 427.902 331.014 427.927 331.387C427.971 332.036 428.065 332.622 428.441 333.037C428.156 333.399 428.029 333.886 427.931 334.421C427.794 335.171 427.743 335.854 428.187 336.394C427.879 336.579 427.602 336.855 427.325 337.163C426.891 337.647 426.536 338.122 426.5 338.682C426.043 338.73 425.605 338.978 425.153 339.28C424.537 339.693 424.023 340.121 423.924 340.785C423.461 340.56 422.908 340.589 422.309 340.671V340.671Z" fill="#83B92F"/>
<path d="M420.875 341.961C425.727 341.961 429.661 338.024 429.661 333.168C429.661 328.311 425.727 324.374 420.875 324.374C416.022 324.374 412.088 328.311 412.088 333.168C412.088 338.024 416.022 341.961 420.875 341.961Z" fill="#3F3D56"/>
<path d="M274.291 412.68C270.049 417.766 269.233 424.079 272.467 426.78C275.702 429.481 281.762 427.547 286.004 422.459C287.727 420.45 288.944 418.057 289.553 415.481L307.254 393.704L298.632 386.721L280.519 407.936C278.094 408.997 275.958 410.624 274.291 412.68V412.68Z" fill="#FFB6B6"/>
<path d="M351.652 305.048L357.813 329.47L327.659 377.774L296.877 408.734L286.9 400.451L317.945 361.795L341.476 311.988L351.652 305.048Z" fill="#E6E6E6"/>
<path d="M319.19 264.688C323.841 264.677 324.105 264.708 324.857 264.688C330.625 264.536 332.133 262.265 335.056 262.42C340.274 262.696 333.387 288.876 330.523 300.98C327.714 312.85 337.207 323.487 337.889 324.229C347.525 334.716 364.45 336.634 367.354 332.168C369.705 328.553 361.374 323.057 363.388 315.156C365.356 307.433 374.446 308.255 376.987 300.98C379.648 293.36 370.706 289.517 365.088 270.926C361.861 260.248 362.432 258.259 359.421 251.646C351.374 233.969 311.929 241.495 316.357 257.883C317.214 261.053 314.934 264.698 319.19 264.688V264.688Z" fill="#2F2E41"/>
</g>
<defs>
<clipPath id="clip0_8182_1550">
<rect width="440" height="428" fill="white"/>
</clipPath>
</defs>
</svg>
