<svg width="542" height="406" viewBox="0 0 542 406" fill="none" xmlns="http://www.w3.org/2000/svg">
<g clip-path="url(#clip0_8151_1581)">
<path d="M31.9363 368.332C32.2648 380.571 34.3191 392.702 38.0386 404.369C38.121 404.639 38.2125 404.906 38.3016 405.177H61.0722C61.0483 404.934 61.0235 404.663 60.9996 404.369C59.4814 386.948 68.1549 282.185 78.6211 264.054C77.7041 265.525 30.1707 312.979 31.9363 368.332Z" fill="#F0F0F0"/>
<path d="M33.644 404.369C33.8345 404.639 34.0325 404.91 34.2353 405.177H51.3184C51.1889 404.946 51.0388 404.676 50.8648 404.369C48.0429 399.286 39.6902 384.087 31.9371 368.332C23.6083 351.4 15.9607 333.826 16.6047 327.466C16.4051 328.9 10.6393 372.631 33.644 404.369Z" fill="#F0F0F0"/>
<path d="M112.127 330.28H542V0H112.127V330.28Z" fill="white"/>
<path d="M112.127 330.28H542V0H112.127V330.28ZM535.649 323.941H118.478V6.3391H535.649V323.941Z" fill="#E5E5E5"/>
<path d="M429.496 248.968H462.043C462.924 248.967 463.769 248.617 464.392 247.995C465.016 247.373 465.366 246.53 465.367 245.65V200.871C465.366 199.991 465.016 199.148 464.392 198.526C463.769 197.904 462.924 197.554 462.043 197.553H429.496C428.615 197.554 427.77 197.904 427.147 198.526C426.524 199.148 426.173 199.991 426.172 200.871V245.65C426.173 246.53 426.524 247.373 427.147 247.995C427.77 248.617 428.615 248.967 429.496 248.968Z" fill="#E6E6E6"/>
<path d="M370.143 248.968H402.689C403.571 248.967 404.416 248.617 405.039 247.995C405.662 247.373 406.013 246.53 406.014 245.65V158.398C406.013 157.519 405.662 156.675 405.039 156.053C404.416 155.431 403.571 155.082 402.689 155.081H370.143C369.261 155.082 368.417 155.431 367.793 156.053C367.17 156.675 366.82 157.519 366.818 158.398V245.65C366.82 246.53 367.17 247.373 367.793 247.995C368.417 248.617 369.261 248.967 370.143 248.968Z" fill="#E6E6E6"/>
<path d="M310.789 248.968H343.336C344.217 248.967 345.062 248.617 345.685 247.995C346.309 247.373 346.659 246.53 346.66 245.65V200.871C346.659 199.991 346.309 199.148 345.685 198.526C345.062 197.904 344.217 197.554 343.336 197.553H310.789C309.908 197.554 309.063 197.904 308.44 198.526C307.817 199.148 307.466 199.991 307.465 200.871V245.65C307.466 246.53 307.817 247.373 308.44 247.995C309.063 248.617 309.908 248.967 310.789 248.968Z" fill="#E6E6E6"/>
<path d="M251.438 248.968H283.984C284.846 248.987 285.679 248.664 286.302 248.07C286.925 247.476 287.287 246.66 287.309 245.801V141.482C287.287 140.623 286.925 139.807 286.302 139.213C285.679 138.62 284.846 138.297 283.984 138.315H251.438C250.576 138.297 249.743 138.62 249.12 139.213C248.497 139.807 248.135 140.623 248.113 141.482V245.801C248.135 246.66 248.497 247.476 249.12 248.07C249.743 248.664 250.576 248.987 251.438 248.968Z" fill="#E6E6E6"/>
<path d="M192.084 248.968H224.631C225.512 248.967 226.357 248.617 226.98 247.995C227.603 247.373 227.954 246.53 227.955 245.65V111.455C227.954 110.575 227.603 109.732 226.98 109.11C226.357 108.488 225.512 108.138 224.631 108.137H192.084C191.203 108.138 190.358 108.488 189.735 109.11C189.112 109.732 188.761 110.575 188.76 111.455V245.65C188.761 246.53 189.112 247.373 189.735 247.995C190.358 248.617 191.203 248.967 192.084 248.968Z" fill="#F2F2F2"/>
<path d="M445.769 184.141C442.058 184.141 439.05 181.138 439.05 177.435C439.05 173.731 442.058 170.728 445.769 170.728C449.48 170.728 452.488 173.731 452.488 177.435C452.488 181.138 449.48 184.141 445.769 184.141Z" fill="#3F3D56"/>
<path d="M386.416 140.55C382.705 140.55 379.696 137.548 379.696 133.844C379.696 130.14 382.705 127.138 386.416 127.138C390.126 127.138 393.135 130.14 393.135 133.844C393.135 137.548 390.126 140.55 386.416 140.55Z" fill="#3F3D56"/>
<path d="M327.064 184.141C323.353 184.141 320.345 181.138 320.345 177.435C320.345 173.731 323.353 170.728 327.064 170.728C330.775 170.728 333.783 173.731 333.783 177.435C333.783 181.138 330.775 184.141 327.064 184.141Z" fill="#3F3D56"/>
<path d="M267.711 119.314C264 119.314 260.991 116.312 260.991 112.608C260.991 108.904 264 105.902 267.711 105.902C271.421 105.902 274.43 108.904 274.43 112.608C274.43 116.312 271.421 119.314 267.711 119.314Z" fill="#3F3D56"/>
<path d="M208.357 94.7244C204.646 94.7244 201.638 91.7219 201.638 88.0182C201.638 84.3144 204.646 81.312 208.357 81.312C212.068 81.312 215.076 84.3144 215.076 88.0182C215.076 91.7219 212.068 94.7244 208.357 94.7244Z" fill="#3F3D56"/>
<path d="M326.921 178.937L386.416 134.461L445.096 178.329L446.439 176.54L386.416 131.668L327.205 175.932L268.365 111.666L268.128 111.571L208.776 87.7026L207.939 89.7764L267.055 113.549L326.921 178.937Z" fill="#3F3D56"/>
<path d="M125.332 395.049L135.442 395.048L140.252 356.129L125.33 356.129L125.332 395.049Z" fill="#FFB6B6"/>
<path d="M122.755 404.83L155.354 404.829V404.417C155.353 401.059 154.016 397.838 151.637 395.463C149.258 393.088 146.03 391.754 142.665 391.754H142.665L122.755 391.755L122.755 404.83Z" fill="#2F2E41"/>
<path d="M161.465 230.317L155.725 321.589L136.454 385.836L121.524 386.915L129.022 308.616L125.734 256.618C125.734 256.618 110.151 245.024 118.767 231.068L161.465 230.317Z" fill="#2F2E41"/>
<path d="M118.737 395.049L128.847 395.048L133.656 356.129L118.735 356.129L118.737 395.049Z" fill="#FFB6B6"/>
<path d="M116.158 404.83L148.756 404.829V404.417C148.756 401.059 147.419 397.838 145.039 395.463C142.66 393.088 139.433 391.754 136.068 391.754H136.067L116.157 391.755L116.158 404.83Z" fill="#2F2E41"/>
<path d="M154.867 230.317L149.128 321.589L129.857 385.836L114.927 386.915L122.424 308.616L119.137 256.618C119.137 256.618 103.553 245.024 112.17 231.068L154.867 230.317Z" fill="#2F2E41"/>
<path d="M123.754 244.451C140.97 244.451 161.233 233.95 162.408 233.333L162.734 233.162L123.221 132.552L103.652 123.325C102.145 122.615 100.476 122.319 98.8162 122.467C97.1564 122.616 95.5664 123.204 94.2103 124.171C92.8542 125.137 91.7811 126.448 91.102 127.967C90.4228 129.485 90.162 131.158 90.3466 132.811L98.1122 202.342L106.218 238.355L106.305 238.439C110.778 242.851 117.035 244.451 123.754 244.451Z" fill="#3F3D56"/>
<path d="M186.894 177.85C185.87 177.202 184.717 176.786 183.514 176.631C182.312 176.476 181.09 176.586 179.935 176.954C178.78 177.321 177.72 177.937 176.829 178.758C175.938 179.578 175.239 180.584 174.78 181.704L145.355 180.099L153.076 193.298L179.834 192.798C181.77 193.444 183.875 193.358 185.752 192.557C187.629 191.756 189.146 190.296 190.017 188.454C190.887 186.611 191.05 184.514 190.474 182.56C189.899 180.605 188.625 178.929 186.894 177.85Z" fill="#FFB6B6"/>
<path d="M128.827 198.511L158.314 197.76L157.934 178.292L143.991 173.862L121.119 141.846C119.974 140.243 118.519 138.885 116.839 137.853C115.159 136.821 113.288 136.135 111.338 135.837C109.389 135.539 107.399 135.634 105.486 136.117C103.574 136.6 101.778 137.461 100.204 138.648C98.6307 139.836 97.3118 141.326 96.3254 143.031C95.339 144.736 94.7053 146.621 94.4615 148.575C94.2178 150.529 94.369 152.512 94.9062 154.406C95.4435 156.301 96.3559 158.068 97.5895 159.605L128.827 198.511Z" fill="#3F3D56"/>
<path d="M111.754 119.618C100.933 119.618 92.1612 110.863 92.1612 100.063C92.1612 89.2623 100.933 80.507 111.754 80.507C122.575 80.507 131.348 89.2623 131.348 100.063C131.348 110.863 122.575 119.618 111.754 119.618Z" fill="#FFB6B6"/>
<path d="M136.543 83.7663C134.565 81.7427 131.995 80.3971 129.203 79.9227C126.482 79.3383 123.497 79.1573 121.32 77.4536C118.846 75.4865 117.757 71.7499 114.723 70.9186C113.403 70.6538 112.035 70.7621 110.773 71.2314C105.924 72.6913 101.619 75.5559 98.4034 79.4618C97.6456 80.5811 96.6798 81.545 95.5584 82.3013C94.8877 82.5847 94.2326 82.9034 93.5958 83.256C92.8971 83.8063 92.3472 84.5221 91.996 85.3383C89.808 89.7468 89.3038 94.7997 90.5776 99.5523C91.3363 102.359 92.7052 104.96 93.5133 107.783C94.3214 110.606 98.059 115.976 98.9331 114.643C99.8072 113.309 100.929 112.067 101.407 110.527C102.34 107.5 101.497 104.453 103.871 102.351C105.339 101.05 107.994 100.178 108.992 101.857C109.387 102.507 109.363 103.33 109.701 104.005C110.369 105.322 112.298 105.585 113.577 104.828C114.809 103.979 115.674 102.698 116.001 101.239C117.922 94.7539 121.196 90.6716 128.148 93.4453C130.737 94.4823 133.788 95.1819 136.279 93.4041C139.561 91.0667 138.893 86.433 136.543 83.7663Z" fill="#2F2E41"/>
<path d="M180.541 259.668H213.088C213.969 259.667 214.814 259.317 215.437 258.695C216.06 258.073 216.411 257.229 216.412 256.35V122.154C216.411 121.274 216.06 120.431 215.437 119.809C214.814 119.187 213.969 118.837 213.088 118.836H180.541C179.66 118.837 178.815 119.187 178.192 119.809C177.569 120.431 177.218 121.274 177.217 122.154V256.35C177.218 257.229 177.569 258.073 178.192 258.695C178.815 259.317 179.66 259.667 180.541 259.668Z" fill="#83B92F"/>
<path d="M187.718 189.372C186.695 188.724 185.541 188.308 184.339 188.153C183.136 187.999 181.915 188.109 180.76 188.476C179.605 188.844 178.544 189.46 177.654 190.28C176.763 191.101 176.063 192.106 175.604 193.226L146.18 191.622L153.9 204.821L180.658 204.321C182.594 204.966 184.7 204.88 186.576 204.08C188.453 203.279 189.97 201.819 190.841 199.977C191.711 198.134 191.874 196.037 191.298 194.082C190.723 192.128 189.449 190.452 187.719 189.372H187.718Z" fill="#FFB6B6"/>
<path d="M129.651 210.033L159.139 209.282L158.758 189.815L144.815 185.385L121.944 153.368C120.798 151.765 119.343 150.407 117.663 149.375C115.983 148.343 114.113 147.658 112.163 147.36C110.213 147.062 108.223 147.157 106.31 147.64C104.398 148.123 102.602 148.983 101.028 150.171C99.4549 151.358 98.136 152.849 97.1496 154.554C96.1633 156.259 95.5295 158.144 95.2857 160.098C95.042 162.052 95.1932 164.034 95.7305 165.929C96.2677 167.823 97.1802 169.591 98.4138 171.127L129.651 210.033Z" fill="#3F3D56"/>
<path d="M0.824524 406H315.009C315.117 406 315.225 405.979 315.325 405.938C315.426 405.897 315.517 405.836 315.594 405.76C315.67 405.683 315.731 405.593 315.773 405.493C315.815 405.393 315.836 405.285 315.836 405.177C315.836 405.069 315.815 404.962 315.773 404.862C315.731 404.761 315.67 404.671 315.594 404.594C315.517 404.518 315.426 404.457 315.325 404.416C315.225 404.375 315.117 404.354 315.009 404.354H0.824524C0.716034 404.354 0.608551 404.375 0.508209 404.416C0.407898 404.457 0.316742 404.518 0.239899 404.594C0.163086 404.671 0.102081 404.761 0.0605164 404.862C0.0189209 404.962 -0.00247192 405.069 -0.00247192 405.177C-0.00247192 405.285 0.0189209 405.393 0.0605164 405.493C0.102081 405.593 0.163086 405.683 0.239899 405.76C0.316742 405.836 0.407898 405.897 0.508209 405.938C0.608551 405.979 0.716034 406 0.824524 406Z" fill="#CACACA"/>
</g>
<defs>
<clipPath id="clip0_8151_1581">
<rect width="542" height="406" fill="white" transform="matrix(-1 0 0 1 542 0)"/>
</clipPath>
</defs>
</svg>
