<svg width="684" height="406" viewBox="0 0 684 406" fill="none" xmlns="http://www.w3.org/2000/svg">
<path d="M496.096 195.187C497.086 194.514 498.212 194.067 499.393 193.877C500.575 193.687 501.784 193.759 502.935 194.087C504.085 194.415 505.15 194.991 506.055 195.776C506.959 196.561 507.68 197.534 508.168 198.628L526.866 198.134L529.937 209.433L503.522 209.759C501.632 210.457 499.551 210.437 497.675 209.702C495.799 208.968 494.257 207.57 493.342 205.774C492.426 203.978 492.201 201.908 492.709 199.956C493.217 198.005 494.422 196.308 496.096 195.187L496.096 195.187Z" fill="#FFB8B8"/>
<path d="M517.069 213.248C515.903 212.161 515.195 210.67 515.088 209.08L514.34 197.848C514.271 196.82 514.456 195.79 514.88 194.852C515.305 193.913 515.954 193.093 516.771 192.466L546.917 169.287L564.441 147.998C566.217 145.846 568.745 144.453 571.511 144.099C574.277 143.746 577.074 144.461 579.333 146.097L579.333 146.097C580.508 146.951 581.502 148.031 582.256 149.273C583.011 150.515 583.511 151.894 583.728 153.332C583.945 154.769 583.874 156.235 583.52 157.644C583.166 159.054 582.535 160.379 581.664 161.542L561.252 188.815L546.721 204.216C542.101 209.09 536.051 212.364 529.448 213.566L522.437 214.826C521.57 214.982 520.681 214.952 519.827 214.741C518.972 214.529 518.172 214.139 517.479 213.597C517.336 213.486 517.2 213.37 517.069 213.248Z" fill="#83B92F"/>
<path d="M655.202 389.083L645.52 391.503L631.586 355.28L645.876 351.708L655.202 389.083Z" fill="#FFB8B8"/>
<path d="M637.915 390.463L656.588 385.796L659.524 397.563L629.094 405.168C628.709 403.623 628.631 402.017 628.866 400.442C629.1 398.866 629.643 397.353 630.462 395.987C631.281 394.622 632.361 393.431 633.639 392.483C634.918 391.536 636.371 390.849 637.915 390.463Z" fill="#2F2E41"/>
<path d="M567.818 395.894L557.839 395.893L553.094 357.369L567.822 357.37L567.818 395.894Z" fill="#FFB8B8"/>
<path d="M550.712 393.039H569.958V405.167H538.594C538.594 403.574 538.907 401.997 539.516 400.526C540.125 399.054 541.018 397.717 542.143 396.591C543.268 395.465 544.604 394.572 546.074 393.962C547.545 393.353 549.12 393.039 550.712 393.039Z" fill="#2F2E41"/>
<path d="M563.491 117.834C575.332 117.834 584.931 108.228 584.931 96.377C584.931 84.5265 575.332 74.9197 563.491 74.9197C551.65 74.9197 542.051 84.5265 542.051 96.377C542.051 108.228 551.65 117.834 563.491 117.834Z" fill="#FFB8B8"/>
<path d="M563.451 97.1378C563.491 94.2678 568.426 93.9082 569.963 96.3543C571.5 98.8004 570.514 101.992 569.16 104.539C567.75 107.19 565.921 109.868 566.203 112.88C566.3 113.64 566.587 114.363 567.039 114.982C567.49 115.601 568.09 116.096 568.784 116.42C569.478 116.745 570.242 116.888 571.006 116.837C571.771 116.786 572.509 116.542 573.154 116.128C580.157 111.813 586.069 105.531 588.684 97.8755C591.435 89.8237 590.061 80.2253 584.111 74.039C578.161 67.8528 567.494 66.103 560.432 71.0484L548.377 62.8315C548.093 62.6315 547.755 62.5242 547.407 62.5245C547.06 62.5248 546.722 62.6326 546.438 62.8331C546.155 63.0337 545.94 63.3171 545.824 63.6445C545.708 63.9719 545.696 64.3273 545.789 64.6618L547.552 70.3952L541.464 68.8622C541.204 68.7901 540.929 68.7981 540.674 68.8852C540.419 68.9723 540.196 69.1343 540.034 69.3501C539.873 69.566 539.78 69.8256 539.769 70.0949C539.757 70.3643 539.827 70.6309 539.969 70.8599L542.06 74.11C539.272 71.8147 534.456 74.4305 534.057 77.9705C533.657 81.5105 536.532 84.7737 539.912 86.1072C543.293 87.4408 547.068 87.289 550.71 87.1164C550.317 88.8795 550.49 90.7216 551.205 92.3804C551.919 94.0392 553.138 95.4301 554.688 96.3551C557.838 98.1817 562.186 97.7512 563.451 97.1378Z" fill="#2F2E41"/>
<path d="M568.096 379.625C568.055 379.625 568.014 379.625 567.972 379.623L552.558 379.143C552.034 379.126 551.519 379.005 551.044 378.787C550.568 378.568 550.14 378.257 549.786 377.871C549.432 377.485 549.159 377.032 548.982 376.539C548.806 376.046 548.729 375.522 548.758 374.999L556.467 233.325L615.704 250.137L654.548 371.382C654.734 371.963 654.782 372.58 654.689 373.183C654.596 373.786 654.364 374.36 654.011 374.857C653.658 375.355 653.195 375.764 652.657 376.051C652.119 376.339 651.521 376.497 650.911 376.513L633.158 376.985C632.356 377.001 631.568 376.774 630.898 376.332C630.229 375.891 629.708 375.257 629.406 374.514L589.451 274.489C589.344 274.221 589.153 273.996 588.905 273.849C588.658 273.702 588.369 273.64 588.083 273.674C587.797 273.707 587.53 273.834 587.324 274.035C587.117 274.235 586.982 274.498 586.94 274.783L571.98 376.268C571.843 377.201 571.375 378.053 570.662 378.669C569.949 379.286 569.038 379.625 568.096 379.625Z" fill="#2F2E41"/>
<path d="M612.828 268.869C608.62 268.866 604.521 267.532 601.115 265.059L582.054 251.289C577.871 248.274 573.026 246.309 567.927 245.559L558.755 244.221C557.347 244.018 556.064 243.299 555.157 242.203C554.249 241.107 553.781 239.713 553.843 238.29L557.499 150.709L555.329 138.224C555.154 137.206 555.274 136.16 555.675 135.208C556.076 134.256 556.742 133.44 557.593 132.855L574.581 121.223C575.919 120.307 577.53 119.877 579.146 120.004L579.767 120.053C581.507 120.189 583.159 120.87 584.491 121.998C585.823 123.126 586.767 124.645 587.189 126.339L587.84 128.947L599.143 149.056C602.483 154.999 604.993 161.372 606.604 167.997L617.319 212.063C618.25 215.897 618.895 219.794 619.247 223.724L622.796 263.351C622.877 264.208 622.677 265.069 622.227 265.803C621.777 266.537 621.101 267.105 620.3 267.421C617.924 268.375 615.388 268.867 612.828 268.869Z" fill="#83B92F"/>
<path d="M577.272 237.132C577.039 235.957 577.066 234.746 577.351 233.583C577.636 232.419 578.173 231.333 578.923 230.4C579.673 229.467 580.618 228.709 581.692 228.181C582.766 227.653 583.943 227.368 585.139 227.344L591.965 209.915L603.56 211.483L593.575 235.961C593.482 237.975 592.653 239.885 591.246 241.328C589.84 242.772 587.953 243.649 585.943 243.793C583.934 243.938 581.941 243.339 580.343 242.112C578.745 240.884 577.652 239.112 577.272 237.132Z" fill="#FFB8B8"/>
<path d="M602.059 224.831C600.605 225.483 598.957 225.556 597.452 225.034L586.824 221.35C585.85 221.014 584.975 220.442 584.276 219.686C583.577 218.929 583.076 218.012 582.817 217.014L573.222 180.199L560.453 155.756C559.164 153.281 558.865 150.408 559.618 147.721C560.37 145.034 562.116 142.734 564.502 141.289L564.502 141.289C565.745 140.538 567.126 140.042 568.562 139.83C569.999 139.618 571.464 139.694 572.871 140.053C574.278 140.413 575.6 141.049 576.759 141.925C577.919 142.8 578.892 143.897 579.624 145.153L596.776 174.588L605.293 193.981C607.979 200.137 608.637 206.989 607.172 213.544L605.602 220.498C605.408 221.357 605.034 222.165 604.507 222.87C603.979 223.576 603.309 224.161 602.54 224.59C602.383 224.678 602.222 224.758 602.059 224.831Z" fill="#83B92F"/>
<path d="M488.832 317.823H15.411C11.5924 317.818 7.93138 316.298 5.23119 313.596C2.53099 310.893 1.01213 307.229 1.00781 303.408V36.2509H503.236V303.408C503.231 307.229 501.713 310.893 499.012 313.596C496.312 316.298 492.651 317.818 488.832 317.823Z" fill="#E6E6E6"/>
<path d="M469.991 290.23H34.2499C32.2827 290.228 30.3968 289.445 29.0058 288.053C27.6147 286.661 26.8323 284.773 26.8301 282.804V71.2683C26.8323 69.2995 27.6147 67.412 29.0058 66.0199C30.3968 64.6277 32.2827 63.8446 34.2499 63.8424H469.991C471.958 63.8446 473.844 64.6277 475.235 66.0198C476.626 67.412 477.409 69.2995 477.411 71.2683V282.804C477.409 284.773 476.626 286.661 475.235 288.053C473.844 289.445 471.958 290.228 469.991 290.23Z" fill="white"/>
<path d="M504.243 45.9885H0V34.4149C0.00431124 30.5932 1.52318 26.9292 4.22337 24.2268C6.92357 21.5244 10.5846 20.0043 14.4032 20H489.84C493.659 20.0043 497.32 21.5244 500.02 24.2268C502.72 26.9292 504.239 30.5932 504.243 34.4149V45.9885Z" fill="#3F3D56"/>
<path d="M145.124 105.359H67.5644C65.5969 105.36 63.7104 106.143 62.3192 107.535C60.928 108.928 60.1458 110.816 60.1445 112.785V163.805C60.1458 165.774 60.928 167.662 62.3192 169.055C63.7104 170.447 65.5969 171.23 67.5644 171.231H145.124C147.091 171.228 148.976 170.445 150.367 169.053C151.758 167.661 152.541 165.774 152.544 163.805V112.785C152.541 110.816 151.758 108.929 150.367 107.537C148.976 106.145 147.091 105.362 145.124 105.359Z" fill="#E6E6E6"/>
<path d="M290.903 105.359H213.344C211.376 105.36 209.49 106.143 208.098 107.535C206.707 108.928 205.925 110.816 205.924 112.785V163.805C205.925 165.774 206.707 167.662 208.098 169.055C209.49 170.447 211.376 171.23 213.344 171.231H290.903C292.87 171.228 294.756 170.445 296.147 169.053C297.537 167.661 298.32 165.774 298.323 163.805V112.785C298.32 110.816 297.537 108.929 296.147 107.537C294.756 106.145 292.87 105.362 290.903 105.359Z" fill="#E6E6E6"/>
<path d="M436.68 105.359H359.121C357.154 105.36 355.267 106.143 353.876 107.535C352.485 108.928 351.702 110.816 351.701 112.785V163.805C351.702 165.774 352.485 167.662 353.876 169.055C355.267 170.447 357.154 171.23 359.121 171.231H436.68C438.647 171.228 440.533 170.445 441.924 169.053C443.315 167.661 444.097 165.774 444.1 163.805V112.785C444.097 110.816 443.315 108.929 441.924 107.537C440.533 106.145 438.647 105.362 436.68 105.359Z" fill="#E6E6E6"/>
<path d="M134.153 195.343H78.5386C77.4447 195.343 76.3956 195.778 75.6221 196.552C74.8486 197.326 74.4141 198.376 74.4141 199.471C74.4141 200.566 74.8486 201.616 75.6221 202.39C76.3956 203.164 77.4447 203.599 78.5386 203.599H134.153C135.246 203.599 136.296 203.164 137.069 202.39C137.843 201.616 138.277 200.566 138.277 199.471C138.277 198.376 137.843 197.326 137.069 196.552C136.296 195.778 135.246 195.343 134.153 195.343Z" fill="#E6E6E6"/>
<path d="M134.151 217.901H78.5375C77.5935 217.899 76.6774 218.221 75.9426 218.814C75.2077 219.408 74.6985 220.235 74.5002 221.159C74.3019 222.083 74.4264 223.046 74.8529 223.889C75.2795 224.732 75.9822 225.403 76.8436 225.789C77.3754 226.032 77.9531 226.157 78.5375 226.156H134.151C135.245 226.156 136.294 225.721 137.068 224.947C137.841 224.173 138.276 223.123 138.276 222.028C138.276 220.934 137.841 219.884 137.068 219.11C136.294 218.335 135.245 217.901 134.151 217.901Z" fill="#E6E6E6"/>
<path d="M134.153 240.458H78.5386C77.4447 240.458 76.3956 240.893 75.6221 241.667C74.8486 242.441 74.4141 243.491 74.4141 244.586C74.4141 245.68 74.8486 246.73 75.6221 247.505C76.3956 248.279 77.4447 248.714 78.5386 248.714H134.153C135.246 248.714 136.296 248.279 137.069 247.505C137.843 246.73 138.277 245.68 138.277 244.586C138.277 243.491 137.843 242.441 137.069 241.667C136.296 240.893 135.246 240.458 134.153 240.458Z" fill="#E6E6E6"/>
<path d="M279.932 195.343H224.318C223.224 195.343 222.175 195.778 221.401 196.552C220.628 197.326 220.193 198.376 220.193 199.471C220.193 200.566 220.628 201.616 221.401 202.39C222.175 203.164 223.224 203.599 224.318 203.599H279.932C281.026 203.599 282.075 203.164 282.848 202.39C283.622 201.616 284.056 200.566 284.056 199.471C284.056 198.376 283.622 197.326 282.848 196.552C282.075 195.778 281.026 195.343 279.932 195.343Z" fill="#E6E6E6"/>
<path d="M279.932 217.901H224.318C223.224 217.901 222.175 218.335 221.401 219.11C220.628 219.884 220.193 220.934 220.193 222.028C220.193 223.123 220.628 224.173 221.401 224.947C222.175 225.721 223.224 226.156 224.318 226.156H279.932C281.026 226.156 282.075 225.721 282.848 224.947C283.622 224.173 284.056 223.123 284.056 222.028C284.056 220.934 283.622 219.884 282.848 219.11C282.075 218.335 281.026 217.901 279.932 217.901Z" fill="#E6E6E6"/>
<path d="M279.929 240.458H224.315C223.334 240.457 222.385 240.805 221.638 241.441C220.891 242.076 220.395 242.957 220.239 243.926C220.082 244.895 220.275 245.888 220.784 246.727C221.293 247.565 222.083 248.196 223.014 248.504C223.433 248.645 223.873 248.716 224.315 248.714H279.929C281.023 248.714 282.072 248.279 282.845 247.505C283.619 246.73 284.053 245.68 284.053 244.586C284.053 243.491 283.619 242.441 282.845 241.667C282.072 240.893 281.023 240.458 279.929 240.458Z" fill="#E6E6E6"/>
<path d="M425.707 195.343H370.093C368.999 195.343 367.95 195.778 367.177 196.552C366.403 197.326 365.969 198.376 365.969 199.471C365.969 200.566 366.403 201.616 367.177 202.39C367.95 203.164 368.999 203.599 370.093 203.599H425.707C426.801 203.599 427.85 203.164 428.624 202.39C429.397 201.616 429.832 200.566 429.832 199.471C429.832 198.376 429.397 197.326 428.624 196.552C427.85 195.778 426.801 195.343 425.707 195.343Z" fill="#E6E6E6"/>
<path d="M425.708 217.901H370.094C369.15 217.899 368.234 218.221 367.499 218.814C366.764 219.408 366.255 220.235 366.057 221.159C365.859 222.083 365.983 223.046 366.41 223.889C366.836 224.732 367.539 225.403 368.4 225.789C368.932 226.032 369.51 226.157 370.094 226.156H425.708C426.802 226.156 427.851 225.721 428.625 224.947C429.398 224.173 429.833 223.123 429.833 222.028C429.833 220.934 429.398 219.884 428.625 219.11C427.851 218.335 426.802 217.901 425.708 217.901Z" fill="#E6E6E6"/>
<path d="M425.707 240.458H370.093C368.999 240.458 367.95 240.893 367.177 241.667C366.403 242.441 365.969 243.491 365.969 244.586C365.969 245.68 366.403 246.73 367.177 247.505C367.95 248.279 368.999 248.714 370.093 248.714H425.707C426.801 248.714 427.85 248.279 428.624 247.505C429.397 246.73 429.832 245.68 429.832 244.586C429.832 243.491 429.397 242.441 428.624 241.667C427.85 240.893 426.801 240.458 425.707 240.458Z" fill="#E6E6E6"/>
<path d="M16.5203 36.8893C18.5854 36.8893 20.2594 35.2139 20.2594 33.1472C20.2594 31.0804 18.5854 29.405 16.5203 29.405C14.4553 29.405 12.7812 31.0804 12.7812 33.1472C12.7812 35.2139 14.4553 36.8893 16.5203 36.8893Z" fill="white"/>
<path d="M30.7137 36.8893C32.7788 36.8893 34.4528 35.2139 34.4528 33.1472C34.4528 31.0804 32.7788 29.405 30.7137 29.405C28.6487 29.405 26.9746 31.0804 26.9746 33.1472C26.9746 35.2139 28.6487 36.8893 30.7137 36.8893Z" fill="white"/>
<path d="M44.9051 36.8893C46.9702 36.8893 48.6442 35.2139 48.6442 33.1472C48.6442 31.0804 46.9702 29.405 44.9051 29.405C42.8401 29.405 41.166 31.0804 41.166 33.1472C41.166 35.2139 42.8401 36.8893 44.9051 36.8893Z" fill="white"/>
<path d="M118.326 195.343H78.5386C77.4447 195.343 76.3956 195.778 75.6221 196.552C74.8486 197.326 74.4141 198.376 74.4141 199.471C74.4141 200.566 74.8486 201.616 75.6221 202.39C76.3956 203.164 77.4447 203.599 78.5386 203.599H117.497C118.285 203.276 118.971 202.744 119.48 202.061C119.99 201.378 120.304 200.569 120.389 199.72C120.474 198.872 120.327 198.017 119.964 197.246C119.6 196.475 119.034 195.817 118.326 195.343Z" fill="#83B92F"/>
<path d="M99.9501 217.901H78.5375C77.5935 217.899 76.6774 218.221 75.9426 218.814C75.2077 219.408 74.6985 220.235 74.5002 221.159C74.3019 222.083 74.4264 223.046 74.853 223.889C75.2795 224.732 75.9822 225.403 76.8437 225.789H96.5109C97.7563 225.789 98.9505 225.294 99.8311 224.412C100.712 223.531 101.207 222.336 101.207 221.089C101.214 219.904 100.764 218.762 99.9501 217.901Z" fill="#83B92F"/>
<path d="M129.997 240.458H78.5386C77.4447 240.458 76.3956 240.893 75.6221 241.667C74.8486 242.441 74.4141 243.491 74.4141 244.586C74.4141 245.68 74.8486 246.73 75.6221 247.505C76.3956 248.279 77.4447 248.714 78.5386 248.714H130.329C131.058 248.283 131.657 247.662 132.063 246.918C132.468 246.174 132.664 245.333 132.63 244.486C132.596 243.64 132.333 242.818 131.869 242.108C131.406 241.399 130.759 240.828 129.997 240.458Z" fill="#83B92F"/>
<path d="M383.79 195.343H370.094C369.181 195.342 368.293 195.645 367.57 196.203C366.847 196.761 366.329 197.544 366.099 198.429C365.868 199.313 365.937 200.249 366.295 201.09C366.653 201.931 367.28 202.629 368.078 203.075H380.211C381.457 203.074 382.651 202.579 383.531 201.698C384.412 200.816 384.907 199.621 384.907 198.375C384.911 197.263 384.515 196.186 383.79 195.343Z" fill="#83B92F"/>
<path d="M394.126 217.901H370.094C369.15 217.899 368.234 218.221 367.499 218.814C366.764 219.408 366.255 220.235 366.057 221.159C365.858 222.083 365.983 223.046 366.41 223.889C366.836 224.732 367.539 225.403 368.4 225.789H390.686C391.932 225.789 393.126 225.294 394.007 224.412C394.887 223.531 395.382 222.336 395.383 221.089C395.389 219.904 394.939 218.762 394.126 217.901Z" fill="#83B92F"/>
<path d="M411.077 240.458H370.093C368.999 240.458 367.95 240.893 367.177 241.667C366.403 242.441 365.969 243.491 365.969 244.586C365.969 245.68 366.403 246.73 367.177 247.505C367.95 248.279 368.999 248.714 370.093 248.714H411.408C412.138 248.283 412.737 247.662 413.142 246.918C413.547 246.174 413.743 245.333 413.709 244.486C413.675 243.64 413.413 242.818 412.949 242.108C412.485 241.399 411.838 240.828 411.077 240.458Z" fill="#83B92F"/>
<path d="M276.065 217.901H224.318C223.224 217.901 222.175 218.335 221.401 219.11C220.628 219.884 220.193 220.934 220.193 222.028C220.193 223.123 220.628 224.173 221.401 224.947C222.175 225.721 223.224 226.156 224.318 226.156H275.829C276.585 225.776 277.225 225.199 277.679 224.484C278.134 223.77 278.387 222.946 278.411 222.099C278.435 221.252 278.23 220.415 277.817 219.676C277.403 218.937 276.798 218.323 276.065 217.901Z" fill="#83B92F"/>
<path d="M229.867 240.458H224.315C223.334 240.457 222.385 240.805 221.638 241.441C220.891 242.076 220.395 242.957 220.239 243.926C220.082 244.895 220.275 245.888 220.784 246.727C221.293 247.565 222.083 248.196 223.014 248.504H226.576C227.821 248.503 229.015 248.008 229.896 247.127C230.776 246.245 231.271 245.05 231.272 243.804C231.274 243.18 231.151 242.563 230.909 241.988C230.668 241.413 230.313 240.892 229.867 240.458Z" fill="#83B92F"/>
<path d="M254.503 195.343H224.318C223.224 195.343 222.175 195.778 221.401 196.552C220.628 197.326 220.193 198.376 220.193 199.471C220.193 200.566 220.628 201.616 221.401 202.39C222.175 203.164 223.224 203.599 224.318 203.599H253.674C254.462 203.276 255.148 202.744 255.657 202.061C256.167 201.378 256.481 200.569 256.566 199.72C256.651 198.872 256.504 198.017 256.141 197.246C255.778 196.475 255.211 195.817 254.503 195.343Z" fill="#83B92F"/>
<path d="M683.127 406H493.703C493.471 406 493.249 405.908 493.086 405.744C492.922 405.58 492.83 405.358 492.83 405.126C492.83 404.895 492.922 404.672 493.086 404.509C493.249 404.345 493.471 404.253 493.703 404.253H683.127C683.359 404.253 683.581 404.345 683.745 404.509C683.908 404.672 684 404.895 684 405.126C684 405.358 683.908 405.58 683.745 405.744C683.581 405.908 683.359 406 683.127 406Z" fill="#CCCCCC"/>
</svg>
