<svg width="527" height="448" viewBox="0 0 527 448" fill="none" xmlns="http://www.w3.org/2000/svg">
<g clip-path="url(#clip0_8118_2931)">
<path d="M63.6773 431.333C57.915 442.525 45.322 447.526 45.322 447.526C45.322 447.526 42.0715 434.38 47.8337 423.188C53.596 411.996 66.1891 406.996 66.1891 406.996C66.1891 406.996 69.4396 420.141 63.6773 431.333Z" fill="#F1F1F1"/>
<path d="M59.4965 427.769C48.8314 434.465 44.9252 447.431 44.9252 447.431C44.9252 447.431 58.3106 449.541 68.9756 442.845C79.6407 436.148 83.5469 423.182 83.5469 423.182C83.5469 423.182 70.1616 421.073 59.4965 427.769Z" fill="#F1F1F1"/>
<path d="M209.364 439.778H216.844L220.401 410.951L209.363 410.951L209.364 439.778Z" fill="#FFB7B7"/>
<path d="M207.457 447.022L231.572 447.021V446.716C231.572 444.229 230.583 441.843 228.823 440.084C227.063 438.325 224.675 437.337 222.186 437.337H222.185L207.456 437.337L207.457 447.022Z" fill="#2F2E41"/>
<path d="M163 439.778H170.479L174.037 410.951L162.999 410.951L163 439.778Z" fill="#FFB7B7"/>
<path d="M161.094 447.022L185.21 447.021V446.716C185.21 444.229 184.221 441.843 182.461 440.084C180.7 438.325 178.313 437.337 175.824 437.337H175.823L161.094 437.337L161.094 447.022Z" fill="#2F2E41"/>
<path d="M184.718 277.405L199.433 247.815L195.644 223.27L213.335 218.394L215.165 251.312L192.222 282.468C192.387 283.634 192.21 284.824 191.712 285.892C191.214 286.961 190.417 287.862 189.417 288.486C188.417 289.111 187.257 289.432 186.078 289.412C184.899 289.391 183.751 289.029 182.773 288.37C181.796 287.71 181.031 286.782 180.571 285.697C180.11 284.612 179.975 283.417 180.181 282.256C180.387 281.096 180.925 280.02 181.73 279.159C182.536 278.298 183.573 277.689 184.718 277.406V277.405Z" fill="#FFB7B7"/>
<path d="M152.885 277.405L138.17 247.815L141.959 223.27L124.268 218.394L122.438 251.312L145.381 282.468C145.216 283.634 145.393 284.824 145.891 285.892C146.389 286.961 147.186 287.862 148.186 288.486C149.186 289.111 150.346 289.432 151.525 289.412C152.704 289.391 153.852 289.029 154.83 288.37C155.807 287.71 156.572 286.782 157.032 285.697C157.493 284.612 157.628 283.417 157.422 282.256C157.216 281.096 156.678 280.02 155.873 279.159C155.067 278.298 154.03 277.689 152.885 277.406V277.405Z" fill="#FFB7B7"/>
<path d="M162.705 176.275C153.816 176.275 146.61 169.074 146.61 160.191C146.61 151.309 153.816 144.108 162.705 144.108C171.594 144.108 178.8 151.309 178.8 160.191C178.8 169.074 171.594 176.275 162.705 176.275Z" fill="#FFB9B9"/>
<path d="M178.681 160.105C178.681 160.105 180.427 157.488 179.755 154.669C179.354 153.068 179.196 151.417 179.285 149.769C178.534 147.328 177.591 144.949 176.464 142.655C175.054 140.105 175.726 139.031 171.293 138.226C166.86 137.42 168.673 131.648 156.987 137.89C156.593 138.44 156.044 138.861 155.41 139.1C154.777 139.339 154.087 139.385 153.427 139.232C151.009 138.763 150.136 142.118 150.136 142.118C150.136 142.118 148.524 141.179 147.92 142.521C147.315 143.863 143.005 141.715 143.005 150.776C143.005 159.837 147.91 167.93 147.91 167.93C147.91 167.93 151.354 178.789 159.347 177.246C167.339 175.702 168.497 176.636 173.988 166.273C175.112 169.512 176.837 157.214 178.681 160.105Z" fill="#2F2E41"/>
<path d="M198.083 264.113L199.949 271.425C199.949 271.425 208.738 275.669 212.256 313.783L216.994 370.93L224.226 430.821L209.193 431.986L198.77 394.043L176.251 314.261L171.98 374.617L176.731 429.315L160.87 429.925L149.889 368.965C149.889 368.965 133.067 279.674 143.918 277.075L145.009 267.771L198.083 264.113Z" fill="#2F2E41"/>
<path d="M201.563 195.389L175.67 181.131L153.695 182.303L127.448 197.828L138.388 266.098C138.388 266.098 132.117 273.104 151.069 271.047C170.021 268.99 200.653 267.322 200.653 267.322C200.653 267.322 203.117 262.437 197.855 261.751C192.593 261.066 196.993 261.226 196.993 261.226C196.993 261.226 200.173 251.023 196.993 249.034L195.454 228.08L201.563 195.389Z" fill="#3F3D56"/>
<path d="M194.423 196.448L201.564 195.389L216.69 222.356L192.113 233.184L194.423 196.448Z" fill="#3F3D56"/>
<path d="M135.858 201.325L127.447 197.828L119.082 235.767L141.783 240.063L135.858 201.325Z" fill="#3F3D56"/>
<path d="M330.046 448.001H0.673492C0.494873 448.001 0.323547 447.93 0.197235 447.804C0.0709229 447.678 -6.10352e-05 447.506 -6.10352e-05 447.328C-6.10352e-05 447.149 0.0709229 446.978 0.197235 446.851C0.323547 446.725 0.494873 446.654 0.673492 446.654H330.046C330.225 446.654 330.396 446.725 330.522 446.851C330.649 446.978 330.72 447.149 330.72 447.328C330.72 447.506 330.649 447.678 330.522 447.804C330.396 447.93 330.225 448.001 330.046 448.001Z" fill="#CBCBCB"/>
<path d="M365.344 267.617H450.887V310.694H365.344V267.617Z" fill="white"/>
<path d="M375.45 278.644H440.779V280.857H375.45V278.644Z" fill="#83B92F"/>
<path d="M375.45 288.049H440.779V290.262H375.45V288.049Z" fill="#83B92F"/>
<path d="M375.45 297.454H440.779V299.667H375.45V297.454Z" fill="#83B92F"/>
<path d="M364.672 311.367H451.562V266.944H364.672V311.367ZM450.214 310.021H366.019V268.29H450.214V310.021Z" fill="#3F3D56"/>
<path d="M426.816 214.114C444.927 214.129 462.681 209.092 478.082 199.571L478.474 199.329L478.232 198.938L427.073 116.202H329.294V116.662C329.294 170.398 373.042 214.114 426.816 214.114Z" fill="#83B92F"/>
<path d="M489.55 178.984L489.864 178.79C507.125 168.125 519.568 151.181 524.572 131.528C529.575 111.875 526.748 91.0488 516.686 73.4379L516.503 73.1179L448.203 112.118L489.55 178.984Z" fill="#F1F1F1"/>
<path d="M329.294 103.149H427.39L406.243 7.41689L405.794 7.51551C384.104 12.3059 364.7 24.3496 350.79 41.6553C336.88 58.961 329.296 80.4923 329.294 102.689V103.149Z" fill="#83B92F"/>
<path d="M443.014 88.0717L509.479 50.1191L509.301 49.8075C501.243 35.7417 488.901 24.6147 474.073 18.0476C459.244 11.4805 442.705 9.81653 426.864 13.2981L426.513 13.3752L443.014 88.0717Z" fill="#F1F1F1"/>
<path d="M194.256 0.673264H279.799V43.7498H194.256V0.673264Z" fill="white"/>
<path d="M204.362 11.7001H269.691V13.9131H204.362V11.7001Z" fill="#83B92F"/>
<path d="M204.362 21.1051H269.691V23.318H204.362V21.1051Z" fill="#83B92F"/>
<path d="M204.362 30.51H269.691V32.7229H204.362V30.51Z" fill="#83B92F"/>
<path d="M193.584 44.4228H280.474V0.000106812H193.584V44.4228ZM279.127 43.0766H194.931V1.34625H279.127V43.0766Z" fill="#3F3D56"/>
<path d="M407.259 156.131H408.606V266.944H407.259V156.131Z" fill="#3F3D56"/>
<path d="M280.131 22.2615L381.261 67.9693L380.706 69.1958L279.576 23.488L280.131 22.2615Z" fill="#3F3D56"/>
</g>
<defs>
<clipPath id="clip0_8118_2931">
<rect width="527" height="448" fill="white" transform="matrix(-1 0 0 1 527 0)"/>
</clipPath>
</defs>
</svg>
