<svg width="606" height="406" viewBox="0 0 606 406" fill="none" xmlns="http://www.w3.org/2000/svg">
<g clip-path="url(#clip0_8137_3270)">
<path d="M482.76 179.673L484.559 165.253C485.198 160.129 487.847 155.468 491.922 152.296C495.998 149.125 501.166 147.702 506.291 148.341C511.415 148.981 516.076 151.63 519.247 155.705C522.418 159.781 523.841 164.95 523.202 170.074L521.403 184.494C521.316 185.182 520.96 185.808 520.413 186.234C519.866 186.66 519.172 186.851 518.483 186.766L485.032 182.592C484.344 182.506 483.718 182.15 483.292 181.602C482.866 181.055 482.675 180.361 482.76 179.673Z" fill="#2F2E41"/>
<path d="M498.783 183.975C506.667 183.975 513.059 177.583 513.059 169.699C513.059 161.814 506.667 155.422 498.783 155.422C490.899 155.422 484.508 161.814 484.508 169.699C484.508 177.583 490.899 183.975 498.783 183.975Z" fill="#FFB8B8"/>
<path d="M479.845 165.836C480.355 161.785 482.451 158.101 485.674 155.593C488.897 153.085 492.983 151.957 497.035 152.458L499.919 152.818C503.971 153.328 507.655 155.425 510.163 158.648C512.67 161.871 513.797 165.957 513.296 170.01L513.26 170.298L507.166 169.538L505.814 163.458L504.672 169.227L501.522 168.834L500.84 165.766L500.264 168.677L479.809 166.125L479.845 165.836Z" fill="#2F2E41"/>
<path d="M428.962 220.625C429.399 221.482 430.018 222.232 430.775 222.824C431.533 223.415 432.411 223.834 433.348 224.049C434.285 224.265 435.258 224.272 436.198 224.071C437.138 223.87 438.023 223.465 438.789 222.885L451.755 230.481L458.293 223.727L439.832 213.257C438.772 212.033 437.3 211.241 435.695 211.03C434.091 210.82 432.464 211.205 431.125 212.113C429.785 213.021 428.825 214.389 428.426 215.958C428.028 217.527 428.218 219.187 428.962 220.625Z" fill="#FFB8B8"/>
<path d="M471.458 234.274C461.894 234.274 445.064 229.992 444.132 229.753L443.838 229.678L446.487 216.266L472.193 221.344L486.158 201.677L502.191 200.047L501.743 200.636C501.535 200.91 480.867 228.119 477.651 232.683C476.839 233.834 474.521 234.274 471.458 234.274Z" fill="#3F3D56"/>
<path d="M474.023 284.611L473.64 284.429C473.559 284.39 465.433 280.437 461.224 272.721C457.036 265.041 476.644 232.462 478.016 230.202L478.036 219.856L485.089 200.81L494.085 195.726L486.362 213.748L474.023 284.611Z" fill="#3F3D56"/>
<path d="M465.012 395.81L456.414 395.809L452.323 362.645L465.013 362.646L465.012 395.81Z" fill="#FFB8B8"/>
<path d="M467.203 404.144L439.48 404.143V403.793C439.481 400.931 440.618 398.186 442.641 396.163C444.665 394.139 447.409 393.002 450.271 393.002H450.271L467.203 393.003L467.203 404.144Z" fill="#2F2E41"/>
<path d="M557.358 388.275L549.188 390.952L534.975 360.711L547.033 356.76L557.358 388.275Z" fill="#FFB8B8"/>
<path d="M562.037 395.512L535.692 404.144L535.583 403.811C534.692 401.091 534.918 398.129 536.211 395.576C537.504 393.023 539.758 391.088 542.477 390.197L542.478 390.196L558.568 384.924L562.037 395.512Z" fill="#2F2E41"/>
<path d="M540.712 382.853L516.203 341.933L495.513 298.216L476.895 336.833L469.499 386.849L443.561 387.209L443.663 386.804L483.356 229.075L514.444 233.72L513.028 254.241L513.871 255.439C520.894 265.416 528.155 275.731 523.99 286.851L535.796 321.908L561.929 380.281L540.712 382.853Z" fill="#2F2E41"/>
<path d="M484.777 263.259C480.272 263.259 475.132 258.116 477.799 249.334L477.626 249.209L484.03 220.913C478.441 212.92 485.81 206.323 486.5 205.733L490.018 199.402L505.537 189.559L513.389 254.805L513.273 254.916C507.602 260.342 488.555 263.259 484.777 263.259Z" fill="#83B92F"/>
<path d="M516.559 277.982C515.942 277.992 515.326 277.926 514.725 277.788C514.122 277.637 513.145 276.868 511.635 271.952C505.632 252.407 498.545 193.598 503.694 187.844L503.812 187.712L512.266 189.121C512.969 188.602 516.656 186.028 520.059 186.475C520.76 186.563 521.435 186.794 522.043 187.154C522.65 187.513 523.178 187.993 523.593 188.564L523.651 188.641L526.345 226.958L536.211 272.051L535.975 272.158C535.401 272.419 523.08 277.982 516.559 277.982Z" fill="#3F3D56"/>
<path d="M510.874 263.005C511.835 262.973 512.777 262.731 513.634 262.295C514.491 261.86 515.242 261.242 515.834 260.484C516.426 259.727 516.845 258.849 517.062 257.912C517.278 256.976 517.286 256.003 517.086 255.063L529.462 246.538L526.116 237.754L508.808 250.037C507.251 250.478 505.91 251.476 505.039 252.84C504.167 254.204 503.827 255.84 504.081 257.439C504.336 259.037 505.168 260.487 506.42 261.513C507.672 262.539 509.256 263.07 510.874 263.005Z" fill="#FFB8B8"/>
<path d="M525.377 253.369L514.354 245.284L529.849 224.153L517.958 203.168L523.278 187.954L523.622 188.609C523.782 188.915 539.662 219.168 542.432 224.016C545.314 229.06 526.378 252.154 525.57 253.134L525.377 253.369Z" fill="#3F3D56"/>
<path d="M277.415 348.476L268.033 344.526L261.597 297.491H175.891L168.914 344.334L160.521 348.531C160.119 348.731 159.797 349.062 159.607 349.469C159.417 349.875 159.369 350.335 159.472 350.772C159.575 351.209 159.823 351.598 160.175 351.877C160.527 352.155 160.963 352.307 161.412 352.307H276.642C277.102 352.307 277.548 352.148 277.904 351.856C278.26 351.565 278.505 351.159 278.596 350.708C278.687 350.257 278.619 349.788 278.404 349.381C278.189 348.975 277.839 348.655 277.415 348.476Z" fill="#E6E6E6"/>
<path d="M429.722 303.749H8.70716C6.49822 303.744 4.38144 302.863 2.82122 301.299C1.26101 299.735 0.38478 297.617 0.384766 295.408V236.035H438.044V295.408C438.044 297.617 437.168 299.735 435.608 301.299C434.048 302.863 431.931 303.744 429.722 303.749Z" fill="#CCCCCC"/>
<path d="M438.484 264.096H0V10.0556C0.00308011 7.38954 1.06347 4.8336 2.94855 2.94848C4.83363 1.06335 7.38946 0.00298994 10.0553 0H428.429C431.095 0.00298308 433.65 1.06335 435.535 2.94847C437.421 4.83359 438.481 7.38952 438.484 10.0556V264.096Z" fill="#3F3D56"/>
<path d="M412.296 245.658H26.1894C24.1342 245.656 22.1638 244.838 20.7105 243.385C19.2573 241.931 18.4398 239.961 18.4375 237.906V26.1904C18.4398 24.1351 19.2572 22.1645 20.7105 20.7111C22.1638 19.2577 24.1341 18.4402 26.1894 18.4378H412.296C414.351 18.4402 416.321 19.2577 417.775 20.7111C419.228 22.1645 420.045 24.1351 420.048 26.1904V237.906C420.045 239.961 419.228 241.931 417.775 243.385C416.321 244.838 414.351 245.656 412.296 245.658Z" fill="white"/>
<path d="M327.526 352.798H110.568C110.346 352.802 110.128 352.733 109.949 352.602C109.77 352.47 109.64 352.282 109.578 352.069C109.54 351.923 109.536 351.771 109.565 351.624C109.595 351.476 109.658 351.337 109.75 351.218C109.842 351.099 109.96 351.003 110.095 350.936C110.229 350.87 110.378 350.835 110.528 350.835H327.446C327.68 350.827 327.911 350.898 328.099 351.037C328.288 351.177 328.424 351.376 328.485 351.602C328.517 351.746 328.516 351.895 328.483 352.038C328.449 352.181 328.384 352.315 328.292 352.43C328.2 352.545 328.084 352.637 327.951 352.701C327.819 352.764 327.673 352.797 327.526 352.798Z" fill="#CCCCCC"/>
<path d="M408.174 52.6658H314.95V123.89H408.174V52.6658Z" fill="#F2F2F2"/>
<path d="M403.541 56.2049H319.582V120.351H403.541V56.2049Z" fill="white"/>
<path d="M363.037 103.785C363.048 103.786 363.059 103.785 363.07 103.785C368.754 103.487 374.11 101.037 378.051 96.9303C381.992 92.8241 384.221 87.371 384.285 81.68C384.349 75.9889 382.242 70.4872 378.395 66.2937C374.547 62.1002 369.247 59.5297 363.571 59.1051C363.501 59.0996 363.431 59.1086 363.364 59.1317C363.298 59.1547 363.237 59.1913 363.185 59.2391C363.133 59.286 363.092 59.3431 363.064 59.4068C363.035 59.4705 363.02 59.5394 363.02 59.6091L362.53 103.268C362.529 103.404 362.582 103.535 362.677 103.632C362.772 103.729 362.901 103.784 363.037 103.785Z" fill="#3F3D56"/>
<path d="M345.481 66.3245C345.656 66.3266 345.822 66.3977 345.944 66.5221L360.973 81.893C361.034 81.9545 361.081 82.0274 361.114 82.1074C361.146 82.1874 361.162 82.273 361.16 82.3593L360.926 103.25C360.926 103.34 360.906 103.429 360.87 103.511C360.833 103.592 360.78 103.666 360.714 103.726C360.647 103.787 360.569 103.834 360.484 103.864C360.399 103.893 360.308 103.905 360.218 103.898C356.039 103.586 352.031 102.114 348.642 99.6479C345.254 97.1822 342.62 93.8203 341.038 89.9402C339.455 86.06 338.985 81.8152 339.682 77.6829C340.378 73.5505 342.213 69.6943 344.981 66.5475C345.041 66.4797 345.114 66.4249 345.196 66.3866C345.278 66.3482 345.367 66.3272 345.457 66.3247C345.465 66.3245 345.473 66.3244 345.481 66.3245Z" fill="#E6E6E6"/>
<path d="M360.764 58.9267C360.932 58.9287 361.093 58.9944 361.214 59.1105C361.279 59.1723 361.331 59.247 361.365 59.3298C361.4 59.4125 361.417 59.5016 361.416 59.5913L361.205 78.4407C361.203 78.5704 361.163 78.6969 361.09 78.804C361.017 78.9111 360.913 78.994 360.793 79.0424C360.672 79.0907 360.54 79.1022 360.413 79.0755C360.286 79.0487 360.17 78.985 360.079 78.8922L346.964 65.4792C346.901 65.4154 346.853 65.3396 346.82 65.2564C346.788 65.1732 346.774 65.0844 346.777 64.9953C346.78 64.9061 346.802 64.8186 346.84 64.7381C346.878 64.6575 346.932 64.5855 346.999 64.5265C350.813 61.1689 355.649 59.1962 360.724 58.9275C360.737 58.9268 360.751 58.9265 360.764 58.9267Z" fill="#83B92F"/>
<path d="M354.008 112.839C353.999 113.634 353.755 114.409 353.306 115.065C352.856 115.721 352.223 116.23 351.485 116.526C350.746 116.822 349.937 116.892 349.159 116.728C348.381 116.565 347.669 116.174 347.113 115.605C346.557 115.036 346.182 114.316 346.036 113.534C345.889 112.752 345.978 111.945 346.29 111.214C346.603 110.482 347.125 109.86 347.791 109.426C348.458 108.991 349.237 108.764 350.033 108.773C351.099 108.786 352.116 109.222 352.861 109.984C353.606 110.746 354.019 111.773 354.008 112.839Z" fill="#83B92F"/>
<path d="M365.494 112.968C365.486 113.763 365.241 114.538 364.792 115.194C364.343 115.85 363.709 116.358 362.971 116.654C362.233 116.95 361.424 117.021 360.645 116.857C359.867 116.693 359.155 116.302 358.599 115.734C358.043 115.165 357.668 114.444 357.522 113.663C357.375 112.881 357.464 112.074 357.777 111.342C358.089 110.611 358.612 109.989 359.278 109.555C359.944 109.12 360.724 108.893 361.519 108.902C362.585 108.915 363.602 109.351 364.347 110.113C365.093 110.875 365.505 111.902 365.494 112.968Z" fill="#3F3D56"/>
<path d="M376.981 113.097C376.972 113.892 376.727 114.666 376.278 115.323C375.829 115.979 375.195 116.487 374.457 116.783C373.719 117.079 372.91 117.15 372.132 116.986C371.353 116.822 370.641 116.431 370.085 115.863C369.529 115.294 369.155 114.573 369.008 113.792C368.862 113.01 368.95 112.202 369.263 111.471C369.576 110.74 370.098 110.118 370.764 109.683C371.43 109.249 372.21 109.022 373.005 109.031C374.071 109.044 375.088 109.48 375.834 110.242C376.579 111.004 376.992 112.031 376.981 113.097Z" fill="#E6E6E6"/>
<path d="M407.192 135.1H313.969V206.324H407.192V135.1Z" fill="#F2F2F2"/>
<path d="M402.561 138.639H318.602V202.785H402.561V138.639Z" fill="white"/>
<path d="M332.848 159.722C334.773 159.722 336.334 158.161 336.334 156.235C336.334 154.31 334.773 152.749 332.848 152.749C330.922 152.749 329.361 154.31 329.361 156.235C329.361 158.161 330.922 159.722 332.848 159.722Z" fill="#3F3D56"/>
<path d="M388.859 153.523C389.169 153.522 389.477 153.583 389.765 153.701C390.052 153.82 390.313 153.994 390.533 154.214C390.753 154.433 390.927 154.694 391.046 154.981C391.165 155.268 391.227 155.576 391.227 155.887C391.227 156.198 391.165 156.505 391.046 156.793C390.927 157.08 390.753 157.34 390.533 157.56C390.313 157.78 390.052 157.954 389.765 158.072C389.477 158.191 389.169 158.252 388.859 158.251H352.195C351.568 158.251 350.966 158.002 350.523 157.559C350.08 157.115 349.83 156.514 349.83 155.887C349.83 155.26 350.08 154.658 350.523 154.215C350.966 153.772 351.568 153.523 352.195 153.523H388.859ZM388.859 152.943H352.195C351.808 152.943 351.425 153.019 351.067 153.166C350.709 153.314 350.384 153.531 350.111 153.804C349.837 154.077 349.62 154.402 349.472 154.759C349.323 155.117 349.247 155.5 349.247 155.887C349.247 156.274 349.323 156.657 349.472 157.014C349.62 157.372 349.837 157.696 350.111 157.97C350.384 158.243 350.709 158.46 351.067 158.607C351.425 158.755 351.808 158.831 352.195 158.83H388.859C389.245 158.831 389.629 158.755 389.986 158.607C390.344 158.46 390.669 158.243 390.943 157.97C391.216 157.696 391.433 157.372 391.582 157.014C391.73 156.657 391.806 156.274 391.806 155.887C391.806 155.5 391.73 155.117 391.582 154.759C391.433 154.402 391.216 154.077 390.943 153.804C390.669 153.531 390.344 153.314 389.986 153.166C389.629 153.019 389.245 152.943 388.859 152.943Z" fill="#3F3D56"/>
<path d="M374.39 158.83H346.79C346.009 158.83 345.261 158.52 344.709 157.968C344.157 157.416 343.847 156.667 343.847 155.887C343.847 155.106 344.157 154.358 344.709 153.806C345.261 153.254 346.009 152.943 346.79 152.943H374.39C375.171 152.943 375.919 153.254 376.471 153.806C377.023 154.358 377.333 155.106 377.333 155.887C377.333 156.667 377.023 157.416 376.471 157.968C375.919 158.52 375.171 158.83 374.39 158.83Z" fill="#83B92F"/>
<path d="M332.848 174.198C334.773 174.198 336.334 172.637 336.334 170.712C336.334 168.787 334.773 167.226 332.848 167.226C330.922 167.226 329.361 168.787 329.361 170.712C329.361 172.637 330.922 174.198 332.848 174.198Z" fill="#3F3D56"/>
<path d="M388.857 167.999C389.168 167.999 389.476 168.059 389.763 168.178C390.05 168.296 390.311 168.471 390.531 168.69C390.751 168.91 390.926 169.171 391.045 169.458C391.164 169.745 391.225 170.053 391.225 170.363C391.225 170.674 391.164 170.982 391.045 171.269C390.926 171.556 390.751 171.817 390.531 172.037C390.311 172.256 390.05 172.43 389.763 172.549C389.476 172.667 389.168 172.728 388.857 172.728H352.193C351.566 172.728 350.965 172.479 350.521 172.035C350.078 171.592 349.829 170.99 349.829 170.363C349.829 169.736 350.078 169.135 350.521 168.692C350.965 168.248 351.566 167.999 352.193 167.999H388.857ZM388.857 167.42H352.193C351.413 167.42 350.664 167.73 350.112 168.282C349.56 168.834 349.25 169.583 349.25 170.363C349.25 171.144 349.56 171.893 350.112 172.445C350.664 172.997 351.413 173.307 352.193 173.307H388.857C389.638 173.307 390.386 172.997 390.938 172.445C391.49 171.893 391.8 171.144 391.8 170.363C391.8 169.583 391.49 168.834 390.938 168.282C390.386 167.73 389.638 167.42 388.857 167.42Z" fill="#3F3D56"/>
<path d="M384.813 173.307H346.79C346.009 173.307 345.261 172.997 344.709 172.445C344.157 171.893 343.847 171.144 343.847 170.363C343.847 169.583 344.157 168.834 344.709 168.282C345.261 167.73 346.009 167.42 346.79 167.42H384.813C385.593 167.42 386.342 167.73 386.894 168.282C387.446 168.834 387.756 169.583 387.756 170.363C387.756 171.144 387.446 171.893 386.894 172.445C386.342 172.997 385.593 173.307 384.813 173.307Z" fill="#83B92F"/>
<path d="M332.848 188.675C334.773 188.675 336.334 187.114 336.334 185.189C336.334 183.263 334.773 181.702 332.848 181.702C330.922 181.702 329.361 183.263 329.361 185.189C329.361 187.114 330.922 188.675 332.848 188.675Z" fill="#3F3D56"/>
<path d="M388.857 182.476C389.168 182.475 389.476 182.536 389.763 182.654C390.05 182.773 390.311 182.947 390.531 183.167C390.751 183.386 390.926 183.647 391.045 183.934C391.164 184.221 391.225 184.529 391.225 184.84C391.225 185.151 391.164 185.458 391.045 185.746C390.926 186.033 390.751 186.294 390.531 186.513C390.311 186.733 390.05 186.907 389.763 187.025C389.476 187.144 389.168 187.205 388.857 187.204H352.193C351.566 187.204 350.965 186.955 350.521 186.512C350.078 186.068 349.829 185.467 349.829 184.84C349.829 184.213 350.078 183.611 350.521 183.168C350.965 182.725 351.566 182.476 352.193 182.476H388.857ZM388.857 181.897H352.193C351.413 181.897 350.664 182.207 350.112 182.759C349.56 183.311 349.25 184.059 349.25 184.84C349.25 185.621 349.56 186.369 350.112 186.921C350.664 187.473 351.413 187.783 352.193 187.783H388.857C389.638 187.783 390.386 187.473 390.938 186.921C391.49 186.369 391.8 185.621 391.8 184.84C391.8 184.059 391.49 183.311 390.938 182.759C390.386 182.207 389.638 181.897 388.857 181.897Z" fill="#3F3D56"/>
<path d="M362.232 187.783H346.791C346.404 187.784 346.021 187.708 345.664 187.56C345.306 187.413 344.981 187.196 344.707 186.923C344.434 186.649 344.216 186.325 344.068 185.967C343.92 185.61 343.844 185.227 343.844 184.84C343.844 184.453 343.92 184.07 344.068 183.713C344.216 183.355 344.434 183.03 344.707 182.757C344.981 182.484 345.306 182.267 345.664 182.119C346.021 181.972 346.404 181.896 346.791 181.897H362.232C363.012 181.898 363.759 182.208 364.31 182.76C364.861 183.312 365.171 184.06 365.171 184.84C365.171 185.62 364.861 186.368 364.31 186.92C363.759 187.472 363.012 187.782 362.232 187.783Z" fill="#83B92F"/>
<path d="M293.361 65.2671H32.9111V198.755H293.361V65.2671Z" fill="#F2F2F2"/>
<path d="M284.68 71.9H41.5928V192.123H284.68V71.9Z" fill="white"/>
<path d="M254.532 173.781H77.3261C77.179 173.781 77.0379 173.723 76.9339 173.619C76.8299 173.515 76.7715 173.374 76.7715 173.227V88.2872C76.7715 88.1401 76.8299 87.999 76.9339 87.895C77.0379 87.791 77.179 87.7326 77.3261 87.7326C77.4731 87.7326 77.6142 87.791 77.7182 87.895C77.8222 87.999 77.8806 88.1401 77.8806 88.2872V172.672H254.532C254.679 172.672 254.82 172.731 254.924 172.835C255.028 172.939 255.086 173.08 255.086 173.227C255.086 173.374 255.028 173.515 254.924 173.619C254.82 173.723 254.679 173.781 254.532 173.781Z" fill="#3F3D56"/>
<path d="M115.187 167.681H99.0691C98.6327 167.68 98.2142 167.507 97.9056 167.198C97.597 166.889 97.4234 166.471 97.4229 166.035V143.815C97.4234 143.379 97.597 142.96 97.9056 142.652C98.2142 142.343 98.6327 142.169 99.0691 142.169H115.187C115.623 142.169 116.042 142.343 116.35 142.652C116.659 142.96 116.832 143.379 116.833 143.815V166.035C116.832 166.471 116.659 166.889 116.35 167.198C116.042 167.507 115.623 167.68 115.187 167.681Z" fill="#83B92F"/>
<path d="M144.58 167.681H128.463C128.026 167.68 127.608 167.507 127.299 167.198C126.991 166.889 126.817 166.471 126.816 166.035V122.74C126.817 122.304 126.991 121.885 127.299 121.577C127.608 121.268 128.026 121.094 128.463 121.094H144.58C145.017 121.094 145.435 121.268 145.744 121.577C146.052 121.885 146.226 122.304 146.226 122.74V166.035C146.226 166.471 146.052 166.889 145.744 167.198C145.435 167.507 145.017 167.68 144.58 167.681Z" fill="#83B92F"/>
<path d="M173.972 167.681H157.854C157.418 167.68 156.999 167.507 156.691 167.198C156.382 166.889 156.209 166.471 156.208 166.035V143.815C156.209 143.379 156.382 142.96 156.691 142.652C156.999 142.343 157.418 142.169 157.854 142.169H173.972C174.408 142.169 174.827 142.343 175.135 142.652C175.444 142.96 175.618 143.379 175.618 143.815V166.035C175.618 166.471 175.444 166.889 175.135 167.198C174.827 167.507 174.408 167.68 173.972 167.681Z" fill="#83B92F"/>
<path d="M203.365 167.681H187.248C186.821 167.69 186.409 167.53 186.1 167.235C185.791 166.941 185.612 166.536 185.602 166.109V114.347C185.612 113.92 185.791 113.515 186.1 113.221C186.409 112.926 186.821 112.766 187.248 112.775H203.365C203.792 112.766 204.205 112.926 204.513 113.221C204.822 113.515 205.001 113.92 205.012 114.347V166.109C205.001 166.536 204.822 166.941 204.513 167.235C204.205 167.53 203.792 167.69 203.365 167.681Z" fill="#83B92F"/>
<path d="M232.757 167.681H216.639C216.203 167.68 215.785 167.507 215.476 167.198C215.167 166.889 214.994 166.471 214.993 166.035V99.4468C214.994 99.0103 215.167 98.5919 215.476 98.2833C215.785 97.9747 216.203 97.8011 216.639 97.8006H232.757C233.193 97.8011 233.612 97.9747 233.92 98.2833C234.229 98.5919 234.403 99.0103 234.403 99.4468V166.035C234.403 166.471 234.229 166.889 233.92 167.198C233.612 167.507 233.193 167.68 232.757 167.681Z" fill="#83B92F"/>
<path d="M107.128 135.514C108.966 135.514 110.456 134.024 110.456 132.186C110.456 130.348 108.966 128.858 107.128 128.858C105.291 128.858 103.801 130.348 103.801 132.186C103.801 134.024 105.291 135.514 107.128 135.514Z" fill="#3F3D56"/>
<path d="M136.522 113.884C138.36 113.884 139.85 112.394 139.85 110.557C139.85 108.719 138.36 107.229 136.522 107.229C134.684 107.229 133.194 108.719 133.194 110.557C133.194 112.394 134.684 113.884 136.522 113.884Z" fill="#3F3D56"/>
<path d="M165.914 135.514C167.751 135.514 169.241 134.024 169.241 132.186C169.241 130.348 167.751 128.858 165.914 128.858C164.076 128.858 162.586 130.348 162.586 132.186C162.586 134.024 164.076 135.514 165.914 135.514Z" fill="#3F3D56"/>
<path d="M195.305 103.347C197.143 103.347 198.633 101.857 198.633 100.019C198.633 98.1812 197.143 96.6913 195.305 96.6913C193.467 96.6913 191.978 98.1812 191.978 100.019C191.978 101.857 193.467 103.347 195.305 103.347Z" fill="#3F3D56"/>
<path d="M224.699 91.1453C226.537 91.1453 228.026 89.6554 228.026 87.8176C228.026 85.9798 226.537 84.49 224.699 84.49C222.861 84.49 221.371 85.9798 221.371 87.8176C221.371 89.6554 222.861 91.1453 224.699 91.1453Z" fill="#3F3D56"/>
<path d="M165.983 132.931L136.521 110.863L107.461 132.63L106.796 131.743L136.521 109.476L165.843 131.44L194.981 99.552L195.098 99.5044L224.49 87.6614L224.905 88.6902L195.629 100.486L165.983 132.931Z" fill="#3F3D56"/>
<path d="M605.357 406H360.398C360.227 406 360.064 405.932 359.943 405.812C359.823 405.691 359.755 405.528 359.755 405.357C359.755 405.187 359.823 405.023 359.943 404.902C360.064 404.782 360.227 404.714 360.398 404.714H605.357C605.528 404.714 605.691 404.782 605.812 404.902C605.933 405.023 606 405.187 606 405.357C606 405.528 605.933 405.691 605.812 405.812C605.691 405.932 605.528 406 605.357 406Z" fill="#CCCCCC"/>
</g>
<defs>
<clipPath id="clip0_8137_3270">
<rect width="606" height="406" fill="white"/>
</clipPath>
</defs>
</svg>
