<svg width="700" height="376" viewBox="0 0 700 376" fill="none" xmlns="http://www.w3.org/2000/svg">
<g clip-path="url(#clip0_8133_1983)">
<path d="M44.3375 314.024L42.1541 324.925C41.9896 325.758 41.8176 326.607 41.6307 327.448C39.8057 327.071 37.9136 327.176 36.1421 327.753C37.5475 329.751 38.807 331.848 39.9108 334.026C38.5349 338.245 36.516 342.144 33.1361 344.964C30.8787 346.806 28.1826 348.038 25.3077 348.541C22.4328 349.044 19.4761 348.801 16.7228 347.836L16.82 347.405C13.1859 340.388 15.16 331.54 19.6765 325.059C21.98 321.862 24.7094 318.99 27.7897 316.524C30.8405 313.994 34.1381 311.724 37.4058 309.485C38.1397 308.982 39.0075 308.709 39.8981 308.7C40.7888 308.691 41.662 308.947 42.406 309.434C43.1501 309.921 43.7313 310.618 44.0753 311.436C44.4194 312.253 44.5107 313.154 44.3375 314.024Z" fill="#E4E4E4"/>
<path d="M17.502 374.066C16.583 367.404 15.6379 360.657 16.2824 353.924C16.8552 347.944 18.688 342.103 22.4208 337.314C24.402 334.777 26.8128 332.603 29.5447 330.89C30.2573 330.444 30.9123 331.567 30.2035 332.012C25.4767 334.984 21.8207 339.374 19.7625 344.548C17.4893 350.301 17.1244 356.573 17.5192 362.685C17.7563 366.381 18.258 370.052 18.7642 373.72C18.805 373.886 18.7805 374.061 18.6957 374.21C18.6109 374.359 18.4722 374.469 18.3081 374.519C18.1412 374.564 17.9632 374.542 17.8128 374.457C17.6624 374.372 17.5518 374.231 17.505 374.065L17.502 374.066Z" fill="#F2F2F2"/>
<path d="M25.3878 39.9102C57.4198 39.3559 89.4551 39.2763 121.494 39.6713C153.528 40.0687 185.552 40.9428 217.564 42.2937C235.528 43.0518 253.484 43.96 271.433 45.0183C272.875 45.1032 272.87 42.8706 271.433 42.7859C239.453 40.9027 207.448 39.4936 175.421 38.5585C143.398 37.626 111.366 37.1703 79.3243 37.1914C61.3445 37.2033 43.3657 37.3654 25.3878 37.6778C23.9459 37.7028 23.9414 39.9352 25.3878 39.9102V39.9102Z" fill="#F9FAFB"/>
<path d="M248.62 25.9124L262.627 24.875C264.058 24.769 264.07 22.5358 262.627 22.6426L248.62 23.68C247.19 23.786 247.178 26.0192 248.62 25.9124Z" fill="#F9FAFB"/>
<path d="M248.62 39.3065L262.627 38.2691C264.058 38.1632 264.07 35.93 262.627 36.0368L248.62 37.0742C247.19 37.1802 247.178 39.4134 248.62 39.3065Z" fill="#F9FAFB"/>
<path d="M247.568 33.19L267.482 34.9903C268.919 35.1203 268.91 32.8871 267.482 32.758L247.568 30.9576C246.131 30.8277 246.139 33.0608 247.568 33.19Z" fill="#F9FAFB"/>
<path d="M33.6781 22.9104C32.704 22.9044 31.7498 23.1838 30.9342 23.7139C30.1187 24.2439 29.478 25.001 29.0919 25.891C28.6601 26.762 28.5268 27.7498 28.7124 28.7033C28.898 29.6568 29.3924 30.5236 30.1198 31.1711C30.8037 31.7501 31.6239 32.1471 32.5039 32.325C33.3838 32.5029 34.2946 32.4558 35.1513 32.1883C36.0275 31.8838 36.7872 31.3165 37.326 30.5646C37.8648 29.8126 38.1561 28.913 38.1598 27.9895C38.199 26.9649 37.92 25.9532 37.361 25.0919C36.802 24.2306 35.9899 23.5616 35.0353 23.1758C34.7485 23.0983 34.4425 23.1367 34.184 23.2827C33.9256 23.4288 33.7356 23.6705 33.6555 23.9554C33.5848 24.2405 33.6266 24.5418 33.7723 24.7972C33.9181 25.0526 34.1566 25.2427 34.4389 25.3284C34.6344 25.4036 34.2604 25.2328 34.4429 25.3317C34.5179 25.3724 34.5944 25.4092 34.6681 25.4526C34.7307 25.4896 34.7907 25.53 34.8517 25.5695C35.061 25.7055 34.7495 25.4697 34.8833 25.592C34.9994 25.698 35.1143 25.8014 35.2198 25.9184C35.2597 25.9626 35.416 26.0856 35.2945 25.9997C35.2016 25.9339 35.2587 25.9494 35.2945 26.0022C35.3217 26.0423 35.3504 26.0812 35.3773 26.1216C35.4647 26.2533 35.5442 26.39 35.6153 26.5311C35.6318 26.5637 35.6469 26.5971 35.6636 26.6296C35.695 26.6905 35.7406 26.7065 35.6667 26.6302C35.5962 26.5574 35.6411 26.5623 35.6663 26.6324C35.6829 26.6785 35.701 26.724 35.7172 26.7703C35.7698 26.9208 35.8139 27.0742 35.8494 27.2296C35.8659 27.3015 35.8791 27.3737 35.8932 27.446C35.9433 27.7024 35.8859 27.2867 35.898 27.4771C35.9081 27.6361 35.9199 27.7933 35.9171 27.9529C35.9159 28.026 35.9127 28.0989 35.9076 28.1718C35.905 28.2081 35.9009 28.2444 35.8985 28.2807C35.8869 28.4559 35.8865 28.2167 35.9111 28.2003C35.8599 28.349 35.8259 28.5031 35.8098 28.6595C35.7897 28.7288 35.7658 28.7967 35.7435 28.8654C35.6654 29.1048 35.8167 28.7348 35.7336 28.8985C35.6651 29.0391 35.5886 29.1757 35.5044 29.3076C35.4679 29.3628 35.3301 29.4875 35.4428 29.4007C35.565 29.3065 35.3786 29.4687 35.3389 29.5105C35.2878 29.5641 35.2348 29.6159 35.1798 29.6658C35.1446 29.6999 35.1075 29.7321 35.0686 29.762C35.0614 29.7584 35.256 29.6327 35.1511 29.6992C35.0178 29.7838 34.8916 29.8743 34.7512 29.948C34.7348 29.9565 34.5553 30.0393 34.556 30.0422C34.5483 30.0121 34.7869 29.9586 34.6231 30.0113C34.5887 30.0224 34.5549 30.0357 34.5207 30.0472C34.3716 30.0972 34.2194 30.1375 34.065 30.168C34.0297 30.175 33.9924 30.1786 33.9575 30.1875C33.8416 30.2173 34.0683 30.17 34.0752 30.1739C33.9895 30.1702 33.9036 30.1778 33.8199 30.1964C33.6608 30.2055 33.5012 30.2055 33.3421 30.1964C33.3053 30.1943 33.2685 30.1906 33.2317 30.1885C33.1462 30.1835 33.0835 30.1223 33.1973 30.1888C33.285 30.2401 33.2777 30.2027 33.2 30.1884C33.1636 30.1817 33.1271 30.176 33.0907 30.1693C32.9332 30.1399 32.7775 30.1019 32.6241 30.0555C32.5416 30.0305 32.4608 30.0014 32.3794 29.9731C32.344 29.9629 32.3094 29.9496 32.2762 29.9336C32.2757 29.9244 32.486 30.0336 32.375 29.974C32.2349 29.8989 32.09 29.8359 31.9532 29.7538C31.8802 29.7099 31.81 29.6623 31.7391 29.6154C31.7078 29.5966 31.6782 29.5755 31.6503 29.5521C31.6526 29.5427 31.8242 29.7009 31.7341 29.6155C31.6202 29.5075 31.4984 29.4108 31.3906 29.2958C31.3659 29.2695 31.3426 29.2419 31.318 29.2156L31.2942 29.1885C31.2334 29.1145 31.2322 29.1149 31.2908 29.1895C31.3502 29.207 31.3475 29.2719 31.2911 29.1876C31.271 29.1575 31.2497 29.1283 31.2296 29.0983C31.1385 28.9691 31.0608 28.8311 30.9978 28.6863C31.0032 28.6821 31.0949 28.9549 31.0248 28.749C31.0116 28.7101 30.9967 28.6718 30.9837 28.6328C30.9579 28.5555 30.9352 28.4773 30.9156 28.3983C30.8962 28.32 30.8863 28.2392 30.8667 28.1612C30.8338 28.0297 30.886 28.2649 30.88 28.259C30.8613 28.2407 30.8693 28.1267 30.8679 28.0994C30.8589 27.9242 30.879 27.7542 30.8821 27.5802C30.8845 27.4453 30.8709 27.6853 30.8681 27.6782C30.8688 27.6378 30.8759 27.5978 30.8894 27.5597C30.9097 27.4679 30.9286 27.3761 30.9534 27.2853C30.9819 27.1814 31.0146 27.0787 31.0517 26.9773C31.0656 26.9393 31.0824 26.9019 31.0953 26.8637C31.1425 26.7235 31.0019 27.0329 31.0794 26.9066C31.1861 26.7327 31.2656 26.5445 31.3789 26.3728C31.4058 26.332 31.569 26.1053 31.4824 26.2198C31.3961 26.3338 31.571 26.1177 31.6042 26.081C31.7417 25.9285 31.9035 25.8033 32.046 25.6574C32.1303 25.5709 31.9871 25.6999 31.9787 25.7059C32.0228 25.6746 32.066 25.642 32.1107 25.6114C32.1885 25.558 32.2683 25.5075 32.35 25.4599C32.442 25.4062 32.5461 25.3662 32.6353 25.3094C32.7406 25.2423 32.5547 25.3389 32.5513 25.3409C32.5995 25.3171 32.6498 25.2981 32.7016 25.2839C32.7885 25.2533 33.1662 25.0911 33.2454 25.1418C33.2418 25.1395 32.9586 25.1645 33.1876 25.1498C33.2417 25.1464 33.2956 25.1411 33.3498 25.1389C33.4594 25.1344 33.5686 25.1371 33.6781 25.1428C33.975 25.1408 34.2591 25.0226 34.4691 24.8137C34.679 24.6048 34.7978 24.322 34.7997 24.0266C34.7934 23.7325 34.6732 23.4523 34.4642 23.2443C34.2552 23.0363 33.9736 22.9167 33.6781 22.9104L33.6781 22.9104Z" fill="#F9FAFB"/>
<path d="M49.3802 22.9104C48.4062 22.9044 47.4519 23.1838 46.6364 23.7139C45.8209 24.2439 45.1801 25.001 44.7941 25.891C44.3622 26.762 44.2289 27.7498 44.4145 28.7033C44.6002 29.6568 45.0945 30.5236 45.822 31.1711C46.5059 31.7501 47.3261 32.1471 48.206 32.325C49.0859 32.5029 49.9968 32.4558 50.8535 32.1883C51.7296 31.8838 52.4894 31.3165 53.0281 30.5646C53.5669 29.8126 53.8582 28.913 53.862 27.9895C53.9011 26.9649 53.6222 25.9532 53.0631 25.0919C52.5041 24.2306 51.6921 23.5616 50.7374 23.1758C50.4506 23.0983 50.1446 23.1367 49.8862 23.2827C49.6277 23.4288 49.4378 23.6705 49.3577 23.9554C49.287 24.2405 49.3287 24.5418 49.4745 24.7972C49.6202 25.0526 49.8588 25.2427 50.1411 25.3284C50.3366 25.4036 49.9625 25.2328 50.145 25.3317C50.2201 25.3724 50.2966 25.4092 50.3702 25.4526C50.4329 25.4896 50.4929 25.53 50.5538 25.5695C50.7632 25.7055 50.4516 25.4697 50.5854 25.592C50.7015 25.698 50.8165 25.8014 50.922 25.9184C50.9619 25.9626 51.1181 26.0856 50.9967 25.9997C50.9038 25.9339 50.9609 25.9494 50.9967 26.0022C51.0238 26.0423 51.0526 26.0812 51.0794 26.1216C51.1668 26.2533 51.2463 26.39 51.3175 26.5311C51.3339 26.5637 51.349 26.5971 51.3658 26.6296C51.3972 26.6905 51.4427 26.7065 51.3689 26.6302C51.2983 26.5574 51.3432 26.5623 51.3685 26.6324C51.3851 26.6785 51.4032 26.724 51.4193 26.7703C51.4719 26.9208 51.5161 27.0742 51.5516 27.2296C51.568 27.3015 51.5812 27.3737 51.5954 27.446C51.6455 27.7024 51.5881 27.2867 51.6002 27.4771C51.6103 27.6361 51.6221 27.7933 51.6193 27.9529C51.618 28.026 51.6148 28.0989 51.6097 28.1718C51.6071 28.2081 51.6031 28.2444 51.6007 28.2807C51.589 28.4559 51.5887 28.2167 51.6133 28.2003C51.562 28.349 51.528 28.5031 51.5119 28.6595C51.4918 28.7288 51.468 28.7967 51.4456 28.8654C51.3676 29.1048 51.5189 28.7348 51.4357 28.8985C51.3673 29.0391 51.2908 29.1757 51.2066 29.3076C51.17 29.3628 51.0322 29.4875 51.1449 29.4007C51.2672 29.3065 51.0808 29.4687 51.041 29.5105C50.9899 29.5641 50.9369 29.6159 50.882 29.6658C50.8468 29.6999 50.8096 29.7321 50.7707 29.762C50.7636 29.7584 50.9581 29.6327 50.8533 29.6992C50.72 29.7838 50.5938 29.8743 50.4533 29.948C50.437 29.9565 50.2574 30.0393 50.2582 30.0422C50.2504 30.0121 50.489 29.9586 50.3252 30.0113C50.2908 30.0224 50.2571 30.0357 50.2228 30.0472C50.0737 30.0972 49.9215 30.1375 49.7672 30.168C49.7319 30.175 49.6945 30.1786 49.6597 30.1875C49.5437 30.2173 49.7705 30.17 49.7773 30.1739C49.6916 30.1702 49.6058 30.1778 49.5221 30.1964C49.3629 30.2055 49.2034 30.2055 49.0442 30.1964C49.0074 30.1943 48.9707 30.1906 48.9339 30.1885C48.8484 30.1835 48.7857 30.1223 48.8994 30.1888C48.9872 30.2401 48.9799 30.2027 48.9021 30.1884C48.8658 30.1817 48.8292 30.176 48.7929 30.1693C48.6354 30.1399 48.4796 30.1019 48.3263 30.0555C48.2438 30.0305 48.163 30.0014 48.0816 29.9731C48.0461 29.9629 48.0116 29.9496 47.9784 29.9336C47.9779 29.9244 48.1881 30.0336 48.0771 29.974C47.937 29.8989 47.7921 29.8359 47.6553 29.7538C47.5823 29.7099 47.5122 29.6623 47.4412 29.6154C47.41 29.5966 47.3803 29.5755 47.3524 29.5521C47.3548 29.5427 47.5263 29.7009 47.4363 29.6155C47.3224 29.5075 47.2006 29.4108 47.0927 29.2958C47.068 29.2695 47.0447 29.2419 47.0201 29.2156L46.9963 29.1885C46.9355 29.1145 46.9344 29.1149 46.9929 29.1895C47.0524 29.207 47.0497 29.2719 46.9933 29.1876C46.9732 29.1575 46.9518 29.1283 46.9317 29.0983C46.8407 28.9691 46.763 28.8311 46.6999 28.6863C46.7054 28.6821 46.7971 28.9549 46.727 28.749C46.7137 28.7101 46.6988 28.6718 46.6858 28.6328C46.66 28.5555 46.6374 28.4773 46.6178 28.3983C46.5984 28.32 46.5884 28.2392 46.5689 28.1612C46.5359 28.0297 46.5881 28.2649 46.5822 28.259C46.5635 28.2407 46.5714 28.1267 46.57 28.0994C46.5611 27.9242 46.5811 27.7542 46.5842 27.5802C46.5867 27.4453 46.573 27.6853 46.5702 27.6782C46.5709 27.6378 46.5781 27.5978 46.5915 27.5597C46.6118 27.4679 46.6307 27.3761 46.6556 27.2853C46.684 27.1814 46.7168 27.0787 46.7539 26.9773C46.7677 26.9393 46.7846 26.9019 46.7975 26.8637C46.8447 26.7235 46.704 27.0329 46.7816 26.9066C46.8883 26.7327 46.9678 26.5445 47.0811 26.3728C47.1079 26.332 47.2711 26.1053 47.1845 26.2198C47.0982 26.3338 47.2732 26.1177 47.3063 26.081C47.4439 25.9285 47.6057 25.8033 47.7481 25.6574C47.8324 25.5709 47.6893 25.6999 47.6808 25.7059C47.7249 25.6746 47.7681 25.642 47.8128 25.6114C47.8907 25.558 47.9705 25.5075 48.0522 25.4599C48.1442 25.4062 48.2482 25.3662 48.3374 25.3094C48.4428 25.2423 48.2568 25.3389 48.2535 25.3409C48.3016 25.3171 48.3519 25.2981 48.4037 25.2839C48.4906 25.2533 48.8683 25.0911 48.9476 25.1418C48.944 25.1395 48.6608 25.1645 48.8897 25.1498C48.9438 25.1464 48.9977 25.1411 49.0519 25.1389C49.1615 25.1344 49.2707 25.1371 49.3802 25.1428C49.6771 25.1408 49.9613 25.0226 50.1712 24.8137C50.3811 24.6048 50.4999 24.322 50.5019 24.0266C50.4955 23.7325 50.3753 23.4523 50.1663 23.2443C49.9573 23.0363 49.6757 22.9167 49.3802 22.9104L49.3802 22.9104Z" fill="#F9FAFB"/>
<path d="M65.0824 22.9104C64.1083 22.9044 63.1541 23.1838 62.3385 23.7139C61.523 24.2439 60.8823 25.001 60.4962 25.891C60.0644 26.762 59.9311 27.7498 60.1167 28.7033C60.3023 29.6568 60.7967 30.5236 61.5241 31.1711C62.208 31.7501 63.0282 32.1471 63.9082 32.325C64.7881 32.5029 65.6989 32.4558 66.5556 32.1883C67.4318 31.8838 68.1915 31.3165 68.7303 30.5646C69.2691 29.8126 69.5604 28.913 69.5641 27.9895C69.6033 26.9649 69.3243 25.9532 68.7653 25.0919C68.2063 24.2306 67.3942 23.5616 66.4396 23.1758C66.1528 23.0983 65.8468 23.1367 65.5883 23.2827C65.3299 23.4288 65.1399 23.6705 65.0598 23.9554C64.9891 24.2405 65.0309 24.5418 65.1766 24.7972C65.3224 25.0526 65.5609 25.2427 65.8432 25.3284C66.0387 25.4036 65.6647 25.2328 65.8472 25.3317C65.9222 25.3724 65.9987 25.4092 66.0724 25.4526C66.135 25.4896 66.195 25.53 66.256 25.5695C66.4653 25.7055 66.1538 25.4697 66.2876 25.592C66.4036 25.698 66.5186 25.8014 66.6241 25.9184C66.664 25.9626 66.8203 26.0856 66.6988 25.9997C66.6059 25.9339 66.663 25.9494 66.6988 26.0022C66.726 26.0423 66.7547 26.0812 66.7816 26.1216C66.869 26.2533 66.9485 26.39 67.0196 26.5311C67.0361 26.5637 67.0512 26.5971 67.0679 26.6296C67.0993 26.6905 67.1449 26.7065 67.071 26.6302C67.0005 26.5574 67.0454 26.5623 67.0706 26.6324C67.0872 26.6785 67.1053 26.724 67.1215 26.7703C67.1741 26.9208 67.2182 27.0742 67.2537 27.2296C67.2702 27.3015 67.2834 27.3737 67.2975 27.446C67.3476 27.7024 67.2902 27.2867 67.3023 27.4771C67.3124 27.6361 67.3242 27.7933 67.3214 27.9529C67.3202 28.026 67.317 28.0989 67.3119 28.1718C67.3093 28.2081 67.3052 28.2444 67.3028 28.2807C67.2912 28.4559 67.2908 28.2167 67.3154 28.2003C67.2642 28.349 67.2302 28.5031 67.2141 28.6595C67.194 28.7288 67.1701 28.7967 67.1478 28.8654C67.0697 29.1048 67.221 28.7348 67.1379 28.8985C67.0694 29.0391 66.9929 29.1757 66.9087 29.3076C66.8722 29.3628 66.7344 29.4875 66.8471 29.4007C66.9693 29.3065 66.7829 29.4687 66.7432 29.5105C66.6921 29.5641 66.6391 29.6159 66.5841 29.6658C66.5489 29.6999 66.5118 29.7321 66.4729 29.762C66.4657 29.7584 66.6602 29.6327 66.5554 29.6992C66.4221 29.7838 66.2959 29.8743 66.1555 29.948C66.1391 29.9565 65.9596 30.0393 65.9603 30.0422C65.9526 30.0121 66.1912 29.9586 66.0274 30.0113C65.993 30.0224 65.9592 30.0357 65.925 30.0472C65.7759 30.0972 65.6237 30.1375 65.4693 30.168C65.434 30.175 65.3966 30.1786 65.3618 30.1875C65.2459 30.2173 65.4726 30.17 65.4795 30.1739C65.3937 30.1702 65.3079 30.1778 65.2242 30.1964C65.0651 30.2055 64.9055 30.2055 64.7464 30.1964C64.7096 30.1943 64.6728 30.1906 64.636 30.1885C64.5505 30.1835 64.4878 30.1223 64.6016 30.1888C64.6893 30.2401 64.682 30.2027 64.6043 30.1884C64.5679 30.1817 64.5314 30.176 64.495 30.1693C64.3375 30.1399 64.1817 30.1019 64.0284 30.0555C63.9459 30.0305 63.8651 30.0014 63.7837 29.9731C63.7483 29.9629 63.7137 29.9496 63.6805 29.9336C63.68 29.9244 63.8903 30.0336 63.7793 29.974C63.6392 29.8989 63.4943 29.8359 63.3575 29.7538C63.2845 29.7099 63.2143 29.6623 63.1434 29.6154C63.1121 29.5966 63.0825 29.5755 63.0546 29.5521C63.0569 29.5427 63.2285 29.7009 63.1384 29.6155C63.0245 29.5075 62.9027 29.4108 62.7949 29.2958C62.7702 29.2695 62.7469 29.2419 62.7223 29.2156L62.6985 29.1885C62.6377 29.1145 62.6365 29.1149 62.6951 29.1895C62.7545 29.207 62.7518 29.2719 62.6954 29.1876C62.6753 29.1575 62.654 29.1283 62.6339 29.0983C62.5428 28.9691 62.4651 28.8311 62.402 28.6863C62.4075 28.6821 62.4992 28.9549 62.4291 28.749C62.4158 28.7101 62.4009 28.6718 62.388 28.6328C62.3622 28.5555 62.3395 28.4773 62.3199 28.3983C62.3005 28.32 62.2906 28.2392 62.271 28.1612C62.2381 28.0297 62.2903 28.2649 62.2843 28.259C62.2656 28.2407 62.2736 28.1267 62.2722 28.0994C62.2632 27.9242 62.2833 27.7542 62.2864 27.5802C62.2888 27.4453 62.2752 27.6853 62.2724 27.6782C62.2731 27.6378 62.2802 27.5978 62.2937 27.5597C62.314 27.4679 62.3329 27.3761 62.3577 27.2853C62.3862 27.1814 62.4189 27.0787 62.456 26.9773C62.4699 26.9393 62.4867 26.9019 62.4996 26.8637C62.5468 26.7235 62.4062 27.0329 62.4837 26.9066C62.5904 26.7327 62.6699 26.5445 62.7832 26.3728C62.8101 26.332 62.9733 26.1053 62.8867 26.2198C62.8004 26.3338 62.9753 26.1177 63.0084 26.081C63.146 25.9285 63.3078 25.8033 63.4503 25.6574C63.5346 25.5709 63.3914 25.6999 63.383 25.7059C63.4271 25.6746 63.4703 25.642 63.515 25.6114C63.5928 25.558 63.6726 25.5075 63.7543 25.4599C63.8463 25.4062 63.9504 25.3662 64.0395 25.3094C64.1449 25.2423 63.959 25.3389 63.9556 25.3409C64.0038 25.3171 64.0541 25.2981 64.1059 25.2839C64.1927 25.2533 64.5705 25.0911 64.6497 25.1418C64.6461 25.1395 64.3629 25.1645 64.5919 25.1498C64.646 25.1464 64.6999 25.1411 64.7541 25.1389C64.8637 25.1344 64.9729 25.1371 65.0824 25.1428C65.3793 25.1408 65.6634 25.0226 65.8734 24.8137C66.0833 24.6048 66.2021 24.322 66.204 24.0266C66.1977 23.7325 66.0775 23.4523 65.8685 23.2443C65.6595 23.0363 65.3779 22.9167 65.0824 22.9104L65.0824 22.9104Z" fill="#F9FAFB"/>
<path d="M291.934 270.115H16.8302C13.3515 270.111 10.0163 268.734 7.55644 266.287C5.09658 263.839 3.7129 260.52 3.70898 257.058V13.0573C3.71289 9.59549 5.09654 6.27657 7.5564 3.82869C10.0163 1.3808 13.3514 0.00388194 16.8302 0H291.934C295.413 0.00388195 298.748 1.3808 301.208 3.82869C303.668 6.27657 305.052 9.59549 305.056 13.0573V257.058C305.052 260.52 303.668 263.839 301.208 266.287C298.748 268.734 295.413 270.111 291.934 270.115ZM16.8302 1.48824C13.7479 1.49173 10.7929 2.71173 8.61346 4.8806C6.43398 7.04947 5.20801 9.99008 5.2045 13.0573V257.058C5.20809 260.125 6.4341 263.066 8.61357 265.235C10.793 267.403 13.748 268.623 16.8302 268.627H291.934C295.017 268.623 297.972 267.403 300.151 265.235C302.33 263.066 303.556 260.125 303.56 257.058V13.0573C303.557 9.99008 302.331 7.04947 300.151 4.8806C297.972 2.71173 295.017 1.49173 291.934 1.48824H16.8302Z" fill="#F9FAFB"/>
<path d="M16.3745 166.017L113.119 165.725L209.37 165.433L263.665 165.269C263.956 165.259 264.231 165.137 264.433 164.929C264.635 164.72 264.748 164.442 264.748 164.153C264.748 163.863 264.635 163.585 264.433 163.377C264.231 163.169 263.956 163.047 263.665 163.036L166.921 163.329L70.6698 163.621L16.3745 163.785C16.0837 163.795 15.8082 163.917 15.6061 164.125C15.404 164.334 15.291 164.612 15.291 164.901C15.291 165.191 15.404 165.469 15.6061 165.677C15.8082 165.885 16.0837 166.007 16.3745 166.017Z" fill="#F9FAFB"/>
<path d="M65.179 164.207L65.7772 129.058C65.8017 127.62 63.5584 127.62 63.534 129.058L62.9357 164.207C62.9113 165.644 65.1546 165.645 65.179 164.207Z" fill="#E6E6E6"/>
<path d="M111.417 164.588L112.875 120.406L113.291 107.783C113.339 106.346 111.095 106.348 111.048 107.783L109.59 151.964L109.174 164.588C109.126 166.025 111.37 166.023 111.417 164.588Z" fill="#F9FAFB"/>
<path d="M157.53 86.8396C156.651 102.488 155.024 148.646 154.145 164.295C154.064 165.73 156.308 165.726 156.388 164.295C157.267 148.646 158.894 102.488 159.774 86.8396C159.854 85.4042 157.611 85.4088 157.53 86.8396Z" fill="#F9FAFB"/>
<path d="M203.422 148.592L203.147 163.633C203.12 165.07 205.364 165.07 205.39 163.633C205.715 145.869 206.548 146.448 206.639 141.434C206.666 139.997 204.422 139.997 204.396 141.434C204.396 141.434 203.746 130.828 203.422 148.592Z" fill="#F9FAFB"/>
<path d="M248.372 109.079L248.626 151.277L248.698 163.36C248.708 163.65 248.831 163.924 249.04 164.125C249.25 164.326 249.529 164.439 249.82 164.439C250.111 164.439 250.391 164.326 250.6 164.125C250.809 163.924 250.932 163.65 250.942 163.36L250.688 121.162L250.615 109.079C250.605 108.79 250.483 108.516 250.273 108.315C250.064 108.114 249.785 108.001 249.494 108.001C249.203 108.001 248.923 108.114 248.714 108.315C248.505 108.516 248.382 108.79 248.372 109.079Z" fill="#F9FAFB"/>
<path d="M16.5542 164.761C14.6973 159.684 18.8831 154.8 23.184 152.605C28.3368 149.976 34.2645 149.38 39.4719 146.846C47.2354 143.067 52.89 136.285 57.9216 129.497C63.1004 122.511 67.8389 115.012 74.4195 109.207C77.8872 106.08 81.9827 103.721 86.435 102.287C92.0449 100.545 97.9945 100.426 103.791 101.128C115.769 102.579 126.873 107.502 138.43 110.631C149.327 113.581 161.332 115.24 172.028 110.652C177.462 108.321 181.905 104.412 186.678 101.03C191.297 97.7214 196.461 95.2422 201.938 93.704C212.674 90.733 224.399 91.5264 234.395 96.5488C243.583 101.106 250.858 108.747 254.936 118.123C259.674 129.387 259.057 141.976 257.509 153.833C257.109 156.898 256.633 159.952 256.152 163.005C255.93 164.411 258.091 165.016 258.315 163.599C260.243 151.372 262.164 138.759 259.766 126.455C257.692 115.712 251.756 106.089 243.067 99.3867C234.343 92.6661 223.497 89.2598 212.476 89.7791C206.7 90.0458 201.015 91.3041 195.67 93.4985C190.123 95.7821 185.425 99.1668 180.653 102.728C175.746 106.39 170.689 109.419 164.598 110.613C158.689 111.772 152.543 111.337 146.66 110.244C134.522 107.987 123.208 102.814 111.174 100.163C100.023 97.707 87.9912 97.4616 78.0064 103.73C70.3259 108.552 64.8988 116.038 59.6903 123.266C54.5275 130.431 49.2994 138.093 41.75 142.987C37.1448 145.973 31.9679 147.075 26.8163 148.754C21.6513 150.437 16.6928 153.277 14.5868 158.543C13.6792 160.712 13.6095 163.138 14.391 165.355C14.8808 166.694 17.0495 166.116 16.5542 164.761V164.761Z" fill="#F9FAFB"/>
<path d="M64.4346 124.197L64.4316 124.198L64.4375 124.197H64.4346Z" fill="#E6E6E6"/>
<path d="M68.3251 122.144C67.8066 121.23 66.9795 120.529 65.9907 120.165C65.0018 119.8 63.9152 119.797 62.9239 120.154C62.4312 120.333 61.9795 120.609 61.5956 120.965C61.2117 121.32 60.9033 121.749 60.6888 122.225C60.6459 122.327 60.6208 122.433 60.5857 122.537C60.5371 122.615 60.4787 122.686 60.4352 122.767C59.9702 123.689 59.8429 124.744 60.0752 125.749C60.3074 126.754 60.8847 127.648 61.7075 128.275C62.5304 128.902 63.5473 129.225 64.5832 129.186C65.619 129.147 66.6089 128.751 67.3825 128.064C68.1954 127.333 68.7323 126.347 68.9038 125.269C69.0753 124.192 68.8711 123.089 68.3251 122.144ZM65.5156 124.039C65.5248 124.096 65.5214 124.148 65.5156 124.039V124.039ZM65.23 123.393C65.219 123.381 65.2204 123.382 65.23 123.393V123.393ZM63.9713 123.897C63.9544 123.871 63.9528 123.867 63.9713 123.897V123.897ZM64.2696 124.149C64.3407 124.173 64.3126 124.168 64.2696 124.149V124.149ZM64.4028 124.212L64.4324 124.198C64.4252 124.199 64.4179 124.198 64.4115 124.194L64.4123 124.194L64.4355 124.197L64.4398 124.195L64.4264 124.192C64.438 124.191 64.4394 124.193 64.4401 124.195C64.5736 124.134 64.4832 124.163 64.4059 124.187L64.4007 124.186C64.3524 124.162 64.3005 124.145 64.2469 124.137C64.242 124.134 64.2361 124.132 64.2319 124.129C64.189 124.099 63.9719 123.93 64.1733 124.107C64.1295 124.068 64.0862 124.031 64.045 123.989C64.0207 123.964 63.9986 123.937 63.9792 123.908C63.9527 123.863 63.9271 123.818 63.9023 123.772L63.8986 123.747C63.8953 123.727 63.8928 123.718 63.8901 123.706C63.8913 123.693 63.8934 123.679 63.8954 123.666C63.9104 123.626 63.92 123.584 63.9239 123.541L63.9326 123.53C63.9648 123.486 63.993 123.433 64.0237 123.387C63.8612 123.633 64.0873 123.36 64.1042 123.325C64.1071 123.319 64.1021 123.323 64.1033 123.318C64.1099 123.315 64.1079 123.317 64.1158 123.313C64.1662 123.283 64.2139 123.25 64.2651 123.222C64.326 123.188 64.566 123.121 64.3171 123.191C64.3737 123.175 64.4279 123.155 64.4851 123.14C64.4954 123.138 64.5792 123.126 64.6244 123.118C64.664 123.117 64.7025 123.116 64.7065 123.116C64.7251 123.116 64.7438 123.118 64.7624 123.119C64.7211 123.124 64.9041 123.164 64.9585 123.172C64.9663 123.178 64.9704 123.182 64.981 123.19C65.027 123.223 65.0829 123.253 65.1314 123.284C64.9145 123.145 65.1343 123.295 65.1757 123.337C65.2005 123.361 65.2233 123.388 65.2466 123.414C65.268 123.438 65.2873 123.465 65.3044 123.492C65.34 123.557 65.3778 123.623 65.4152 123.687L65.4255 123.703C65.4253 123.705 65.4252 123.707 65.4252 123.709C65.4447 123.813 65.4734 123.914 65.5111 124.013C65.5129 124.021 65.5144 124.03 65.5153 124.038C65.5188 124.095 65.5236 124.151 65.5237 124.208L65.5232 124.22C65.3504 124.13 65.1588 124.083 64.964 124.081C64.7692 124.08 64.5768 124.125 64.4028 124.212H64.4028Z" fill="#F9FAFB"/>
<path d="M64.4432 124.196C64.4475 124.197 64.4434 124.197 64.4424 124.197L64.4432 124.196Z" fill="#E6E6E6"/>
<path d="M64.4424 124.195L64.4435 124.196L64.4424 124.195Z" fill="#E6E6E6"/>
<path d="M64.441 124.197L64.4375 124.198C64.4419 124.198 64.4403 124.197 64.441 124.197Z" fill="#E6E6E6"/>
<path d="M64.4404 124.195L64.4424 124.196L64.4404 124.195Z" fill="#E6E6E6"/>
<path d="M112.292 103.362L112.289 103.363L112.295 103.362H112.292Z" fill="#E6E6E6"/>
<path d="M116.181 101.308C115.662 100.395 114.835 99.6936 113.846 99.3294C112.857 98.9652 111.771 98.9616 110.779 99.3192C110.287 99.4982 109.835 99.7737 109.451 100.129C109.067 100.485 108.759 100.914 108.544 101.39C108.501 101.491 108.476 101.598 108.441 101.702C108.393 101.78 108.334 101.85 108.291 101.932C107.826 102.854 107.698 103.909 107.931 104.914C108.163 105.919 108.74 106.812 109.563 107.44C110.386 108.067 111.403 108.389 112.439 108.351C113.474 108.312 114.464 107.916 115.238 107.229C116.051 106.498 116.588 105.511 116.759 104.434C116.931 103.357 116.727 102.254 116.181 101.308ZM113.371 103.204C113.38 103.261 113.377 103.312 113.371 103.204V103.204ZM113.085 102.558C113.074 102.545 113.076 102.547 113.085 102.558V102.558ZM111.827 103.062C111.81 103.036 111.808 103.032 111.827 103.062V103.062ZM112.125 103.313C112.196 103.337 112.168 103.332 112.125 103.313V103.313ZM112.258 103.377L112.288 103.363C112.281 103.364 112.273 103.362 112.267 103.359L112.268 103.359L112.291 103.362L112.295 103.36L112.282 103.357C112.293 103.356 112.295 103.358 112.296 103.36C112.429 103.299 112.339 103.328 112.261 103.352L112.256 103.351C112.208 103.326 112.156 103.31 112.102 103.302C112.097 103.299 112.091 103.297 112.087 103.294C112.044 103.264 111.827 103.095 112.029 103.272C111.985 103.233 111.942 103.195 111.9 103.154C111.876 103.129 111.854 103.102 111.835 103.073C111.808 103.028 111.783 102.983 111.758 102.937L111.754 102.912C111.751 102.891 111.748 102.883 111.745 102.871C111.747 102.858 111.749 102.844 111.751 102.831C111.766 102.791 111.775 102.749 111.779 102.706L111.788 102.695C111.82 102.65 111.848 102.598 111.879 102.552C111.717 102.797 111.943 102.525 111.96 102.49C111.963 102.484 111.957 102.487 111.959 102.483C111.965 102.48 111.963 102.482 111.971 102.478C112.022 102.448 112.069 102.415 112.121 102.387C112.181 102.353 112.421 102.285 112.173 102.356C112.229 102.34 112.283 102.32 112.34 102.305C112.351 102.302 112.435 102.291 112.48 102.283C112.519 102.282 112.558 102.28 112.562 102.28C112.581 102.281 112.599 102.283 112.618 102.284C112.576 102.289 112.76 102.329 112.814 102.337C112.822 102.343 112.826 102.347 112.836 102.355C112.882 102.388 112.938 102.418 112.987 102.449C112.77 102.31 112.99 102.46 113.031 102.501C113.056 102.526 113.079 102.552 113.102 102.578C113.123 102.603 113.143 102.629 113.16 102.657C113.195 102.722 113.233 102.788 113.271 102.851L113.281 102.868C113.281 102.87 113.281 102.872 113.281 102.874C113.3 102.978 113.329 103.079 113.367 103.178C113.368 103.186 113.37 103.194 113.371 103.203C113.374 103.26 113.379 103.316 113.379 103.373L113.379 103.385C113.206 103.295 113.014 103.247 112.819 103.246C112.625 103.245 112.432 103.289 112.258 103.377Z" fill="#F9FAFB"/>
<path d="M112.299 103.362L112.296 103.362C112.3 103.363 112.299 103.362 112.299 103.362Z" fill="#E6E6E6"/>
<path d="M112.296 103.359L112.298 103.361L112.296 103.359Z" fill="#E6E6E6"/>
<path d="M112.299 103.36C112.303 103.362 112.299 103.362 112.298 103.362L112.299 103.36Z" fill="#E6E6E6"/>
<path d="M112.298 103.36L112.299 103.361L112.298 103.36Z" fill="#F9FAFB"/>
<path d="M158.657 113.777L158.659 113.778L158.657 113.777Z" fill="#E6E6E6"/>
<path d="M162.542 80.4732C162.023 79.5595 161.196 78.8583 160.207 78.4941C159.219 78.1299 158.132 78.1262 157.141 78.4839C156.648 78.6629 156.196 78.9384 155.812 79.2941C155.428 79.6498 155.12 80.0785 154.906 80.5549C154.863 80.6561 154.838 80.7626 154.803 80.8663C154.754 80.9445 154.695 81.0151 154.652 81.0969C154.187 82.0189 154.06 83.0733 154.292 84.0786C154.524 85.0839 155.101 85.9772 155.924 86.6045C156.747 87.2318 157.764 87.554 158.8 87.5155C159.836 87.477 160.826 87.0802 161.599 86.3935C162.412 85.6622 162.949 84.676 163.121 83.5989C163.292 82.5218 163.088 81.4187 162.542 80.4732ZM159.732 82.3689C159.742 82.4252 159.738 82.477 159.732 82.3689V82.3689ZM159.447 81.7227C159.436 81.7101 159.437 81.7115 159.447 81.7227V81.7227ZM158.188 82.2264C158.171 82.2006 158.17 82.1962 158.188 82.2264V82.2264ZM158.486 82.4781C158.557 82.5022 158.529 82.4971 158.486 82.4781V82.4781ZM158.62 82.5413L158.649 82.5278C158.642 82.5285 158.635 82.527 158.628 82.5237L158.629 82.5235L158.652 82.5264L158.657 82.5244L158.643 82.5213C158.655 82.5209 158.656 82.5225 158.657 82.5243C158.79 82.4635 158.7 82.4928 158.623 82.5166L158.617 82.5154C158.569 82.491 158.517 82.4744 158.464 82.4663C158.459 82.4636 158.453 82.4616 158.449 82.4586C158.406 82.4282 158.189 82.2594 158.39 82.4363C158.346 82.3978 158.303 82.36 158.262 82.3184C158.237 82.2936 158.215 82.2667 158.196 82.238C158.169 82.1929 158.144 82.1474 158.119 82.1015L158.115 82.0767C158.112 82.0562 158.11 82.0476 158.107 82.0353C158.108 82.0225 158.11 82.0088 158.112 81.9955C158.127 81.9553 158.137 81.9134 158.141 81.8707L158.149 81.8598C158.182 81.8151 158.21 81.7629 158.241 81.7164C158.078 81.9621 158.304 81.6893 158.321 81.6547C158.324 81.6488 158.319 81.652 158.32 81.6479C158.327 81.6443 158.325 81.6468 158.333 81.6422C158.383 81.6127 158.431 81.5797 158.482 81.5515C158.543 81.5179 158.783 81.4501 158.534 81.5209C158.59 81.5048 158.645 81.4845 158.702 81.4697C158.712 81.467 158.796 81.4553 158.841 81.4472C158.881 81.4462 158.919 81.4451 158.923 81.4451C158.942 81.4453 158.961 81.4476 158.979 81.4484C158.938 81.4539 159.121 81.4933 159.175 81.5016C159.183 81.5077 159.187 81.5117 159.198 81.5195C159.244 81.5529 159.3 81.5826 159.348 81.6138C159.131 81.4743 159.351 81.6249 159.392 81.6661C159.417 81.6908 159.44 81.7171 159.463 81.743C159.485 81.7677 159.504 81.7941 159.521 81.8219C159.557 81.8867 159.595 81.9524 159.632 82.0162L159.642 82.0325C159.642 82.0346 159.642 82.0368 159.642 82.0389C159.661 82.1424 159.69 82.2439 159.728 82.3423C159.73 82.3506 159.731 82.359 159.732 82.3675C159.736 82.4242 159.74 82.4807 159.74 82.5377L159.74 82.5492C159.567 82.4596 159.376 82.4121 159.181 82.4108C158.986 82.4094 158.794 82.4541 158.62 82.5413Z" fill="#F9FAFB"/>
<path d="M158.652 113.779L158.649 113.781L158.655 113.779H158.652Z" fill="#E6E6E6"/>
<path d="M158.659 113.778L158.66 113.778L158.659 113.778Z" fill="#E6E6E6"/>
<path d="M158.659 113.779L158.655 113.78C158.66 113.78 158.658 113.78 158.659 113.779Z" fill="#E6E6E6"/>
<path d="M158.66 113.778C158.664 113.78 158.66 113.779 158.659 113.78L158.66 113.778Z" fill="#E6E6E6"/>
<path d="M209.651 137.77C209.133 136.856 208.306 136.155 207.317 135.791C206.328 135.427 205.241 135.423 204.25 135.781C203.757 135.96 203.306 136.235 202.922 136.591C202.538 136.947 202.23 137.375 202.015 137.852C201.972 137.953 201.947 138.06 201.912 138.163C201.863 138.241 201.805 138.312 201.761 138.394C201.296 139.316 201.169 140.37 201.401 141.376C201.634 142.381 202.211 143.274 203.034 143.902C203.857 144.529 204.873 144.851 205.909 144.812C206.945 144.774 207.935 144.377 208.709 143.69C209.522 142.959 210.058 141.973 210.23 140.896C210.401 139.819 210.197 138.716 209.651 137.77ZM206.842 139.666C206.851 139.722 206.848 139.774 206.842 139.666V139.666ZM206.556 139.02C206.545 139.007 206.547 139.008 206.556 139.02V139.02ZM205.297 139.523C205.281 139.498 205.279 139.493 205.297 139.523V139.523ZM205.596 139.775C205.667 139.799 205.639 139.794 205.596 139.775V139.775ZM205.729 139.838L205.759 139.825C205.751 139.825 205.744 139.824 205.738 139.821L205.738 139.821L205.762 139.823L205.766 139.821L205.753 139.818C205.764 139.818 205.765 139.82 205.766 139.821C205.9 139.761 205.809 139.79 205.732 139.814L205.727 139.812C205.678 139.788 205.627 139.771 205.573 139.763C205.568 139.761 205.562 139.759 205.558 139.756C205.515 139.725 205.298 139.556 205.499 139.733C205.456 139.695 205.412 139.657 205.371 139.615C205.347 139.591 205.325 139.564 205.305 139.535C205.279 139.49 205.253 139.444 205.228 139.398L205.225 139.374C205.221 139.353 205.219 139.345 205.216 139.332C205.217 139.319 205.22 139.306 205.222 139.292C205.237 139.252 205.246 139.21 205.25 139.168L205.259 139.157C205.291 139.112 205.319 139.06 205.35 139.013C205.187 139.259 205.413 138.986 205.43 138.952C205.433 138.946 205.428 138.949 205.429 138.945C205.436 138.941 205.434 138.944 205.442 138.939C205.492 138.91 205.54 138.877 205.591 138.849C205.652 138.815 205.892 138.747 205.643 138.818C205.7 138.802 205.754 138.782 205.811 138.767C205.822 138.764 205.905 138.752 205.95 138.744C205.99 138.743 206.029 138.742 206.033 138.742C206.051 138.742 206.07 138.745 206.089 138.745C206.047 138.751 206.23 138.79 206.285 138.799C206.292 138.805 206.296 138.809 206.307 138.816C206.353 138.85 206.409 138.88 206.458 138.911C206.241 138.771 206.46 138.922 206.502 138.963C206.527 138.988 206.549 139.014 206.573 139.04C206.594 139.065 206.613 139.091 206.631 139.119C206.666 139.184 206.704 139.249 206.741 139.313L206.752 139.33C206.751 139.332 206.751 139.334 206.751 139.336C206.771 139.439 206.8 139.541 206.837 139.639C206.839 139.648 206.84 139.656 206.841 139.665C206.845 139.721 206.85 139.778 206.85 139.835L206.849 139.846C206.677 139.757 206.485 139.709 206.29 139.708C206.095 139.706 205.903 139.751 205.729 139.838Z" fill="#F9FAFB"/>
<path d="M205.763 90.7117L205.76 90.7131L205.766 90.7117H205.763Z" fill="#E6E6E6"/>
<path d="M205.768 90.7101L205.769 90.7104L205.768 90.7101Z" fill="#E6E6E6"/>
<path d="M205.767 90.7117L205.764 90.7122C205.768 90.7127 205.767 90.7119 205.767 90.7117Z" fill="#E6E6E6"/>
<path d="M205.768 90.7104C205.773 90.7118 205.769 90.7116 205.768 90.7119L205.768 90.7104Z" fill="#E6E6E6"/>
<path d="M205.766 90.7095L205.768 90.7105L205.766 90.7095Z" fill="#E6E6E6"/>
<path d="M249.884 105.593L249.885 105.593L249.884 105.593Z" fill="#E6E6E6"/>
<path d="M253.769 103.541C253.251 102.627 252.424 101.926 251.435 101.562C250.446 101.197 249.36 101.194 248.368 101.552C247.876 101.73 247.424 102.006 247.04 102.362C246.656 102.717 246.348 103.146 246.133 103.622C246.09 103.724 246.065 103.83 246.03 103.934C245.981 104.012 245.923 104.083 245.879 104.165C245.415 105.086 245.287 106.141 245.52 107.146C245.752 108.152 246.329 109.045 247.152 109.672C247.975 110.299 248.992 110.622 250.027 110.583C251.063 110.545 252.053 110.148 252.827 109.461C253.64 108.73 254.177 107.744 254.348 106.667C254.52 105.589 254.315 104.486 253.769 103.541ZM250.96 105.437C250.969 105.493 250.966 105.545 250.96 105.437V105.437ZM250.674 104.79C250.663 104.778 250.665 104.779 250.674 104.79V104.79ZM249.416 105.294C249.399 105.268 249.397 105.264 249.416 105.294V105.294ZM249.714 105.546C249.785 105.57 249.757 105.565 249.714 105.546V105.546ZM249.847 105.609L249.877 105.595C249.869 105.596 249.862 105.595 249.856 105.591L249.857 105.591L249.88 105.594L249.884 105.592L249.871 105.589C249.882 105.589 249.884 105.59 249.884 105.592C250.018 105.531 249.927 105.56 249.85 105.584L249.845 105.583C249.797 105.559 249.745 105.542 249.691 105.534C249.686 105.531 249.68 105.529 249.676 105.526C249.633 105.496 249.416 105.327 249.618 105.504C249.574 105.465 249.53 105.428 249.489 105.386C249.465 105.361 249.443 105.334 249.423 105.306C249.397 105.26 249.371 105.215 249.347 105.169L249.343 105.144C249.34 105.124 249.337 105.115 249.334 105.103C249.336 105.09 249.338 105.076 249.34 105.063C249.355 105.023 249.364 104.981 249.368 104.938L249.377 104.927C249.409 104.883 249.437 104.831 249.468 104.784C249.305 105.03 249.532 104.757 249.549 104.722C249.551 104.716 249.546 104.72 249.548 104.716C249.554 104.712 249.552 104.714 249.56 104.71C249.61 104.68 249.658 104.647 249.709 104.619C249.77 104.586 250.01 104.518 249.761 104.589C249.818 104.572 249.872 104.552 249.929 104.537C249.94 104.535 250.024 104.523 250.069 104.515C250.108 104.514 250.147 104.513 250.151 104.513C250.169 104.513 250.188 104.515 250.207 104.516C250.165 104.522 250.348 104.561 250.403 104.569C250.411 104.575 250.415 104.579 250.425 104.587C250.471 104.621 250.527 104.65 250.576 104.681C250.359 104.542 250.579 104.693 250.62 104.734C250.645 104.758 250.668 104.785 250.691 104.811C250.712 104.835 250.732 104.862 250.749 104.889C250.784 104.954 250.822 105.02 250.859 105.084L250.87 105.1C250.87 105.102 250.869 105.104 250.869 105.107C250.889 105.21 250.918 105.312 250.955 105.41C250.957 105.418 250.959 105.427 250.96 105.435C250.963 105.492 250.968 105.548 250.968 105.605L250.967 105.617C250.795 105.527 250.603 105.48 250.408 105.478C250.213 105.477 250.021 105.522 249.847 105.609Z" fill="#F9FAFB"/>
<path d="M249.879 105.594L249.876 105.595L249.882 105.594H249.879Z" fill="#E6E6E6"/>
<path d="M249.884 105.592L249.886 105.593L249.884 105.592Z" fill="#E6E6E6"/>
<path d="M249.888 105.593C249.892 105.594 249.888 105.594 249.887 105.594L249.888 105.593Z" fill="#E6E6E6"/>
<path d="M249.885 105.594L249.882 105.595C249.886 105.595 249.885 105.594 249.885 105.594Z" fill="#E6E6E6"/>
<path d="M237.79 139.696L203.022 141.619C202.826 141.63 202.633 141.565 202.484 141.439C202.334 141.313 202.239 141.134 202.217 140.94C202.196 140.746 202.251 140.551 202.369 140.395C202.488 140.24 202.663 140.136 202.856 140.104L238.393 134.35L237.79 139.696Z" fill="#3F3D56"/>
<path d="M281.974 216.724L295.076 194.789L304.76 199.34C304.76 199.34 288.074 220.08 287.542 220.677C287.77 221.685 287.684 222.738 287.298 223.697C286.911 224.656 286.24 225.475 285.376 226.047C284.511 226.618 283.492 226.915 282.453 226.897C281.415 226.88 280.407 226.549 279.562 225.949C278.717 225.349 278.074 224.508 277.72 223.537C277.366 222.566 277.316 221.51 277.577 220.511C277.839 219.511 278.399 218.613 279.184 217.937C279.97 217.261 280.942 216.838 281.974 216.724Z" fill="#FFB6B6"/>
<path d="M287.425 165.77L308.652 176.791C309.979 177.742 311.092 178.958 311.919 180.361C312.746 181.765 313.271 183.324 313.458 184.941C313.645 186.557 313.491 188.194 313.006 189.748C312.521 191.302 311.716 192.738 310.642 193.964L296.008 210.669L289.633 202.073L294.547 191.849L285.032 189.352L287.425 165.77Z" fill="#004B3D"/>
<path d="M226.934 140.054L224.544 165.46L213.834 165.478C213.834 165.478 219.978 139.623 220.202 138.857C219.562 138.044 219.185 137.056 219.122 136.025C219.059 134.993 219.311 133.967 219.847 133.082C220.382 132.197 221.175 131.494 222.12 131.067C223.066 130.64 224.119 130.508 225.141 130.69C226.163 130.872 227.106 131.358 227.844 132.084C228.583 132.811 229.082 133.743 229.277 134.758C229.471 135.773 229.351 136.823 228.933 137.768C228.515 138.714 227.818 139.511 226.934 140.054V140.054Z" fill="#FFB6B6"/>
<path d="M248.251 192.01L223.601 187.511C213.221 186.269 208.961 179.473 210.834 172.844L216.862 151.51L226.324 156.558L226.288 167.891L239.533 166.089L248.251 192.01Z" fill="#004B3D"/>
<path d="M238.163 367.589H231.385L228.161 341.573H238.165L238.163 367.589Z" fill="#FFB6B6"/>
<path d="M238.401 374.625L217.559 374.624V374.362C217.559 372.221 218.414 370.167 219.935 368.654C221.456 367.14 223.52 366.289 225.671 366.289H225.672L229.479 363.415L236.582 366.289L238.402 366.289L238.401 374.625Z" fill="#2F2E41"/>
<path d="M286.121 367.589H292.898L296.123 341.573H286.119L286.121 367.589Z" fill="#FFB6B6"/>
<path d="M285.882 374.625L306.725 374.624V374.362C306.725 372.221 305.87 370.167 304.348 368.654C302.827 367.14 300.764 366.289 298.612 366.289H298.612L294.805 363.415L287.701 366.289L285.882 366.289L285.882 374.625Z" fill="#2F2E41"/>
<path d="M227.863 322.455C227.963 320.97 228.759 312.761 228.759 312.761L230.665 295.35L234.025 249.199L237.02 237.068L251.845 242.815L263.874 237.076L278.172 241.625L289.305 245.779C289.305 245.779 289.324 247.558 289.41 249.706C289.524 252.519 289.724 255.967 290.201 256.863C290.997 258.447 290.797 266.951 290.797 266.951C290.797 266.951 291.588 284.252 292.584 286.149C293.58 288.046 293.78 291.997 293.48 292.789C293.18 293.581 294.476 314.359 294.476 314.359C294.476 314.359 297.803 351.128 295.716 356.672C293.628 362.217 285.74 358.585 285.74 358.585C285.74 358.585 286.121 357.105 283.834 356.408C281.546 355.711 274.578 303.574 274.578 303.574C274.578 303.574 273.282 292.884 272.09 289.82C270.899 286.756 269.803 278.148 269.803 278.148C269.803 278.148 262.444 263.901 262.349 260.733C262.349 260.733 261.386 257.769 260.476 261.032C259.566 264.295 256.882 272.111 256.882 272.111L254.266 281.71L251.187 296.052L249.195 308.127C249.195 308.127 246.211 324.153 245.735 324.845C245.258 325.538 245.735 340.178 245.735 340.178C245.735 340.178 243.428 352.647 240.168 354.824C236.908 357.001 228.272 354.859 228.272 354.859C228.272 354.859 227.763 323.939 227.863 322.455Z" fill="#2F2E41"/>
<path d="M238.945 198.034L237.051 222.454L234.205 225.386C233.948 225.65 233.748 225.963 233.616 226.306C233.483 226.649 233.422 227.015 233.436 227.383C233.449 227.75 233.537 228.111 233.694 228.443C233.851 228.776 234.073 229.074 234.349 229.319L232.781 231.995L232.225 240.426C232.067 241.082 232.056 241.764 232.194 242.425C232.331 243.086 232.613 243.708 233.021 244.247C233.428 244.787 233.949 245.23 234.549 245.546C235.148 245.862 235.81 246.042 236.487 246.073L285.564 248.368C286.237 248.399 286.909 248.283 287.533 248.028C288.156 247.772 288.716 247.384 289.172 246.89C289.628 246.396 289.969 245.808 290.172 245.168C290.374 244.528 290.433 243.852 290.345 243.187L286.171 211.924V209.586L284.303 205.072L285.263 189.948L287.497 165.944L274.514 162.606L267.475 157.787L255.245 157.981L247.825 164.045L237.931 165.587L230.448 167.067L229.495 169.129L231.401 168.717L238.311 195.535L238.945 198.034Z" fill="#004B3D"/>
<path d="M261.085 154.514C269.041 154.514 275.491 148.096 275.491 140.178C275.491 132.261 269.041 125.842 261.085 125.842C253.129 125.842 246.679 132.261 246.679 140.178C246.679 148.096 253.129 154.514 261.085 154.514Z" fill="#FFB6B6"/>
<path d="M257.613 153.59L268.022 153.061C269.355 152.994 270.811 152.876 271.781 151.963C272.303 151.399 272.704 150.736 272.961 150.013C273.923 147.788 274.885 145.564 275.823 143.329C277.12 140.238 278.394 136.975 278.063 133.641C277.985 132.119 277.344 130.679 276.262 129.6C275.71 129.08 275 128.756 274.244 128.68C273.488 128.604 272.727 128.779 272.082 129.178C271.921 128.124 271.522 127.12 270.914 126.242C270.307 125.363 269.506 124.634 268.573 124.109C266.69 123.074 264.539 122.62 262.395 122.806C259.284 123.005 256.315 124.17 253.903 126.136C253.225 126.759 252.501 127.33 251.737 127.845C251.353 128.1 250.92 128.275 250.466 128.359C250.011 128.443 249.544 128.433 249.093 128.331C248.647 128.213 248.258 127.937 248 127.555C247.742 127.174 247.631 126.712 247.689 126.256C246.956 126.801 246.453 127.599 246.279 128.493C246.105 129.387 246.272 130.314 246.747 131.093C246.207 131.318 245.617 131.4 245.035 131.332C244.453 131.263 243.899 131.046 243.427 130.702C242.92 130.952 242.472 131.304 242.111 131.736C241.749 132.169 241.482 132.672 241.327 133.212C241.172 133.753 241.133 134.321 241.211 134.878C241.289 135.435 241.483 135.969 241.78 136.447C242.078 136.926 242.473 137.337 242.939 137.654C243.406 137.972 243.934 138.189 244.49 138.291C245.045 138.394 245.616 138.38 246.166 138.251C246.716 138.121 247.233 137.879 247.684 137.539C248.315 138.419 248.08 139.616 247.998 140.695C247.915 141.773 248.206 143.114 249.251 143.412C250.664 143.815 251.808 141.922 253.278 141.942C253.641 141.972 253.99 142.09 254.296 142.286C254.602 142.482 254.854 142.75 255.031 143.066C255.377 143.702 255.614 144.391 255.732 145.105L257.613 153.531" fill="#2F2E41"/>
<path d="M663.454 282.495C663.454 280.275 662.705 278.473 661.785 278.469H411.029C410.105 278.473 409.36 280.275 409.356 282.495V373.88C409.356 374.086 409.279 374.285 409.139 374.437C409 374.59 408.809 374.685 408.603 374.705C407.93 374.77 407.257 374.83 406.584 374.885C406.567 374.885 406.55 374.889 406.534 374.889C406.167 374.922 405.801 374.947 405.435 374.976H405.431C405.242 374.629 405.056 374.28 404.872 373.927C404.81 373.808 404.777 373.676 404.777 373.542V277.272C404.777 276.659 404.802 276.042 404.844 275.433C404.903 274.597 405.008 273.765 405.156 272.94C405.859 269.092 407.449 266.487 409.256 266.479H663.554C663.818 266.48 664.078 266.535 664.32 266.64C664.675 266.797 664.996 267.02 665.265 267.299C665.63 267.676 665.942 268.101 666.193 268.562C667.229 270.617 667.826 272.864 667.945 275.16C667.945 275.185 667.949 275.21 667.949 275.234C668.008 275.905 668.037 276.589 668.033 277.272L668.091 286.148L668.128 291.441L668.241 308.049L668.282 313.947L668.465 374.5C668.465 374.719 668.378 374.93 668.222 375.085C668.066 375.241 667.854 375.328 667.633 375.328H664.287C664.066 375.328 663.854 375.241 663.698 375.085C663.542 374.93 663.454 374.719 663.454 374.5V282.495Z" fill="#E6E6E6"/>
<path d="M595.315 224.947H568.296C567.914 224.947 567.547 225.099 567.277 225.368C567.007 225.638 566.856 226.003 566.856 226.383V268.858H596.759V226.383C596.759 226.194 596.721 226.008 596.649 225.833C596.576 225.659 596.47 225.501 596.336 225.367C596.202 225.234 596.043 225.128 595.868 225.056C595.693 224.984 595.505 224.947 595.315 224.947ZM581.897 249.081C581.052 249.077 580.242 248.741 579.645 248.146C579.047 247.552 578.71 246.747 578.706 245.906V241.007C578.706 240.164 579.042 239.357 579.64 238.761C580.239 238.166 581.05 237.832 581.897 237.832C582.743 237.832 583.554 238.166 584.153 238.761C584.751 239.357 585.087 240.164 585.087 241.007V245.906C585.083 246.747 584.746 247.552 584.148 248.146C583.551 248.741 582.741 249.077 581.897 249.081Z" fill="#CCCCCC"/>
<path d="M566.765 267.5V271.598C566.765 271.81 566.85 272.013 567.001 272.164C567.152 272.314 567.356 272.398 567.57 272.399H596.047C596.26 272.398 596.465 272.313 596.615 272.163C596.766 272.013 596.851 271.81 596.852 271.598V267.5H566.765Z" fill="#3F3D56"/>
<path d="M640.058 158.66H524.56C523.567 158.662 522.616 159.055 521.915 159.753C521.213 160.451 520.818 161.398 520.816 162.385V239.944C520.817 240.932 521.212 241.879 521.914 242.577C522.616 243.275 523.567 243.668 524.56 243.669H640.058C641.05 243.668 642.002 243.275 642.703 242.577C643.405 241.879 643.8 240.932 643.801 239.944V162.385C643.799 161.398 643.404 160.451 642.703 159.753C642.001 159.055 641.05 158.662 640.058 158.66Z" fill="#E6E6E6"/>
<path d="M639.093 161.351H525.524C524.993 161.352 524.484 161.563 524.109 161.937C523.733 162.311 523.523 162.818 523.522 163.347V238.984C523.523 239.512 523.735 240.018 524.11 240.391C524.485 240.765 524.994 240.975 525.524 240.976H639.093C639.624 240.975 640.132 240.765 640.508 240.391C640.883 240.018 641.094 239.512 641.095 238.984V163.347C641.095 162.818 640.884 162.311 640.509 161.937C640.134 161.563 639.624 161.352 639.093 161.351Z" fill="white"/>
<path d="M616.972 273.825H549.405C549.22 273.825 549.038 273.784 548.871 273.704C548.704 273.625 548.556 273.51 548.44 273.367C548.323 273.224 548.24 273.057 548.197 272.878C548.153 272.699 548.151 272.513 548.189 272.333L549.237 267.378C549.297 267.101 549.45 266.852 549.671 266.673C549.892 266.495 550.168 266.397 550.453 266.396H615.924C616.209 266.397 616.485 266.495 616.706 266.673C616.927 266.852 617.08 267.101 617.14 267.378L618.189 272.333C618.227 272.513 618.224 272.699 618.18 272.878C618.137 273.057 618.054 273.224 617.937 273.367C617.821 273.51 617.674 273.625 617.507 273.704C617.34 273.784 617.157 273.825 616.972 273.825Z" fill="#CCCCCC"/>
<path d="M552.65 267.288H551.299C551.097 267.288 550.934 267.451 550.934 267.652V268.168C550.934 268.368 551.097 268.531 551.299 268.531H552.65C552.851 268.531 553.015 268.368 553.015 268.168V267.652C553.015 267.451 552.851 267.288 552.65 267.288Z" fill="#E6E6E6"/>
<path d="M556.811 267.288H555.46C555.258 267.288 555.095 267.451 555.095 267.652V268.168C555.095 268.368 555.258 268.531 555.46 268.531H556.811C557.012 268.531 557.176 268.368 557.176 268.168V267.652C557.176 267.451 557.012 267.288 556.811 267.288Z" fill="#E6E6E6"/>
<path d="M560.974 267.288H559.623C559.421 267.288 559.258 267.451 559.258 267.652V268.168C559.258 268.368 559.421 268.531 559.623 268.531H560.974C561.175 268.531 561.339 268.368 561.339 268.168V267.652C561.339 267.451 561.175 267.288 560.974 267.288Z" fill="#E6E6E6"/>
<path d="M565.134 267.288H563.783C563.581 267.288 563.418 267.451 563.418 267.652V268.168C563.418 268.368 563.581 268.531 563.783 268.531H565.134C565.336 268.531 565.499 268.368 565.499 268.168V267.652C565.499 267.451 565.336 267.288 565.134 267.288Z" fill="#E6E6E6"/>
<path d="M569.297 267.288H567.946C567.744 267.288 567.581 267.451 567.581 267.652V268.168C567.581 268.368 567.744 268.531 567.946 268.531H569.297C569.499 268.531 569.662 268.368 569.662 268.168V267.652C569.662 267.451 569.499 267.288 569.297 267.288Z" fill="#E6E6E6"/>
<path d="M573.458 267.288H572.107C571.906 267.288 571.742 267.451 571.742 267.652V268.168C571.742 268.368 571.906 268.531 572.107 268.531H573.458C573.66 268.531 573.823 268.368 573.823 268.168V267.652C573.823 267.451 573.66 267.288 573.458 267.288Z" fill="#E6E6E6"/>
<path d="M577.621 267.288H576.27C576.069 267.288 575.905 267.451 575.905 267.652V268.168C575.905 268.368 576.069 268.531 576.27 268.531H577.621C577.823 268.531 577.986 268.368 577.986 268.168V267.652C577.986 267.451 577.823 267.288 577.621 267.288Z" fill="#E6E6E6"/>
<path d="M581.784 267.288H580.433C580.232 267.288 580.068 267.451 580.068 267.652V268.168C580.068 268.368 580.232 268.531 580.433 268.531H581.784C581.986 268.531 582.149 268.368 582.149 268.168V267.652C582.149 267.451 581.986 267.288 581.784 267.288Z" fill="#E6E6E6"/>
<path d="M585.945 267.288H584.595C584.393 267.288 584.229 267.451 584.229 267.652V268.168C584.229 268.368 584.393 268.531 584.595 268.531H585.945C586.147 268.531 586.31 268.368 586.31 268.168V267.652C586.31 267.451 586.147 267.288 585.945 267.288Z" fill="#E6E6E6"/>
<path d="M590.109 267.288H588.758C588.556 267.288 588.393 267.451 588.393 267.652V268.168C588.393 268.368 588.556 268.531 588.758 268.531H590.109C590.31 268.531 590.474 268.368 590.474 268.168V267.652C590.474 267.451 590.31 267.288 590.109 267.288Z" fill="#E6E6E6"/>
<path d="M594.269 267.288H592.918C592.716 267.288 592.553 267.451 592.553 267.652V268.168C592.553 268.368 592.716 268.531 592.918 268.531H594.269C594.47 268.531 594.634 268.368 594.634 268.168V267.652C594.634 267.451 594.47 267.288 594.269 267.288Z" fill="#E6E6E6"/>
<path d="M598.432 267.288H597.081C596.879 267.288 596.716 267.451 596.716 267.652V268.168C596.716 268.368 596.879 268.531 597.081 268.531H598.432C598.633 268.531 598.797 268.368 598.797 268.168V267.652C598.797 267.451 598.633 267.288 598.432 267.288Z" fill="#E6E6E6"/>
<path d="M602.593 267.288H601.242C601.04 267.288 600.877 267.451 600.877 267.652V268.168C600.877 268.368 601.04 268.531 601.242 268.531H602.593C602.795 268.531 602.958 268.368 602.958 268.168V267.652C602.958 267.451 602.795 267.288 602.593 267.288Z" fill="#E6E6E6"/>
<path d="M606.756 267.288H605.405C605.203 267.288 605.04 267.451 605.04 267.652V268.168C605.04 268.368 605.203 268.531 605.405 268.531H606.756C606.958 268.531 607.121 268.368 607.121 268.168V267.652C607.121 267.451 606.958 267.288 606.756 267.288Z" fill="#E6E6E6"/>
<path d="M610.917 267.288H609.566C609.365 267.288 609.201 267.451 609.201 267.652V268.168C609.201 268.368 609.365 268.531 609.566 268.531H610.917C611.119 268.531 611.282 268.368 611.282 268.168V267.652C611.282 267.451 611.119 267.288 610.917 267.288Z" fill="#E6E6E6"/>
<path d="M615.079 267.288H613.728C613.527 267.288 613.363 267.451 613.363 267.652V268.168C613.363 268.368 613.527 268.531 613.728 268.531H615.079C615.281 268.531 615.444 268.368 615.444 268.168V267.652C615.444 267.451 615.281 267.288 615.079 267.288Z" fill="#E6E6E6"/>
<path d="M552.601 269.359H551.25C551.048 269.359 550.885 269.522 550.885 269.722V270.238C550.885 270.439 551.048 270.601 551.25 270.601H552.601C552.802 270.601 552.966 270.439 552.966 270.238V269.722C552.966 269.522 552.802 269.359 552.601 269.359Z" fill="#E6E6E6"/>
<path d="M556.761 269.359H555.41C555.208 269.359 555.045 269.522 555.045 269.722V270.238C555.045 270.439 555.208 270.601 555.41 270.601H556.761C556.962 270.601 557.126 270.439 557.126 270.238V269.722C557.126 269.522 556.962 269.359 556.761 269.359Z" fill="#E6E6E6"/>
<path d="M560.924 269.359H559.573C559.371 269.359 559.208 269.522 559.208 269.722V270.238C559.208 270.439 559.371 270.601 559.573 270.601H560.924C561.126 270.601 561.289 270.439 561.289 270.238V269.722C561.289 269.522 561.126 269.359 560.924 269.359Z" fill="#E6E6E6"/>
<path d="M565.085 269.359H563.734C563.533 269.359 563.369 269.522 563.369 269.722V270.238C563.369 270.439 563.533 270.601 563.734 270.601H565.085C565.287 270.601 565.45 270.439 565.45 270.238V269.722C565.45 269.522 565.287 269.359 565.085 269.359Z" fill="#E6E6E6"/>
<path d="M569.248 269.359H567.897C567.696 269.359 567.532 269.522 567.532 269.722V270.238C567.532 270.439 567.696 270.601 567.897 270.601H569.248C569.45 270.601 569.613 270.439 569.613 270.238V269.722C569.613 269.522 569.45 269.359 569.248 269.359Z" fill="#E6E6E6"/>
<path d="M573.409 269.359H572.058C571.857 269.359 571.693 269.522 571.693 269.722V270.238C571.693 270.439 571.857 270.601 572.058 270.601H573.409C573.611 270.601 573.774 270.439 573.774 270.238V269.722C573.774 269.522 573.611 269.359 573.409 269.359Z" fill="#E6E6E6"/>
<path d="M577.572 269.359H576.222C576.02 269.359 575.856 269.522 575.856 269.722V270.238C575.856 270.439 576.02 270.601 576.222 270.601H577.572C577.774 270.601 577.937 270.439 577.937 270.238V269.722C577.937 269.522 577.774 269.359 577.572 269.359Z" fill="#E6E6E6"/>
<path d="M581.733 269.359H580.382C580.18 269.359 580.017 269.522 580.017 269.722V270.238C580.017 270.439 580.18 270.601 580.382 270.601H581.733C581.934 270.601 582.098 270.439 582.098 270.238V269.722C582.098 269.522 581.934 269.359 581.733 269.359Z" fill="#E6E6E6"/>
<path d="M585.896 269.359H584.545C584.343 269.359 584.18 269.522 584.18 269.722V270.238C584.18 270.439 584.343 270.601 584.545 270.601H585.896C586.097 270.601 586.261 270.439 586.261 270.238V269.722C586.261 269.522 586.097 269.359 585.896 269.359Z" fill="#E6E6E6"/>
<path d="M590.057 269.359H588.706C588.504 269.359 588.341 269.522 588.341 269.722V270.238C588.341 270.439 588.504 270.601 588.706 270.601H590.057C590.258 270.601 590.422 270.439 590.422 270.238V269.722C590.422 269.522 590.258 269.359 590.057 269.359Z" fill="#E6E6E6"/>
<path d="M594.22 269.359H592.869C592.667 269.359 592.504 269.522 592.504 269.722V270.238C592.504 270.439 592.667 270.601 592.869 270.601H594.22C594.421 270.601 594.585 270.439 594.585 270.238V269.722C594.585 269.522 594.421 269.359 594.22 269.359Z" fill="#E6E6E6"/>
<path d="M598.381 269.359H597.03C596.828 269.359 596.665 269.522 596.665 269.722V270.238C596.665 270.439 596.828 270.601 597.03 270.601H598.381C598.583 270.601 598.746 270.439 598.746 270.238V269.722C598.746 269.522 598.583 269.359 598.381 269.359Z" fill="#E6E6E6"/>
<path d="M602.544 269.359H601.193C600.992 269.359 600.828 269.522 600.828 269.722V270.238C600.828 270.439 600.992 270.601 601.193 270.601H602.544C602.746 270.601 602.909 270.439 602.909 270.238V269.722C602.909 269.522 602.746 269.359 602.544 269.359Z" fill="#E6E6E6"/>
<path d="M606.706 269.359H605.355C605.154 269.359 604.99 269.522 604.99 269.722V270.238C604.99 270.439 605.154 270.601 605.355 270.601H606.706C606.908 270.601 607.071 270.439 607.071 270.238V269.722C607.071 269.522 606.908 269.359 606.706 269.359Z" fill="#E6E6E6"/>
<path d="M610.867 269.359H609.516C609.315 269.359 609.151 269.522 609.151 269.722V270.238C609.151 270.439 609.315 270.601 609.516 270.601H610.867C611.069 270.601 611.232 270.439 611.232 270.238V269.722C611.232 269.522 611.069 269.359 610.867 269.359Z" fill="#E6E6E6"/>
<path d="M615.03 269.359H613.679C613.478 269.359 613.314 269.522 613.314 269.722V270.238C613.314 270.439 613.478 270.601 613.679 270.601H615.03C615.232 270.601 615.395 270.439 615.395 270.238V269.722C615.395 269.522 615.232 269.359 615.03 269.359Z" fill="#E6E6E6"/>
<path d="M587.145 271.844H571.227C571.026 271.844 570.862 272.007 570.862 272.208V272.723C570.862 272.924 571.026 273.087 571.227 273.087H587.145C587.347 273.087 587.51 272.924 587.51 272.723V272.208C587.51 272.007 587.347 271.844 587.145 271.844Z" fill="#E6E6E6"/>
<path d="M633.384 171.771H527.118C527.008 171.769 526.903 171.724 526.826 171.645C526.748 171.566 526.705 171.461 526.705 171.351C526.705 171.241 526.748 171.135 526.826 171.057C526.903 170.978 527.008 170.933 527.118 170.93H633.384C633.495 170.933 633.6 170.978 633.677 171.057C633.754 171.135 633.797 171.241 633.797 171.351C633.797 171.461 633.754 171.566 633.677 171.645C633.6 171.724 633.495 171.769 633.384 171.771Z" fill="#CACACA"/>
<path d="M534.352 168.783C535.719 168.783 536.828 167.655 536.828 166.264C536.828 164.872 535.719 163.744 534.352 163.744C532.984 163.744 531.875 164.872 531.875 166.264C531.875 167.655 532.984 168.783 534.352 168.783Z" fill="#CCCCCC"/>
<path d="M542.906 168.783C544.274 168.783 545.383 167.655 545.383 166.264C545.383 164.872 544.274 163.744 542.906 163.744C541.538 163.744 540.43 164.872 540.43 166.264C540.43 167.655 541.538 168.783 542.906 168.783Z" fill="#CCCCCC"/>
<path d="M551.464 168.783C552.832 168.783 553.94 167.655 553.94 166.264C553.94 164.872 552.832 163.744 551.464 163.744C550.096 163.744 548.987 164.872 548.987 166.264C548.987 167.655 550.096 168.783 551.464 168.783Z" fill="#CCCCCC"/>
<path d="M628.233 164.369H622.155C622.035 164.371 621.92 164.42 621.836 164.506C621.751 164.592 621.704 164.707 621.704 164.827C621.704 164.947 621.751 165.062 621.836 165.147C621.92 165.233 622.035 165.282 622.155 165.285H628.233C628.353 165.282 628.468 165.233 628.552 165.147C628.637 165.062 628.684 164.947 628.684 164.827C628.684 164.707 628.637 164.592 628.552 164.506C628.468 164.42 628.353 164.371 628.233 164.369H628.233Z" fill="#CCCCCC"/>
<path d="M628.234 166.088H622.157C622.037 166.09 621.922 166.139 621.838 166.225C621.753 166.311 621.706 166.426 621.706 166.546C621.706 166.666 621.753 166.781 621.838 166.866C621.922 166.952 622.037 167.001 622.157 167.004H628.234C628.355 167.001 628.469 166.952 628.554 166.866C628.638 166.781 628.685 166.666 628.685 166.546C628.685 166.426 628.638 166.311 628.554 166.225C628.469 166.139 628.355 166.09 628.234 166.088H628.234Z" fill="#CCCCCC"/>
<path d="M628.233 167.805H622.155C622.035 167.807 621.92 167.856 621.836 167.942C621.751 168.027 621.704 168.143 621.704 168.262C621.704 168.382 621.751 168.498 621.836 168.583C621.92 168.669 622.035 168.718 622.155 168.72H628.233C628.353 168.718 628.468 168.669 628.552 168.583C628.637 168.498 628.684 168.382 628.684 168.262C628.684 168.143 628.637 168.027 628.552 167.942C628.468 167.856 628.353 167.807 628.233 167.805H628.233Z" fill="#CCCCCC"/>
<path d="M588.832 194.683H575.554C574.557 194.683 573.748 195.488 573.748 196.48C573.748 197.473 574.557 198.277 575.554 198.277H588.832C589.83 198.277 590.638 197.473 590.638 196.48C590.638 195.488 589.83 194.683 588.832 194.683Z" fill="#004B3D"/>
<path d="M597.408 201.871H566.974C565.976 201.871 565.168 202.676 565.168 203.668C565.168 204.661 565.976 205.466 566.974 205.466H597.408C598.406 205.466 599.214 204.661 599.214 203.668C599.214 202.676 598.406 201.871 597.408 201.871Z" fill="#E6E6E6"/>
<path d="M597.408 209.059H566.974C565.976 209.059 565.168 209.864 565.168 210.857C565.168 211.849 565.976 212.654 566.974 212.654H597.408C598.406 212.654 599.214 211.849 599.214 210.857C599.214 209.864 598.406 209.059 597.408 209.059Z" fill="#E6E6E6"/>
<path d="M392.368 321.048L386.247 318.134L394.656 292.672L403.69 296.972L392.368 321.048Z" fill="#FFB6B6"/>
<path d="M433.408 316.942C432.962 317.22 432.517 317.493 432.068 317.766C431.173 318.312 430.269 318.849 429.365 319.376C428.911 319.64 428.453 319.905 427.998 320.164V320.177L427.971 320.182L427.963 320.186L427.27 320.356L426.276 317.743L425.818 316.54L425.17 314.835L423.983 311.716L417.733 295.295L427.45 292.91L427.814 294.391H427.819L427.999 295.125L431.393 308.826L432.086 311.627L432.108 311.712L432.526 313.385L432.886 314.835L433.286 316.455L433.408 316.942Z" fill="#FFB6B6"/>
<path d="M491.371 259.275C490.755 260.259 490.125 261.239 489.491 262.21C488.313 264.018 487.103 265.799 485.863 267.553C485.863 267.557 485.858 267.557 485.854 267.562C485.13 268.229 484.33 268.81 483.47 269.293C483.435 269.32 483.394 269.338 483.358 269.36C482.725 269.708 482.052 269.977 481.353 270.161C481.101 270.224 480.845 270.287 480.593 270.349C479.685 270.564 478.785 270.747 477.891 270.908C476.299 271.19 474.725 271.392 473.16 271.517C473.034 271.53 472.909 271.539 472.783 271.548C466.348 272.018 460.085 271.262 453.547 270.023C450.319 269.414 447.023 268.685 443.61 267.929C442.495 267.678 441.376 267.432 440.243 267.186C440.157 267.168 440.067 267.145 439.977 267.128C438.359 266.774 436.713 266.425 435.027 266.081C432.905 265.647 430.715 265.226 428.44 264.828L428.602 268.018C428.736 270.472 429.249 272.891 430.121 275.191C431.093 278.018 431.862 280.256 430.238 284.914L429.456 287.169C429.862 288.289 430.001 289.487 429.863 290.669C429.725 291.851 429.313 292.986 428.66 293.983L428.503 294.22L435.027 310.646L435.45 311.711H432.109L427.999 311.715H421.034L410.985 291.652L410.504 290.694V290.645L411.543 252.089C411.556 251.749 411.583 251.404 411.628 251.064C411.811 249.518 412.302 248.024 413.072 246.669C413.841 245.314 414.874 244.125 416.111 243.171C417.296 242.25 418.653 241.572 420.103 241.177C421.553 240.782 423.068 240.679 424.559 240.872L427.999 241.315L435.027 242.218L439.977 242.858L440.076 242.872L454.676 244.751L455.724 240.5L455.917 240.429L462.063 238.187L483.322 230.433L483.376 230.415L484.774 229.905L484.941 230.173C484.99 230.254 485.04 230.334 485.085 230.415C486.467 232.88 487.592 235.48 488.443 238.173C489.875 242.573 491.053 247.05 491.973 251.583C492.013 251.78 492.049 251.959 492.081 252.12L492.094 252.17C492.108 252.246 492.117 252.295 492.121 252.308C492.543 254.654 492.282 257.071 491.371 259.275Z" fill="#2F2E41"/>
<path d="M492.267 245.066C492.2 244.779 492.114 244.489 492.024 244.207C491.31 242.072 490.479 239.978 489.533 237.934C488.472 235.607 487.2 233.115 485.684 230.417C484.952 229.11 484.163 227.751 483.319 226.34C482.897 225.633 482.458 224.913 482.002 224.179C481.984 224.145 481.965 224.113 481.944 224.081L481.813 223.866L460.779 226.667L452.947 227.71L452.479 231.593L452.367 232.555C452.362 232.555 452.362 232.555 452.367 232.56L452.052 235.182V235.186L451.634 238.65L451.598 238.645L439.975 237.146L427.997 235.602L421.562 234.775C420.071 234.581 418.556 234.685 417.106 235.08C415.655 235.475 414.298 236.153 413.114 237.075C411.878 238.028 410.845 239.217 410.075 240.573C409.305 241.928 408.814 243.422 408.631 244.967C408.59 245.281 408.563 245.603 408.55 245.921L402.48 260.234C398.848 268.795 396.534 277.852 395.618 287.099L391.167 301.261L391.801 301.319L401.234 302.191L403.725 302.424L409.211 294.455C409.836 293.547 410.429 292.611 410.982 291.654C411.893 290.09 412.702 288.47 413.406 286.804L425.272 258.704C426.189 258.861 427.097 259.01 427.997 259.151C432.156 259.823 436.148 260.37 439.975 260.794C452.416 262.176 463.189 262.284 472.78 261.111C475.473 260.785 478.077 260.355 480.59 259.823C481.512 259.63 482.422 259.423 483.319 259.201C483.531 259.152 483.738 259.102 483.944 259.049C485.803 258.572 487.511 257.639 488.913 256.335C490.315 255.031 491.366 253.398 491.97 251.585C492.691 249.485 492.794 247.223 492.267 245.066Z" fill="#2F2E41"/>
<path d="M394.324 316.89L387.701 313.731L386.662 313.234L385.003 317.288L373.421 319.825C372.848 319.95 372.33 320.254 371.944 320.692C371.557 321.131 371.321 321.681 371.271 322.262C371.221 322.843 371.359 323.425 371.664 323.923C371.97 324.421 372.428 324.808 372.971 325.029L384.288 329.624L387.881 326.407L387 330.725L391.262 332.456L395.934 317.659L394.324 316.89Z" fill="#2F2E41"/>
<path d="M435.027 310.646L435.449 311.711H435.027V310.646Z" fill="#2F2E41"/>
<path d="M432.72 311.939L425.781 314.331L424.691 314.706L426.379 318.748L419.942 328.661C419.624 329.151 419.471 329.729 419.506 330.311C419.541 330.894 419.763 331.45 420.138 331.898C420.513 332.346 421.023 332.663 421.592 332.803C422.161 332.942 422.761 332.897 423.302 332.673L434.593 328.014L434.871 323.213L437.298 326.898L441.551 325.144L434.408 311.358L432.72 311.939Z" fill="#2F2E41"/>
<path d="M390.599 163.891C390.928 164.529 391.393 165.088 391.963 165.527C392.532 165.967 393.191 166.277 393.894 166.435C394.597 166.594 395.326 166.597 396.03 166.445C396.734 166.292 397.396 165.988 397.97 165.554L412.563 175.194L412.59 166.137L398.728 158.371C397.931 157.461 396.826 156.873 395.623 156.72C394.42 156.566 393.202 156.857 392.199 157.538C391.197 158.218 390.481 159.241 390.186 160.412C389.891 161.583 390.038 162.821 390.599 163.891V163.891Z" fill="#FFB6B6"/>
<path d="M401.501 168.078L408.309 160.37L436.032 176.747L472.781 173.398C474.598 173.233 476.428 173.467 478.144 174.085C479.859 174.703 481.416 175.689 482.706 176.973C483.995 178.257 484.984 179.808 485.603 181.516C486.222 183.223 486.456 185.045 486.288 186.853C485.981 190.117 484.385 193.127 481.851 195.222C479.316 197.317 476.05 198.325 472.769 198.027L431.381 194.214L401.501 168.078Z" fill="#CCCCCC"/>
<path d="M486.796 168.197L486.732 168.117C481.562 167.61 476.355 168.605 471.743 170.984C467.13 173.362 463.31 177.021 460.746 181.516L457.627 186.983C447.539 199.256 454.869 207.72 455.308 208.978L451.807 225.045L452.591 230.422L452.983 232.019L492.954 252.803C495.23 241.922 493.029 232.651 484.739 225.568L492.76 200.73C494.539 195.239 494.925 189.394 493.884 183.718C492.844 178.042 490.408 172.71 486.796 168.197Z" fill="#CCCCCC"/>
<path d="M455.014 288.861H442.193C441.488 288.86 440.806 288.606 440.274 288.146C439.742 287.686 439.394 287.05 439.295 286.355C438.503 280.558 438.503 274.681 439.295 268.884C439.393 268.197 439.733 267.568 440.255 267.109C440.778 266.65 441.447 266.391 442.144 266.379C446.178 264.579 450.522 264.579 455.058 266.378C455.48 266.384 455.897 266.481 456.277 266.664C456.658 266.847 456.994 267.11 457.261 267.436C457.54 267.774 457.739 268.17 457.845 268.595C457.951 269.02 457.96 269.463 457.872 269.892C456.842 274.993 456.842 280.246 457.872 285.346C457.96 285.775 457.951 286.219 457.845 286.643C457.739 287.068 457.54 287.465 457.261 287.803C456.989 288.135 456.646 288.401 456.257 288.584C455.869 288.767 455.444 288.862 455.014 288.861Z" fill="#004B3D"/>
<path d="M453.671 273.04H442.88C442.791 273.041 442.702 273.024 442.62 272.99C442.537 272.957 442.462 272.908 442.399 272.845C442.336 272.783 442.285 272.709 442.251 272.627C442.217 272.545 442.199 272.457 442.199 272.369C442.199 272.28 442.217 272.192 442.251 272.11C442.285 272.029 442.336 271.954 442.399 271.892C442.462 271.829 442.537 271.78 442.62 271.747C442.702 271.713 442.791 271.697 442.88 271.697H453.671C453.76 271.697 453.848 271.713 453.931 271.747C454.013 271.78 454.088 271.829 454.152 271.892C454.215 271.954 454.265 272.029 454.299 272.11C454.334 272.192 454.351 272.28 454.351 272.369C454.351 272.457 454.334 272.545 454.299 272.627C454.265 272.709 454.215 272.783 454.152 272.845C454.088 272.908 454.013 272.957 453.931 272.99C453.848 273.024 453.76 273.041 453.671 273.04Z" fill="white"/>
<path d="M453.671 278.409H442.88C442.791 278.41 442.702 278.393 442.62 278.359C442.537 278.326 442.462 278.277 442.399 278.214C442.336 278.152 442.285 278.078 442.251 277.996C442.217 277.914 442.199 277.826 442.199 277.738C442.199 277.649 442.217 277.561 442.251 277.479C442.285 277.398 442.336 277.323 442.399 277.261C442.462 277.199 442.537 277.149 442.62 277.116C442.702 277.082 442.791 277.066 442.88 277.066H453.671C453.76 277.066 453.848 277.082 453.931 277.116C454.013 277.149 454.088 277.199 454.152 277.261C454.215 277.323 454.265 277.398 454.299 277.479C454.334 277.561 454.351 277.649 454.351 277.738C454.351 277.826 454.334 277.914 454.299 277.996C454.265 278.078 454.215 278.152 454.152 278.214C454.088 278.277 454.013 278.326 453.931 278.359C453.848 278.393 453.76 278.41 453.671 278.409Z" fill="white"/>
<path d="M453.671 283.778H442.88C442.791 283.779 442.703 283.762 442.62 283.729C442.537 283.696 442.462 283.646 442.399 283.584C442.336 283.521 442.285 283.447 442.251 283.365C442.217 283.283 442.199 283.196 442.199 283.107C442.199 283.018 442.217 282.931 442.251 282.849C442.285 282.767 442.336 282.693 442.399 282.63C442.462 282.568 442.537 282.518 442.62 282.485C442.703 282.452 442.791 282.435 442.88 282.436H453.671C453.76 282.435 453.849 282.452 453.931 282.485C454.014 282.518 454.089 282.568 454.152 282.63C454.216 282.693 454.266 282.767 454.3 282.849C454.334 282.931 454.352 283.018 454.352 283.107C454.352 283.196 454.334 283.283 454.3 283.365C454.266 283.447 454.216 283.521 454.152 283.584C454.089 283.646 454.014 283.696 453.931 283.729C453.849 283.762 453.76 283.779 453.671 283.778Z" fill="white"/>
<path d="M392.95 168.313H380.129C379.424 168.313 378.743 168.059 378.21 167.599C377.678 167.139 377.33 166.503 377.231 165.808C376.44 160.011 376.44 154.134 377.231 148.336C377.329 147.65 377.67 147.021 378.192 146.562C378.714 146.102 379.383 145.843 380.08 145.831C384.114 144.032 388.458 144.032 392.995 145.831C393.417 145.837 393.833 145.934 394.214 146.117C394.594 146.299 394.93 146.563 395.197 146.888C395.476 147.227 395.676 147.623 395.782 148.048C395.887 148.473 395.897 148.916 395.809 149.345C394.779 154.445 394.779 159.699 395.809 164.799C395.897 165.228 395.887 165.671 395.782 166.096C395.676 166.521 395.476 166.917 395.197 167.256C394.925 167.587 394.582 167.854 394.194 168.037C393.805 168.22 393.38 168.314 392.95 168.313Z" fill="#004B3D"/>
<path d="M391.607 152.493H380.816C380.727 152.493 380.639 152.476 380.556 152.443C380.474 152.41 380.399 152.36 380.335 152.298C380.272 152.236 380.222 152.161 380.188 152.08C380.153 151.998 380.136 151.91 380.136 151.821C380.136 151.733 380.153 151.645 380.188 151.563C380.222 151.481 380.272 151.407 380.335 151.345C380.399 151.282 380.474 151.233 380.556 151.2C380.639 151.166 380.727 151.149 380.816 151.15H391.607C391.696 151.149 391.785 151.166 391.867 151.2C391.95 151.233 392.025 151.282 392.088 151.345C392.151 151.407 392.202 151.481 392.236 151.563C392.27 151.645 392.288 151.733 392.288 151.821C392.288 151.91 392.27 151.998 392.236 152.08C392.202 152.161 392.151 152.236 392.088 152.298C392.025 152.36 391.95 152.41 391.867 152.443C391.785 152.476 391.696 152.493 391.607 152.493Z" fill="white"/>
<path d="M391.607 157.862H380.816C380.727 157.862 380.639 157.846 380.556 157.812C380.474 157.779 380.399 157.73 380.335 157.667C380.272 157.605 380.222 157.531 380.188 157.449C380.153 157.367 380.136 157.279 380.136 157.19C380.136 157.102 380.153 157.014 380.188 156.932C380.222 156.85 380.272 156.776 380.335 156.714C380.399 156.651 380.474 156.602 380.556 156.569C380.639 156.535 380.727 156.519 380.816 156.519H391.607C391.696 156.519 391.785 156.535 391.867 156.569C391.95 156.602 392.025 156.651 392.088 156.714C392.151 156.776 392.202 156.85 392.236 156.932C392.27 157.014 392.288 157.102 392.288 157.19C392.288 157.279 392.27 157.367 392.236 157.449C392.202 157.531 392.151 157.605 392.088 157.667C392.025 157.73 391.95 157.779 391.867 157.812C391.785 157.846 391.696 157.862 391.607 157.862Z" fill="white"/>
<path d="M391.608 163.231H380.817C380.727 163.232 380.639 163.215 380.556 163.182C380.474 163.148 380.399 163.099 380.336 163.037C380.272 162.974 380.222 162.9 380.188 162.818C380.153 162.736 380.136 162.649 380.136 162.56C380.136 162.471 380.153 162.383 380.188 162.302C380.222 162.22 380.272 162.145 380.336 162.083C380.399 162.021 380.474 161.971 380.556 161.938C380.639 161.905 380.727 161.888 380.817 161.889H391.608C391.697 161.888 391.785 161.905 391.868 161.938C391.95 161.971 392.025 162.021 392.089 162.083C392.152 162.145 392.202 162.22 392.237 162.302C392.271 162.383 392.289 162.471 392.289 162.56C392.289 162.649 392.271 162.736 392.237 162.818C392.202 162.9 392.152 162.974 392.089 163.037C392.025 163.099 391.95 163.148 391.868 163.182C391.785 163.215 391.697 163.232 391.608 163.231Z" fill="white"/>
<path d="M167.874 201.055H155.053C154.348 201.054 153.667 200.8 153.134 200.34C152.602 199.88 152.254 199.244 152.155 198.549C151.364 192.752 151.364 186.875 152.155 181.078C152.253 180.391 152.594 179.762 153.116 179.303C153.638 178.844 154.307 178.585 155.004 178.573C159.038 176.773 163.382 176.773 167.918 178.572C168.341 178.578 168.757 178.675 169.138 178.858C169.518 179.041 169.854 179.304 170.121 179.63C170.4 179.968 170.6 180.364 170.705 180.789C170.811 181.214 170.82 181.657 170.733 182.086C169.703 187.187 169.703 192.44 170.733 197.54C170.82 197.969 170.811 198.412 170.705 198.837C170.6 199.262 170.4 199.659 170.121 199.997C169.849 200.328 169.506 200.595 169.118 200.778C168.729 200.961 168.304 201.056 167.874 201.055Z" fill="#004B3D"/>
<path d="M166.531 185.234H155.74C155.651 185.234 155.563 185.218 155.48 185.184C155.398 185.151 155.322 185.102 155.259 185.039C155.196 184.977 155.146 184.903 155.111 184.821C155.077 184.739 155.06 184.651 155.06 184.563C155.06 184.474 155.077 184.386 155.111 184.304C155.146 184.223 155.196 184.148 155.259 184.086C155.322 184.023 155.398 183.974 155.48 183.941C155.563 183.907 155.651 183.891 155.74 183.891H166.531C166.62 183.891 166.709 183.907 166.791 183.941C166.874 183.974 166.949 184.023 167.012 184.086C167.075 184.148 167.125 184.223 167.16 184.304C167.194 184.386 167.212 184.474 167.212 184.563C167.212 184.651 167.194 184.739 167.16 184.821C167.125 184.903 167.075 184.977 167.012 185.039C166.949 185.102 166.874 185.151 166.791 185.184C166.709 185.218 166.62 185.234 166.531 185.234Z" fill="white"/>
<path d="M166.531 190.603H155.74C155.651 190.604 155.563 190.587 155.48 190.553C155.398 190.52 155.322 190.471 155.259 190.408C155.196 190.346 155.146 190.272 155.111 190.19C155.077 190.108 155.06 190.02 155.06 189.932C155.06 189.843 155.077 189.755 155.111 189.673C155.146 189.592 155.196 189.517 155.259 189.455C155.322 189.393 155.398 189.343 155.48 189.31C155.563 189.277 155.651 189.26 155.74 189.261H166.531C166.62 189.26 166.709 189.277 166.791 189.31C166.874 189.343 166.949 189.393 167.012 189.455C167.075 189.517 167.125 189.592 167.16 189.673C167.194 189.755 167.212 189.843 167.212 189.932C167.212 190.02 167.194 190.108 167.16 190.19C167.125 190.272 167.075 190.346 167.012 190.408C166.949 190.471 166.874 190.52 166.791 190.553C166.709 190.587 166.62 190.604 166.531 190.603Z" fill="white"/>
<path d="M166.532 195.972H155.74C155.651 195.973 155.563 195.956 155.48 195.923C155.398 195.89 155.323 195.84 155.259 195.778C155.196 195.716 155.146 195.641 155.112 195.559C155.077 195.478 155.06 195.39 155.06 195.301C155.06 195.212 155.077 195.125 155.112 195.043C155.146 194.961 155.196 194.887 155.259 194.824C155.323 194.762 155.398 194.713 155.48 194.679C155.563 194.646 155.651 194.629 155.74 194.63H166.532C166.621 194.629 166.709 194.646 166.792 194.679C166.874 194.713 166.949 194.762 167.013 194.824C167.076 194.887 167.126 194.961 167.16 195.043C167.195 195.125 167.212 195.212 167.212 195.301C167.212 195.39 167.195 195.478 167.16 195.559C167.126 195.641 167.076 195.716 167.013 195.778C166.949 195.84 166.874 195.89 166.792 195.923C166.709 195.956 166.621 195.973 166.532 195.972Z" fill="white"/>
<path d="M458.769 272.551C459.39 272.187 459.922 271.691 460.329 271.099C460.736 270.508 461.008 269.834 461.126 269.127C461.243 268.419 461.203 267.695 461.008 267.004C460.814 266.314 460.47 265.674 460 265.131L468.805 250.062L459.717 250.572L452.749 264.803C451.883 265.649 451.36 266.781 451.277 267.986C451.195 269.19 451.559 270.383 452.301 271.338C453.043 272.293 454.111 272.944 455.303 273.168C456.496 273.391 457.729 273.172 458.769 272.551V272.551Z" fill="#FFB6B6"/>
<path d="M462.323 261.473L454.187 255.167L468.971 226.656L463.431 190.349C463.157 188.554 463.284 186.722 463.802 184.981C464.32 183.241 465.216 181.635 466.428 180.278C467.64 178.921 469.137 177.847 470.813 177.13C472.489 176.414 474.303 176.073 476.126 176.133C479.419 176.245 482.533 177.652 484.784 180.045C487.036 182.438 488.242 185.623 488.137 188.9L486.768 230.241L462.323 261.473Z" fill="#CCCCCC"/>
<path d="M69.0821 253.683C69.5945 253.171 69.9878 252.553 70.2343 251.872C70.4807 251.192 70.5742 250.467 70.5083 249.747C70.4424 249.027 70.2187 248.33 69.8529 247.705C69.4871 247.08 68.988 246.543 68.391 246.131L76.3038 207.02L67.5656 209.812L61.2318 247.642C60.6028 248.686 60.3804 249.923 60.6069 251.12C60.8334 252.316 61.4929 253.388 62.4606 254.132C63.4282 254.877 64.6367 255.243 65.8571 255.16C67.0775 255.077 68.225 254.552 69.0821 253.683H69.0821Z" fill="#9E616A"/>
<path d="M80.766 170.935L75.3444 166.862C75.3444 166.862 70.5617 166.525 69.7146 175.108C68.8675 183.691 67.1282 200.418 67.1282 200.418L58.832 238.656L70.3162 241.164L79.202 199.899L84.5326 187.645L80.766 170.935Z" fill="#CCCCCC"/>
<path d="M71.8262 233.373L102.377 232.866L104.923 212.091H71.8262V233.373Z" fill="#9E616A"/>
<path d="M99.3228 361.215H106.376L109.731 334.143L99.3213 334.144L99.3228 361.215Z" fill="#9E616A"/>
<path d="M55.1377 361.866L62.1906 361.816L65.3551 334.722L56.1823 336.816L55.1377 361.866Z" fill="#9E616A"/>
<path d="M77.1966 194.2L75.5986 198.334L75.9179 202.469L107.194 213.249L105.643 195.154L102.127 191.019L77.1966 194.2Z" fill="#FFB6B6"/>
<path d="M90.615 156.991C96.7845 156.991 101.786 152.014 101.786 145.874C101.786 139.735 96.7845 134.758 90.615 134.758C84.4456 134.758 79.4443 139.735 79.4443 145.874C79.4443 152.014 84.4456 156.991 90.615 156.991Z" fill="#9E616A"/>
<path d="M97.5738 357.753L108.723 357.091V361.844L119.323 369.129C119.846 369.489 120.241 370.006 120.448 370.604C120.656 371.203 120.665 371.852 120.476 372.456C120.287 373.061 119.908 373.589 119.396 373.964C118.883 374.34 118.264 374.542 117.627 374.542H104.354L102.066 369.84L101.173 374.542H96.168L97.5738 357.753Z" fill="#2F2E41"/>
<path d="M52.7252 358.42L63.8694 357.68L63.9029 362.433L74.5537 369.644C75.0798 370 75.4777 370.514 75.6894 371.112C75.9011 371.709 75.9154 372.357 75.7304 372.963C75.5453 373.569 75.1704 374.1 74.6606 374.479C74.1507 374.858 73.5326 375.064 72.8963 375.069L59.6232 375.161L57.3022 370.475L56.442 375.183L51.4375 375.218L52.7252 358.42Z" fill="#2F2E41"/>
<path d="M52.9439 341.109L58.0796 300.258L64.1898 257.188C59.7152 248.919 69.7909 223.239 69.7909 223.239L71.2131 223.307L103.404 229.35L103.397 229.319C109.981 247.19 112.163 256.018 111.802 275.049L110.505 343.459H110.912C111.587 343.459 112.234 343.726 112.712 344.201C113.189 344.677 113.458 345.321 113.458 345.993C113.458 346.665 113.189 347.309 112.712 347.784C112.234 348.26 111.587 348.527 110.912 348.527H98.182C97.8473 348.527 97.5158 348.462 97.2064 348.335C96.897 348.208 96.6158 348.021 96.379 347.786C96.1421 347.551 95.9542 347.271 95.8259 346.964C95.6977 346.656 95.6317 346.326 95.6317 345.993C95.6317 345.66 95.6977 345.33 95.8259 345.022C95.9542 344.715 96.1421 344.435 96.379 344.2C96.6158 343.965 96.897 343.778 97.2064 343.651C97.5158 343.524 97.8473 343.459 98.182 343.459H98.5103L86.826 262.003L76.9195 296.205L65.7174 340.795C69.7909 339.782 69.1584 342.13 69.1584 343.459C69.1584 344.131 68.8902 344.776 68.4127 345.251C67.9353 345.726 67.2877 345.993 66.6125 345.993H53.8828C53.2908 345.994 52.7171 345.789 52.2606 345.413C51.8041 345.038 51.4935 344.516 51.3822 343.938C51.271 343.359 51.3661 342.76 51.6512 342.243C51.9363 341.727 52.3935 341.326 52.944 341.109H52.9439Z" fill="#2F2E41"/>
<path d="M67.2838 224.569L68.3022 214.435C68.4079 214.022 68.6425 213.652 68.9723 213.379C69.302 213.107 69.71 212.945 70.1378 212.918C70.5622 208.09 72.3474 187.264 72.454 186.355L72.4582 186.317L73.27 169.06C73.2995 168.433 73.5599 167.839 74.0016 167.391C74.4433 166.943 75.0353 166.673 75.6645 166.632L79.9522 166.353C80.011 166.351 80.0668 166.327 80.1077 166.285C80.1486 166.242 80.1715 166.186 80.1715 166.128C80.1715 165.656 80.2647 165.19 80.4459 164.755C80.6271 164.319 80.8927 163.924 81.2275 163.59C81.5624 163.257 81.9599 162.993 82.3973 162.813C82.8348 162.632 83.3037 162.539 83.7772 162.539H96.4718C97.2941 162.54 98.0879 162.839 98.7044 163.38C99.3209 163.922 99.7176 164.668 99.82 165.48C99.8256 165.536 99.8523 165.588 99.8945 165.625C99.9368 165.662 99.9917 165.682 100.048 165.681H100.05C101.492 165.651 102.897 166.137 104.011 167.051C105.124 167.964 105.871 169.244 106.117 170.659C107.852 180.708 111.33 203.514 109.611 216.193C109.012 220.607 110.303 217.111 110.529 220.804C110.552 221.161 110.503 221.519 110.386 221.857C110.27 222.195 110.087 222.507 109.849 222.775C110.336 222.951 110.734 223.311 110.956 223.778C111.178 224.244 111.206 224.779 111.034 225.266L111.258 225.211C111.192 225.469 111.076 225.712 110.917 225.925C110.757 226.139 110.557 226.319 110.327 226.455C110.097 226.592 109.843 226.682 109.578 226.721C109.314 226.759 109.044 226.746 108.785 226.681L75.5725 231.159C74.4817 230.885 67.0088 225.655 67.2838 224.569Z" fill="#CCCCCC"/>
<path d="M156.032 183.366C155.824 184.058 155.465 184.697 154.982 185.237C154.499 185.777 153.903 186.205 153.236 186.491C152.569 186.777 151.846 186.914 151.12 186.893C150.394 186.871 149.681 186.691 149.033 186.365L136.193 198.026L134.488 189.052L146.95 179.384C147.572 178.335 148.559 177.55 149.723 177.177C150.888 176.805 152.149 176.87 153.268 177.361C154.388 177.851 155.287 178.734 155.797 179.841C156.306 180.947 156.39 182.202 156.032 183.366H156.032Z" fill="#9E616A"/>
<path d="M111.344 174.453C111.344 174.453 106.867 164.384 101.212 166.386C95.5576 168.387 98.4772 178.156 98.4772 178.156L119.722 210.013C119.722 210.013 150.364 190.452 146.638 190.313C142.912 190.175 141.797 183.431 141.797 183.431L125.602 191.484L125.054 188.617L124.176 189.491L121.91 187.716L111.344 174.453Z" fill="#CCCCCC"/>
<path d="M477.58 163.392C486.194 163.392 493.176 156.443 493.176 147.872C493.176 139.301 486.194 132.352 477.58 132.352C468.967 132.352 461.984 139.301 461.984 147.872C461.984 156.443 468.967 163.392 477.58 163.392Z" fill="#FFB6B6"/>
<path d="M527.634 170.71C525.834 173.248 523.207 175.088 520.199 175.918C518.995 176.275 517.753 176.485 516.498 176.544C516.343 175.132 515.972 173.752 515.398 172.452C515.456 173.836 515.263 175.219 514.827 176.534C512.943 176.428 511.101 175.937 509.416 175.092C507.761 174.263 506.323 173.062 505.215 171.584C504.108 170.106 503.362 168.391 503.037 166.576C502.376 162.331 504.31 158.163 505.009 153.924C505.712 149.686 504.394 144.317 500.224 143.203C497.049 142.354 497.405 142.721 494.765 144.671C497.511 148.712 487.369 163.517 483.219 162.226C480.872 161.496 479.37 159.353 478.886 159.353C475.624 164.945 481.766 174.367 475.576 176.324L476.086 175.816C479.822 171.243 472.012 161.562 475.749 156.988C476.791 155.708 477.901 154.192 477.593 152.574C477.301 151.036 474.847 150.222 474.129 151.486C475.422 148.54 473.513 144.608 470.354 143.851C467.548 143.178 467.599 144.007 464.783 144.368C464.599 143.157 464.255 141.975 463.76 140.854C463.811 142.062 463.67 143.271 463.34 144.435C462.345 144.416 461.384 144.07 460.607 143.452C458.31 141.61 458.775 137.742 460.825 135.632C462.878 133.523 465.928 132.763 468.837 132.271C469.683 126.411 485.93 125.8 488.084 131.655C489.001 127.283 494.502 125.013 498.777 126.37C503.053 127.727 506.02 131.7 507.582 135.888C509.144 140.072 509.58 144.576 510.542 148.936C511.504 153.295 513.13 157.735 516.479 160.707C519.827 163.675 525.283 164.658 528.811 161.9C529.324 163.358 529.485 164.914 529.28 166.445C529.076 167.975 528.512 169.436 527.634 170.71Z" fill="#2F2E41"/>
<path d="M673.952 206.126L671.768 217.028C671.604 217.861 671.432 218.709 671.245 219.55C669.42 219.174 667.528 219.279 665.756 219.855C667.162 221.854 668.421 223.95 669.525 226.128C668.149 230.347 666.13 234.247 662.75 237.067C660.493 238.908 657.797 240.14 654.922 240.643C652.047 241.146 649.09 240.904 646.337 239.939L646.434 239.507C642.8 232.49 644.774 223.643 649.291 217.162C651.594 213.964 654.324 211.093 657.404 208.627C660.455 206.097 663.752 203.827 667.02 201.587C667.754 201.085 668.622 200.812 669.512 200.803C670.403 200.794 671.276 201.049 672.02 201.536C672.764 202.024 673.346 202.721 673.69 203.538C674.034 204.356 674.125 205.257 673.952 206.126Z" fill="#E4E4E4"/>
<path d="M647.114 266.169C646.195 259.507 645.25 252.76 645.895 246.026C646.468 240.047 648.3 234.206 652.033 229.417C654.014 226.88 656.425 224.706 659.157 222.993C659.87 222.546 660.525 223.669 659.816 224.114C655.089 227.087 651.433 231.477 649.375 236.65C647.102 242.404 646.737 248.676 647.132 254.788C647.369 258.484 647.87 262.154 648.377 265.823C648.417 265.989 648.393 266.164 648.308 266.313C648.223 266.461 648.085 266.572 647.92 266.622C647.753 266.667 647.575 266.644 647.425 266.559C647.275 266.474 647.164 266.334 647.117 266.168L647.114 266.169Z" fill="#F2F2F2"/>
<path d="M699.111 375.772L0.891675 376C0.655988 376 0.430193 375.906 0.263778 375.74C0.0973629 375.574 0.00390625 375.349 0.00390625 375.114C0.00390625 374.88 0.0973629 374.655 0.263778 374.489C0.430193 374.323 0.655988 374.229 0.891675 374.228L699.111 374C699.347 374 699.573 374.094 699.739 374.26C699.905 374.426 699.999 374.651 699.999 374.886C699.999 375.12 699.905 375.345 699.739 375.511C699.573 375.677 699.347 375.771 699.111 375.772Z" fill="#CACACA"/>
<path d="M77.4674 139.068C75.7541 139.886 73.8363 138.655 72.3572 137.436L72.8863 137.89C70.2722 140.421 69.0499 144.063 68.4527 147.647C67.8549 151.228 67.7883 154.89 67.0356 158.446C66.2824 161.997 64.7198 165.566 61.8012 167.741C57.8912 170.655 52.4984 170.468 47.7 169.575C47.6361 169.562 47.5765 169.552 47.5126 169.539C48.8037 165.829 49.3285 161.898 49.0556 157.982C47.7694 161.907 45.5798 165.478 42.6613 168.412C39.4799 167.541 36.3746 166.415 33.3758 165.045C31.4355 164.156 29.3462 162.941 28.8077 160.883C28.2678 158.841 29.5215 156.699 31.1978 155.409C32.8742 154.12 34.9317 153.447 36.8414 152.529C38.7481 151.614 40.6348 150.311 41.3982 148.343C43.159 143.815 38.1431 138.621 40.0979 134.17C41.0618 131.982 43.423 130.792 45.6422 129.874C49.0301 128.477 52.5091 127.309 56.0553 126.378C59.1683 125.561 62.4188 124.926 65.5901 125.462C68.7614 125.998 71.8683 127.917 73.0096 130.914C74.9141 131.555 76.9359 132.277 78.1581 133.872C79.3798 135.463 79.2813 138.203 77.4674 139.068Z" fill="#2F2E41"/>
<path d="M92.7112 133.822C87.81 129.971 83.8472 130.629 80.7902 133.021C80.2762 132.452 78.0892 134.017 77.3487 133.792L74.6703 138.796C73.2921 141.216 72.7266 143.687 72.9494 145.077C70.4142 152.152 76.4261 156.93 83.5358 159.452C86.3727 160.466 89.468 160.511 92.3332 159.579L92.4206 158.374L92.959 159.362C92.959 159.362 99.4586 172.68 100.994 173.278C100.063 170.872 97.6046 159.438 96.9185 157.055C95.9777 153.812 96.6203 148.66 97.1733 145.501C97.5179 143.554 97.5359 141.563 97.2266 139.61L97.2129 139.525L98.7336 142.58L102.146 140.445C100.842 136.665 100.816 132.143 92.7112 133.822Z" fill="#2F2E41"/>
</g>
<defs>
<clipPath id="clip0_8133_1983">
<rect width="700" height="376" fill="white"/>
</clipPath>
</defs>
</svg>
