<svg width="600" height="400" viewBox="0 0 600 400" fill="none" xmlns="http://www.w3.org/2000/svg">
<rect width="600" height="400" fill="#DEDEDE"/>
<g clip-path="url(#clip0_3_3)">
<path d="M346.33 294.348C344.742 294.347 343.18 293.945 341.789 293.18L212.588 222.52C210.382 221.31 208.745 219.275 208.038 216.859C207.33 214.444 207.61 211.847 208.815 209.638L263.338 109.942C263.936 108.848 264.744 107.883 265.715 107.102C266.686 106.32 267.802 105.738 268.998 105.387C270.194 105.037 271.448 104.925 272.687 105.059C273.926 105.194 275.127 105.57 276.221 106.169L405.421 176.828C407.628 178.038 409.264 180.074 409.972 182.489C410.679 184.904 410.4 187.501 409.195 189.71L354.671 289.406C354.076 290.502 353.269 291.469 352.298 292.251C351.326 293.032 350.209 293.614 349.012 293.961C348.141 294.217 347.238 294.347 346.33 294.348ZM342.57 291.752C344.4 292.753 346.552 292.986 348.554 292.4C350.556 291.813 352.243 290.456 353.244 288.626L407.767 188.929C408.765 187.099 408.997 184.947 408.411 182.946C407.825 180.945 406.469 179.258 404.641 178.255L275.44 107.596C273.61 106.595 271.457 106.362 269.455 106.949C267.454 107.535 265.767 108.893 264.766 110.723L210.242 210.419C209.244 212.249 209.012 214.401 209.599 216.402C210.185 218.403 211.541 220.09 213.369 221.093L342.57 291.752Z" fill="#EEEEEE"/>
<path d="M348.994 259.48C347.508 259.479 346.045 259.105 344.741 258.391L240.286 201.265C239.27 200.71 238.373 199.961 237.647 199.059C236.92 198.158 236.379 197.122 236.054 196.011C235.728 194.9 235.625 193.735 235.75 192.584C235.875 191.433 236.226 190.318 236.782 189.303L269.345 129.761C269.901 128.746 270.651 127.849 271.552 127.124C272.454 126.398 273.49 125.857 274.601 125.532C275.712 125.206 276.876 125.103 278.026 125.227C279.177 125.352 280.292 125.702 281.308 126.257L385.763 183.383C386.778 183.939 387.674 184.689 388.4 185.59C389.126 186.492 389.667 187.528 389.992 188.639C390.318 189.749 390.421 190.913 390.296 192.064C390.172 193.215 389.822 194.33 389.266 195.345L389.148 195.28L389.266 195.345L356.703 254.887C355.951 256.276 354.837 257.435 353.48 258.243C352.123 259.052 350.574 259.479 348.994 259.48Z" fill="#EEEEEE"/>
<path d="M345.752 294.322H198.492C196.155 294.319 193.915 293.39 192.262 291.738C190.61 290.085 189.681 287.845 189.678 285.508V171.876C189.681 169.54 190.61 167.299 192.262 165.647C193.915 163.995 196.155 163.065 198.492 163.063H345.752C348.089 163.065 350.329 163.995 351.981 165.647C353.634 167.299 354.563 169.54 354.566 171.876V285.508C354.563 287.845 353.634 290.085 351.981 291.738C350.329 293.39 348.089 294.319 345.752 294.322Z" fill="#EEEEEE"/>
<path d="M345.752 295H198.492C195.975 294.997 193.563 293.996 191.783 292.217C190.004 290.437 189.003 288.025 189 285.508V171.876C189.003 169.36 190.004 166.947 191.783 165.168C193.563 163.388 195.975 162.387 198.492 162.384H345.752C348.269 162.387 350.681 163.388 352.461 165.168C354.24 166.947 355.241 169.36 355.244 171.876V285.508C355.241 288.025 354.24 290.437 352.461 292.217C350.681 293.996 348.269 294.997 345.752 295ZM198.492 164.012C196.407 164.014 194.408 164.843 192.933 166.318C191.459 167.792 190.63 169.791 190.627 171.876V285.508C190.63 287.593 191.459 289.592 192.933 291.067C194.408 292.541 196.407 293.37 198.492 293.373H345.752C347.837 293.37 349.836 292.541 351.311 291.067C352.785 289.592 353.614 287.593 353.617 285.508V171.876C353.614 169.791 352.785 167.792 351.311 166.318C349.836 164.843 347.837 164.014 345.752 164.012H198.492Z" fill="#E1E1E1"/>
<path d="M295.039 200.43C293.328 200.429 291.64 200.825 290.108 201.586C288.577 202.348 287.242 203.455 286.211 204.82C285.104 204.343 283.896 204.149 282.695 204.255C281.494 204.361 280.339 204.763 279.332 205.426C278.325 206.088 277.499 206.991 276.927 208.052C276.355 209.112 276.055 210.299 276.055 211.504H306.113C306.113 210.05 305.826 208.61 305.27 207.266C304.713 205.923 303.898 204.702 302.869 203.674C301.841 202.645 300.62 201.83 299.277 201.273C297.933 200.717 296.493 200.43 295.039 200.43Z" fill="#E6E6E6"/>
<path d="M229.191 243.776C239.04 243.776 247.024 235.792 247.024 225.943C247.024 216.094 239.04 208.11 229.191 208.11C219.342 208.11 211.357 216.094 211.357 225.943C211.357 235.792 219.342 243.776 229.191 243.776Z" fill="#CACACA"/>
<path d="M333.646 262.695C332.992 262.849 332.322 262.927 331.65 262.926H212.594C211.128 262.928 209.685 262.558 208.401 261.849L208.719 261.393L222.002 242.266L241.686 213.928L241.973 213.513L245.07 209.055C245.278 208.755 245.556 208.51 245.879 208.34C246.203 208.171 246.563 208.083 246.928 208.083C247.293 208.083 247.653 208.171 247.976 208.34C248.3 208.51 248.577 208.755 248.786 209.055L259.075 223.865V223.868L265.128 232.584L279.577 253.385L301.493 222.102C301.701 221.804 301.979 221.56 302.302 221.392C302.625 221.224 302.983 221.136 303.348 221.136C303.712 221.136 304.07 221.224 304.393 221.392C304.716 221.56 304.994 221.804 305.203 222.102L319.261 242.168L320.07 243.321L333.646 262.695Z" fill="#8E8E8E"/>
<path d="M271.371 218.921C269.26 218.919 267.178 219.408 265.288 220.347C263.398 221.287 261.752 222.653 260.479 224.337C259.113 223.749 257.623 223.509 256.141 223.64C254.66 223.77 253.234 224.267 251.992 225.084C250.75 225.902 249.73 227.015 249.025 228.324C248.319 229.633 247.949 231.096 247.949 232.584H285.033C285.033 230.789 284.68 229.013 283.993 227.355C283.307 225.697 282.3 224.191 281.032 222.923C279.763 221.654 278.257 220.647 276.599 219.961C274.941 219.274 273.165 218.921 271.371 218.921Z" fill="#CCCCCC"/>
<path d="M331.65 263.197H212.594C211.419 263.198 210.254 262.967 209.168 262.518C208.082 262.068 207.095 261.409 206.264 260.578C205.432 259.747 204.773 258.76 204.324 257.673C203.874 256.587 203.644 255.423 203.645 254.247V186.383C203.647 184.01 204.591 181.735 206.269 180.058C207.947 178.38 210.221 177.436 212.594 177.433H331.65C334.022 177.436 336.297 178.38 337.975 180.058C339.653 181.735 340.597 184.01 340.599 186.383V254.247C340.601 255.423 340.37 256.587 339.921 257.674C339.472 258.76 338.812 259.747 337.981 260.578C337.15 261.41 336.163 262.069 335.076 262.518C333.99 262.967 332.825 263.198 331.65 263.197ZM212.594 177.976C210.365 177.978 208.228 178.865 206.652 180.441C205.076 182.017 204.19 184.154 204.187 186.383V254.247C204.186 255.352 204.403 256.445 204.825 257.466C205.247 258.486 205.866 259.413 206.647 260.194C207.428 260.975 208.355 261.594 209.376 262.016C210.396 262.439 211.49 262.655 212.594 262.654H331.65C332.754 262.656 333.848 262.439 334.869 262.017C335.889 261.595 336.816 260.976 337.597 260.195C338.378 259.414 338.998 258.487 339.42 257.466C339.842 256.445 340.058 255.352 340.057 254.247V186.383C340.054 184.154 339.168 182.017 337.592 180.441C336.016 178.865 333.879 177.978 331.65 177.976H212.594Z" fill="#3F3D56"/>
</g>
<defs>
<clipPath id="clip0_3_3">
<rect width="221.357" height="190" fill="white" transform="translate(189 105)"/>
</clipPath>
</defs>
</svg>
